<svg width="165" height="165" viewBox="0 0 165 165" fill="none" xmlns="http://www.w3.org/2000/svg">
<path d="M82.499 159.459C125.014 159.459 159.479 125.003 159.479 82.5C159.479 39.9967 125.014 5.54102 82.499 5.54102C39.9844 5.54102 5.51953 39.9967 5.51953 82.5C5.51953 125.003 39.9844 159.459 82.499 159.459Z" fill="#000126"/>
<path d="M82.4999 165C36.994 165 0 127.994 0 82.5C0 37.0063 37.016 0 82.4999 0C127.984 0 165 37.0063 165 82.5C165 127.994 127.984 165 82.4999 165ZM82.4999 11.0821C43.1084 11.0821 11.041 43.119 11.041 82.5C11.041 121.881 43.0864 153.918 82.4999 153.918C121.913 153.918 153.959 121.881 153.959 82.5C153.959 43.119 121.913 11.0821 82.4999 11.0821Z" fill="#FFCDCC"/>
<path d="M88.2618 33.202C74.8234 33.224 62.6826 41.3817 57.646 53.849C55.7325 53.3653 53.7531 53.1014 51.7956 53.1014C38.973 53.1014 28.5918 63.4799 28.5918 76.299C28.5918 89.1182 38.973 99.4967 51.7956 99.4967H58.8117L65.234 71.5056C65.9158 68.4932 68.5991 66.3603 71.6783 66.3603H96.5536C98.6211 66.3603 100.601 67.3498 101.832 68.9769C103.108 70.6261 103.482 72.7809 102.954 74.7818L97.8513 92.8782H108.167C111.818 92.9002 114.765 95.8466 114.765 99.5187H118.108C127.257 99.5187 134.692 92.0866 134.692 82.9395C134.692 75.0677 129.127 68.2513 121.407 66.6902C121.407 66.5802 121.429 66.4483 121.429 66.3603C121.429 48.0441 106.583 33.202 88.2618 33.202ZM71.6783 73.0008L62.5506 112.778H81.6197L74.9774 139.295L108.145 99.5187H89.0757L96.5316 73.0008H71.6562H71.6783Z" fill="white"/>
</svg>
