<svg width="116" height="126" viewBox="0 0 116 126" fill="none" xmlns="http://www.w3.org/2000/svg">
<g filter="url(#filter0_d_5_79681)">
<path d="M57.5098 92.52C76.8397 92.52 92.5098 76.85 92.5098 57.52C92.5098 38.1901 76.8397 22.52 57.5098 22.52C38.1798 22.52 22.5098 38.1901 22.5098 57.52C22.5098 76.85 38.1798 92.52 57.5098 92.52Z" fill="#000126"/>
<path d="M57.5099 95.04C36.8199 95.04 20 78.21 20 57.52C20 36.83 36.8299 20 57.5099 20C78.1899 20 95.02 36.83 95.02 57.52C95.02 78.21 78.1899 95.04 57.5099 95.04ZM57.5099 25.04C39.5999 25.04 25.02 39.61 25.02 57.52C25.02 75.43 39.5899 90 57.5099 90C75.4299 90 90 75.43 90 57.52C90 39.61 75.4299 25.04 57.5099 25.04Z" fill="#FFCDCC"/>
<path d="M64.6301 68.3598C65.0401 68.0398 65.6301 68.0398 66.0401 68.3598C68.0801 69.9198 70.5801 70.7698 73.1601 70.7698H75.9601C76.5701 70.7698 77.0701 71.2698 77.0701 71.8798V73.5698C77.0701 74.1798 76.5701 74.6798 75.9601 74.6798H73.1601C70.6301 74.6798 68.1401 74.0698 65.9001 72.8998C65.5401 72.7098 65.1201 72.7098 64.7601 72.8998C62.5201 74.0698 60.0301 74.6798 57.5001 74.6798C54.9701 74.6798 52.4801 74.0698 50.2401 72.8998C49.8801 72.7098 49.4601 72.7098 49.1001 72.8998C46.8601 74.0698 44.3701 74.6798 41.8401 74.6798H39.0401C38.4301 74.6798 37.9301 74.1798 37.9301 73.5698V71.8798C37.9301 71.2698 38.4301 70.7698 39.0401 70.7698H41.8401C44.5201 70.7698 46.9901 69.8698 48.9601 68.3698C49.3701 68.0498 49.9601 68.0498 50.3701 68.3698C52.4101 69.9298 54.9101 70.7798 57.4901 70.7798C60.1701 70.7798 62.6401 69.8798 64.6101 68.3798L64.6301 68.3598ZM58.6301 36.5898L58.8301 36.7498L77.8001 53.9998C78.2301 54.3898 77.9501 55.1198 77.3701 55.1198H74.1201C73.5901 55.1198 73.1601 55.5498 73.1601 56.0798V66.8598C70.5301 66.8598 68.0301 65.8098 66.2101 63.9598C65.7201 63.4698 64.9501 63.4698 64.4601 63.9598C62.6401 65.7998 60.1401 66.8598 57.5101 66.8598C54.8801 66.8598 52.3801 65.8098 50.5601 63.9598C50.0701 63.4698 49.3001 63.4698 48.8101 63.9598C46.9901 65.7998 44.4901 66.8598 41.8601 66.8598V56.0798C41.8601 55.5498 41.4301 55.1198 40.9001 55.1198H37.6501C37.0601 55.1198 36.7801 54.3998 37.2201 53.9998L56.1901 36.7498C56.8001 36.1998 57.6901 36.0798 58.4201 36.4698L58.6301 36.5998V36.5898Z" fill="white"/>
</g>
<defs>
<filter id="filter0_d_5_79681" x="-10" y="-10" width="135.02" height="135.04" filterUnits="userSpaceOnUse" color-interpolation-filters="sRGB">
<feFlood flood-opacity="0" result="BackgroundImageFix"/>
<feColorMatrix in="SourceAlpha" type="matrix" values="0 0 0 0 0 0 0 0 0 0 0 0 0 0 0 0 0 0 127 0" result="hardAlpha"/>
<feOffset/>
<feGaussianBlur stdDeviation="15"/>
<feComposite in2="hardAlpha" operator="out"/>
<feColorMatrix type="matrix" values="0 0 0 0 0 0 0 0 0 0.0156863 0 0 0 0 0.627451 0 0 0 0.55 0"/>
<feBlend mode="normal" in2="BackgroundImageFix" result="effect1_dropShadow_5_79681"/>
<feBlend mode="normal" in="SourceGraphic" in2="effect1_dropShadow_5_79681" result="shape"/>
</filter>
</defs>
</svg>
