<svg width="116" height="126" viewBox="0 0 116 126" fill="none" xmlns="http://www.w3.org/2000/svg">
<g filter="url(#filter0_d_5_79677)">
<path d="M57.5098 92.52C76.8397 92.52 92.5098 76.85 92.5098 57.52C92.5098 38.1901 76.8397 22.52 57.5098 22.52C38.1798 22.52 22.5098 38.1901 22.5098 57.52C22.5098 76.85 38.1798 92.52 57.5098 92.52Z" fill="#000126"/>
<path d="M57.51 95.03C36.82 95.03 20 78.2 20 57.51C20 36.82 36.83 20 57.51 20C78.19 20 95.02 36.83 95.02 57.52C95.02 78.21 78.19 95.04 57.51 95.04V95.03ZM57.51 25.03C39.6 25.03 25.02 39.6 25.02 57.51C25.02 75.42 39.59 89.99 57.51 89.99C75.43 89.99 90 75.42 90 57.51C90 39.6 75.43 25.03 57.51 25.03Z" fill="#FFCDCC"/>
<path d="M57.5105 33.05C49.6805 33.05 43.2705 39.45 43.2705 47.25C43.2705 50.27 44.2405 53.09 45.8705 55.4L55.7705 72.5201C57.1605 74.3301 58.0805 73.99 59.2305 72.42L70.1505 53.83C70.3705 53.43 70.5405 53.01 70.6905 52.57C71.3805 50.88 71.7405 49.07 71.7405 47.25C71.7405 39.44 65.3305 33.05 57.5005 33.05H57.5105ZM57.5105 40.75C61.1305 40.75 64.0105 43.63 64.0105 47.25C64.0105 50.87 61.1305 53.75 57.5105 53.75C53.8905 53.75 51.0105 50.87 51.0105 47.25C51.0105 43.63 53.8905 40.75 57.5105 40.75Z" fill="white"/>
<path d="M49.8503 66.1101C43.0903 67.0701 38.3604 69.3501 38.3604 72.7201C38.3604 77.2501 46.2603 80.9301 57.5103 80.9301C68.7603 80.9301 76.6603 77.2601 76.6603 72.7201C76.6603 69.3501 71.9304 67.0701 65.1703 66.1101L64.2303 67.7101C69.3303 68.4201 72.8304 69.9001 72.8304 71.6301C72.8304 74.0501 65.9703 76.0101 57.5103 76.0101C49.0503 76.0101 42.1904 74.0501 42.1904 71.6301C42.1904 69.9101 45.6703 68.4301 50.7803 67.7201C50.4703 67.1901 50.1603 66.6501 49.8503 66.1201V66.1101Z" fill="white"/>
</g>
<defs>
<filter id="filter0_d_5_79677" x="-10" y="-10" width="135.02" height="135.04" filterUnits="userSpaceOnUse" color-interpolation-filters="sRGB">
<feFlood flood-opacity="0" result="BackgroundImageFix"/>
<feColorMatrix in="SourceAlpha" type="matrix" values="0 0 0 0 0 0 0 0 0 0 0 0 0 0 0 0 0 0 127 0" result="hardAlpha"/>
<feOffset/>
<feGaussianBlur stdDeviation="15"/>
<feComposite in2="hardAlpha" operator="out"/>
<feColorMatrix type="matrix" values="0 0 0 0 0 0 0 0 0 0.0156863 0 0 0 0 0.627451 0 0 0 0.55 0"/>
<feBlend mode="normal" in2="BackgroundImageFix" result="effect1_dropShadow_5_79677"/>
<feBlend mode="normal" in="SourceGraphic" in2="effect1_dropShadow_5_79677" result="shape"/>
</filter>
</defs>
</svg>
