<svg width="116" height="126" viewBox="0 0 116 126" fill="none" xmlns="http://www.w3.org/2000/svg">
<g filter="url(#filter0_d_5_79679)">
<path d="M57.5098 92.51C76.8397 92.51 92.5098 76.84 92.5098 57.51C92.5098 38.18 76.8397 22.51 57.5098 22.51C38.1798 22.51 22.5098 38.18 22.5098 57.51C22.5098 76.84 38.1798 92.51 57.5098 92.51Z" fill="#000126"/>
<path d="M57.51 95.03C36.82 95.03 20 78.2 20 57.51C20 36.82 36.82 20 57.51 20C78.2 20 95.02 36.83 95.02 57.52C95.02 78.21 78.19 95.04 57.51 95.04V95.03ZM57.51 25.03C39.6 25.03 25.02 39.6 25.02 57.51C25.02 75.42 39.59 89.99 57.51 89.99C75.43 89.99 90 75.42 90 57.51C90 39.6 75.43 25.03 57.51 25.03Z" fill="#FFCDCC"/>
<path d="M80.2293 57.8901L80.1193 57.7901C80.0493 57.7301 79.9793 57.6601 79.9193 57.6001L69.2093 46.9001C69.2093 46.9001 69.1593 46.8501 69.1393 46.8301C68.6093 46.3801 67.9893 46.0601 67.3293 45.8801V43.2601C67.3293 42.6301 66.8193 42.1101 66.1793 42.1101H60.9693C60.3393 42.1101 59.8193 42.6201 59.8193 43.2601V45.7101H37.6693C35.7993 45.7101 34.2793 47.2301 34.2793 49.1001V69.4301C34.2793 70.0601 34.7893 70.5801 35.4293 70.5801H38.4293C38.9493 72.8601 40.9993 74.5701 43.4393 74.5701C45.8793 74.5701 47.9193 72.8601 48.4493 70.5801H68.1393C68.6593 72.8601 70.7093 74.5701 73.1493 74.5701C75.5893 74.5701 77.6393 72.8601 78.1593 70.5701C80.2593 70.5001 81.9493 68.7701 81.9493 66.6501V61.8301C81.9493 60.3401 81.3293 58.9101 80.2393 57.8901H80.2293ZM43.4293 72.2701C41.8593 72.2701 40.5893 71.0001 40.5893 69.4301C40.5893 67.8601 41.8593 66.5901 43.4293 66.5901C44.9993 66.5901 46.2693 67.8601 46.2693 69.4301C46.2693 71.0001 44.9993 72.2701 43.4293 72.2701ZM73.1293 72.2701C71.5593 72.2701 70.2893 71.0001 70.2893 69.4301C70.2893 67.8601 71.5593 66.5901 73.1293 66.5901C74.6993 66.5901 75.9693 67.8601 75.9693 69.4301C75.9693 71.0001 74.6993 72.2701 73.1293 72.2701ZM63.5693 40.8401C62.9393 40.8401 62.4193 40.3301 62.4193 39.6901V36.4701C62.4193 35.8401 62.9293 35.3201 63.5693 35.3201C64.2093 35.3201 64.7193 35.8301 64.7193 36.4701V39.6901C64.7193 40.3201 64.2093 40.8401 63.5693 40.8401ZM69.1393 41.8101C68.8493 41.8101 68.5493 41.7001 68.3293 41.4701C67.8793 41.0201 67.8793 40.2901 68.3293 39.8501L70.3593 37.8201C70.8093 37.3701 71.5393 37.3701 71.9793 37.8201C72.4293 38.2701 72.4293 39.0001 71.9793 39.4401L69.9493 41.4701C69.7293 41.6901 69.4293 41.8101 69.1393 41.8101ZM58.5293 41.8101C58.2393 41.8101 57.9393 41.7001 57.7193 41.4701L55.6893 39.4401C55.2393 38.9901 55.2393 38.2601 55.6893 37.8201C56.1393 37.3701 56.8693 37.3701 57.3093 37.8201L59.3393 39.8501C59.7893 40.3001 59.7893 41.0301 59.3393 41.4701C59.1193 41.6901 58.8193 41.8101 58.5293 41.8101Z" fill="white"/>
<path d="M52.2095 58.25V55.5801C52.2095 55.0801 51.7995 54.67 51.2995 54.67H48.5895V51.96C48.5895 51.46 48.1795 51.05 47.6795 51.05H45.0095C44.5095 51.05 44.0995 51.46 44.0995 51.96V54.67H41.3895C40.8895 54.67 40.4795 55.0801 40.4795 55.5801V58.25C40.4795 58.75 40.8895 59.16 41.3895 59.16H44.0995V61.87C44.0995 62.37 44.5095 62.78 45.0095 62.78H47.6795C48.1795 62.78 48.5895 62.37 48.5895 61.87V59.16H51.2995C51.7995 59.16 52.2095 58.75 52.2095 58.25Z" fill="#000126"/>
<path d="M61.2696 59.16C60.6196 59.16 60.0996 58.6301 60.0996 57.9901V51.7001C60.0996 51.3401 60.3896 51.05 60.7496 51.05H64.9496C65.3596 51.05 65.7496 51.21 66.0496 51.5L72.4696 57.92C72.7796 58.23 72.6896 58.5801 72.6296 58.7201C72.5696 58.8601 72.3896 59.17 71.9496 59.17H61.2796L61.2696 59.16Z" fill="#000126"/>
</g>
<defs>
<filter id="filter0_d_5_79679" x="-10" y="-10" width="135.02" height="135.04" filterUnits="userSpaceOnUse" color-interpolation-filters="sRGB">
<feFlood flood-opacity="0" result="BackgroundImageFix"/>
<feColorMatrix in="SourceAlpha" type="matrix" values="0 0 0 0 0 0 0 0 0 0 0 0 0 0 0 0 0 0 127 0" result="hardAlpha"/>
<feOffset/>
<feGaussianBlur stdDeviation="15"/>
<feComposite in2="hardAlpha" operator="out"/>
<feColorMatrix type="matrix" values="0 0 0 0 0 0 0 0 0 0.0156863 0 0 0 0 0.627451 0 0 0 0.55 0"/>
<feBlend mode="normal" in2="BackgroundImageFix" result="effect1_dropShadow_5_79679"/>
<feBlend mode="normal" in="SourceGraphic" in2="effect1_dropShadow_5_79679" result="shape"/>
</filter>
</defs>
</svg>
