<svg width="116" height="126" viewBox="0 0 116 126" fill="none" xmlns="http://www.w3.org/2000/svg">
<g filter="url(#filter0_d_5_79680)">
<path d="M57.5098 92.52C76.8397 92.52 92.5098 76.85 92.5098 57.52C92.5098 38.1901 76.8397 22.52 57.5098 22.52C38.1798 22.52 22.5098 38.1901 22.5098 57.52C22.5098 76.85 38.1798 92.52 57.5098 92.52Z" fill="#000126"/>
<path d="M57.51 95.04C36.82 95.04 20 78.21 20 57.52C20 36.83 36.82 20 57.51 20C78.2 20 95.02 36.83 95.02 57.52C95.02 78.21 78.19 95.04 57.51 95.04ZM57.51 25.04C39.6 25.04 25.02 39.61 25.02 57.52C25.02 75.43 39.59 90 57.51 90C75.43 90 90 75.43 90 57.52C90 39.61 75.43 25.04 57.51 25.04Z" fill="#FFCDCC"/>
<path d="M76.6295 57.7999C76.4795 68.3399 67.5295 76.6399 56.9895 76.6399H39.4895C38.9695 76.6399 38.5995 76.1199 38.7895 75.6299C39.6295 73.3999 41.4195 68.0999 40.3795 66.0199C38.9695 63.1799 38.2395 59.9399 38.4195 56.5099C38.9395 46.4099 47.5395 38.3299 57.6495 38.3999C67.7595 38.4699 76.7795 47.1599 76.6295 57.7999Z" fill="white"/>
<path d="M49.6996 61.2699L49.9996 59.6199C50.0496 59.3499 50.2796 59.1599 50.5496 59.1599H63.2596C63.6096 59.1599 63.8796 59.4799 63.8096 59.8199L63.5096 61.4699C63.4596 61.7399 63.2296 61.9299 62.9596 61.9299H50.2496C49.8996 61.9299 49.6296 61.6099 49.6996 61.2699ZM50.8196 55.0999L51.1196 53.4499C51.1696 53.1799 51.3996 52.9899 51.6696 52.9899H64.3796C64.7296 52.9899 64.9996 53.3099 64.9296 53.6499L64.6296 55.2999C64.5796 55.5699 64.3496 55.7599 64.0796 55.7599H51.3696C51.0196 55.7599 50.7496 55.4399 50.8196 55.0999ZM51.3196 65.6699L54.3396 49.0599C54.3896 48.7899 54.6196 48.5999 54.8896 48.5999H56.5196C56.8696 48.5999 57.1396 48.9199 57.0696 49.2599L54.0496 65.8699C53.9996 66.1399 53.7696 66.3299 53.4996 66.3299H51.8696C51.5196 66.3299 51.2496 66.0099 51.3196 65.6699ZM57.5596 65.6699L60.5796 49.0599C60.6296 48.7899 60.8596 48.5999 61.1296 48.5999H62.7596C63.1096 48.5999 63.3796 48.9199 63.3096 49.2599L60.2896 65.8699C60.2396 66.1399 60.0096 66.3299 59.7396 66.3299H58.1096C57.7596 66.3299 57.4896 66.0099 57.5596 65.6699Z" fill="#000126"/>
</g>
<defs>
<filter id="filter0_d_5_79680" x="-10" y="-10" width="135.02" height="135.04" filterUnits="userSpaceOnUse" color-interpolation-filters="sRGB">
<feFlood flood-opacity="0" result="BackgroundImageFix"/>
<feColorMatrix in="SourceAlpha" type="matrix" values="0 0 0 0 0 0 0 0 0 0 0 0 0 0 0 0 0 0 127 0" result="hardAlpha"/>
<feOffset/>
<feGaussianBlur stdDeviation="15"/>
<feComposite in2="hardAlpha" operator="out"/>
<feColorMatrix type="matrix" values="0 0 0 0 0 0 0 0 0 0.0156863 0 0 0 0 0.627451 0 0 0 0.55 0"/>
<feBlend mode="normal" in2="BackgroundImageFix" result="effect1_dropShadow_5_79680"/>
<feBlend mode="normal" in="SourceGraphic" in2="effect1_dropShadow_5_79680" result="shape"/>
</filter>
</defs>
</svg>
