<svg width="116" height="126" viewBox="0 0 116 126" fill="none" xmlns="http://www.w3.org/2000/svg">
<g filter="url(#filter0_d_5_79682)">
<path d="M57.5098 92.52C76.8397 92.52 92.5098 76.85 92.5098 57.52C92.5098 38.1901 76.8397 22.52 57.5098 22.52C38.1798 22.52 22.5098 38.1901 22.5098 57.52C22.5098 76.85 38.1798 92.52 57.5098 92.52Z" fill="#000126"/>
<path d="M57.5099 95.04C36.8199 95.04 20 78.21 20 57.52C20 36.83 36.8299 20 57.5099 20C78.1899 20 95.02 36.83 95.02 57.52C95.02 78.21 78.1899 95.04 57.5099 95.04ZM57.5099 25.04C39.5999 25.04 25.02 39.61 25.02 57.52C25.02 75.43 39.5899 90 57.5099 90C75.4299 90 90 75.43 90 57.52C90 39.61 75.4299 25.04 57.5099 25.04Z" fill="#FFCDCC"/>
<path d="M60.1299 35.0999C54.0199 35.1099 48.5 38.8199 46.21 44.4899C45.34 44.2699 44.44 44.1499 43.55 44.1499C37.72 44.1499 33 48.8699 33 54.6999C33 60.5299 37.72 65.2499 43.55 65.2499H46.74L49.66 52.5199C49.97 51.1499 51.19 50.1799 52.59 50.1799H63.9C64.84 50.1799 65.74 50.6299 66.3 51.3699C66.88 52.1199 67.05 53.0999 66.81 54.0099L64.49 62.2399H69.18C70.84 62.2499 72.18 63.5899 72.18 65.2599H73.7C77.86 65.2599 81.24 61.8799 81.24 57.7199C81.24 54.1399 78.7099 51.0399 75.2 50.3299C75.2 50.2799 75.21 50.2199 75.21 50.1799C75.21 41.8499 68.4599 35.0999 60.1299 35.0999ZM52.59 53.1999L48.4399 71.2899H57.11L54.09 83.3498L69.17 65.2599H60.5L63.89 53.1999H52.58H52.59Z" fill="white"/>
</g>
<defs>
<filter id="filter0_d_5_79682" x="-10" y="-10" width="135.02" height="135.04" filterUnits="userSpaceOnUse" color-interpolation-filters="sRGB">
<feFlood flood-opacity="0" result="BackgroundImageFix"/>
<feColorMatrix in="SourceAlpha" type="matrix" values="0 0 0 0 0 0 0 0 0 0 0 0 0 0 0 0 0 0 127 0" result="hardAlpha"/>
<feOffset/>
<feGaussianBlur stdDeviation="15"/>
<feComposite in2="hardAlpha" operator="out"/>
<feColorMatrix type="matrix" values="0 0 0 0 0 0 0 0 0 0.0156863 0 0 0 0 0.627451 0 0 0 0.55 0"/>
<feBlend mode="normal" in2="BackgroundImageFix" result="effect1_dropShadow_5_79682"/>
<feBlend mode="normal" in="SourceGraphic" in2="effect1_dropShadow_5_79682" result="shape"/>
</filter>
</defs>
</svg>
