<?xml version="1.0" encoding="UTF-8"?>
<svg id="Ebene_1" xmlns="http://www.w3.org/2000/svg" version="1.1" viewBox="0 0 684.187966 587.904552">
  <!-- Generator: Adobe Illustrator 30.1.0, SVG Export Plug-In . SVG Version: 2.1.1 Build 136)  -->
  <path fill="#fff" d="M575.793648,22.548387l-318.249989,396.500015c-.592041.872803-1.275635,1.678419-2.056885,2.453613-6.921387,6.921387-18.115616,6.921387-25.012493,0l-126.5625-126.5625c-11.785936-11.761427-27.30155-17.664051-42.815638-17.664051-15.515161,0-31.029677,5.902052-42.815638,17.664051l-.616455.616455c-11.785936,11.785936-17.664051,27.30155-17.664051,42.815638,0,15.515137,5.877662,31.029701,17.664051,42.815638l188.921881,188.921928c6.378126,6.378078,13.439989,11.077785,21.045303,13.983154,7.696581,2.954102,16.131258,4.205322,25.128126,3.704834,8.996582-.494385,17.193747-2.618408,24.468756-6.378078,7.226562-3.704834,13.745165-9.137058,19.415617-16.198444L670.92495,98.939368c10.412693-12.988281,14.59341-29.07033,12.896729-44.537497-1.702785-15.399218-9.234715-30.181241-22.246838-40.618753l-.65918-.518799c-12.988281-10.437036-29.070282-14.593434-44.537544-12.896729-15.399265,1.678443-30.181217,9.234691-40.618706,22.223425l.034237-.042629Z"/>
</svg>