<?xml version="1.0" encoding="UTF-8"?>
<svg id="Unbenanntes_x5F_Projekt_2_xA0_Bild" xmlns="http://www.w3.org/2000/svg" version="1.1" viewBox="0 0 490.064473 258.741867">
  <!-- Generator: Adobe Illustrator 30.1.0, SVG Export Plug-In . SVG Version: 2.1.1 Build 136)  -->
  <defs>
    <style>
      .st0 {
        fill: #fff;
      }
    </style>
  </defs>
  <path class="st0" d="M.121955,214.954683c-.69449-12.952158,1.724473-47.891256,3.530401-61.555489.282833-2.140007,3.950926-4.462245,5.775072-4.44905,2.002551.014486,4.955162,2.759409,4.728156,5.268151-1.818035,20.091851-2.9237,39.110016-3.691324,59.289538,2.950452,11.308396,13.862558,19.655345,25.550779,16.35129,8.181936-2.31289,13.544133-10.567349,15.590696-18.545588,3.717964-14.493964,6.150803-45.222964,4.417945-59.184364-.433956-3.496328-.311321-6.384344,2.870195-7.798841,2.188724-.973104,7.350589,1.233994,7.524982,4.681519,1.070525,21.162886.579992,50.872578-6.611228,70.981789-1.712917,4.789925-5.135022,8.849277-8.464176,12.435177-11.979949,12.903848-30.827945,10.835369-41.522794-.015584-4.538141-4.60438-9.326972-10.525773-9.698704-17.458546Z"/>
  <path class="st0" d="M19.527546,72.701367l-1.211265,34.860287c-.102349,2.945615-2.226023,7.68169-5.154483,7.843856-7.702809.426551-5.113712-20.714235-5.019316-24.843802l.796962-34.864944.577951-26.162231c.181788-8.229052-.095826-16.257919,2.43745-24.297225.752896-2.389302,7.327152-2.464146,9.859838-2.498487l32.454562-.440066c2.051066-.027811,6.041785,2.350861,7.345652,3.947382.701107.858471.912279,3.891369.42323,4.88601-.488974.99449-2.783934,1.996752-4.076506,2.017132l-38.129844.601178.014072,39.799651,27.884178-.014906c1.851663-.00099,4.867113,3.297918,4.991472,5.033514.124357,1.735568-2.81061,5.029089-4.707919,5.103026l-28.196604,1.098809-.28943,7.930815Z"/>
  <path class="st0" d="M468.846199,256.450572l-10.601695-24.464259c-.509885-1.1766.463707-4.332427,1.810335-4.675016l8.467069-2.154065c-3.756815-10.782209-11.846996-18.377221-21.568675-23.332537-19.012314-9.69092-29.119317.699867-30.478414-6.16692-.289645-1.463418,1.381934-4.138497,3.290659-4.629457,22.369419-5.753843,50.266161,11.416026,56.318667,34.271385l9.682939-.473242c1.153827-.056392,3.566565,1.135512,4.056436,2.038048.571619,1.053145.044307,3.269982-.726249,4.709145l-13.493621,25.201972c-.442258.826004-2.403317,1.911382-3.327899,1.96474-.924602.05336-3.012754-1.327997-3.429553-2.289794Z"/>
  <path class="st0" d="M463.087498,99.799119c-3.98541-9.038839,8.250863-23.083146-3.929359-34.312639-4.892292-4.510424-19.138876,11.230473-22.111618,21.079397-1.350199,4.473312,1.224987,17.935168-6.690484,17.797928-3.699606-.064145-5.807162-3.446173-5.472449-7.169674l3.015899-33.550205c1.632876-18.164844,1.609703-35.411213-.447809-53.62509-.267332-2.366525,2.281347-5.670085,4.059275-6.086335,2.521842-.590416,5.959146,1.719834,6.409728,4.792745,2.684581,18.308506,2.125934,35.777194.759431,54.803062l7.65051-5.744259c4.455481-3.345324,12.089937-5.799951,17.244902-2.180335,14.203871,9.973404,15.881333,30.135553,4.929857,43.13185-.932062,1.106094-4.839907,2.374398-5.417884,1.063555Z"/>
  <path class="st0" d="M120.597186,240.165414c-8.927389-1.132372-.080348-13.980255-3.872976-26.340047-2.022944-6.59257-8.652349-9.12898-14.384132-6.62452-7.236697,8.125493-11.677225,16.977522-13.290073,27.957632-.258751,1.761551-3.841269,4.086239-5.531847,3.955596-1.691113-.130685-4.871223-2.733264-4.936059-4.567126-.10036-2.838662.059608-6.073988.635885-8.793249,3.686557-17.395647,5.650503-34.416868,6.015815-52.201907l.427581-20.816576c.072319-3.520796,2.029545-6.447836,5.453777-6.574355,2.25601-.083355,5.940084,2.827051,5.959265,5.874828.06055,9.621489-.253833,18.467576-.747579,28.071866l-.93935,18.272107c4.518858-2.717685,10.154562-4.137594,15.769766-2.916113,8.187514,1.781038,15.175407,8.945759,16.779925,17.370038,1.145092,6.012132,2.5367,28.584614-7.339998,27.331829Z"/>
  <path class="st0" d="M264.762803,225.859743c9.433546,9.123472,31.844978-2.589971,43.651874.333013-10.532471,13.41977-43.078714,18.231484-52.977627,3.716679-2.199635-7.348792-.227982-14.26551,4.060349-20.332682,9.109178-12.887752,14.850993-18.075738,31.796038-17.809674,5.758246.090413,11.670127.892775,15.696997,5.537496,2.122703,2.448394,7.562742,14.478383.290579,16.306716l-15.393454,3.87015c-7.749312,1.948296-18.383156,4.239097-26.100268,5.705828-.732568.139234-1.514119,2.198936-1.024488,2.672474ZM298.113919,205.785044c7.602875-2.102358-16.703322-12.086706-27.295694,6.545626,8.74808-1.766997,19.874351-4.493465,27.295694-6.545626Z"/>
  <path class="st0" d="M181.353211,107.630622c-.082209,2.316742-3.337359,5.234207-5.047998,5.033315-1.71067-.200896-5.154556-2.985691-5.118722-4.764167l.566962-28.139086.276454-17.043298-6.519859-1.336401c-1.88333-.386034-3.97599-4.07041-3.526779-6.145548,1.305587-6.031183,10.296099-2.396373,10.46547-5.378086l1.078715-18.990303.640242-21.105233c.07153-2.357939.573513-6.453255,1.529281-8.375472.609608-1.226027,4.237685-1.78348,5.322909-1.073182,6.178735,4.044088,3.792286,21.831339,3.315292,30.903205l-.958063,18.221237,6.870573-1.156745c4.889313-.823176,9.264075.451018,11.906153,5.234425-3.096603,2.603387-6.651176,4.397873-10.508074,5.431204l-9.264816,2.482207-.194415,22.717856-.833326,23.484071Z"/>
  <path class="st0" d="M242.485526,232.294518c-14.56038,7.882684-21.467872-.38751-49.639785,7.140706-1.56112.417169-4.967963-1.322975-5.865936-2.799179-.907858-1.492454.096549-4.836504,1.758913-6.129049,2.883911-2.242339,5.332239-4.632079,7.968205-6.413285l23.970336-16.197519-21.255535-.066822c-2.174675-.006837-4.691105-3.507651-4.637538-5.346497.084437-2.898528,2.614121-5.252227,5.919056-5.264161,13.930319-.0503,26.836377-1.094364,40.672191-2.965,2.373106-.32085,5.880407.968122,6.382796,2.816071.679008,2.49761-.600823,5.389551-2.646377,6.594435-4.874305,2.871092-8.842901,5.616013-13.247371,8.635288-6.703461,4.595238-12.516438,8.278533-19.74088,13.819092l15.951906.362947c5.547276.126215,10.716254,1.215255,14.410021,5.812973Z"/>
  <path class="st0" d="M277.853731,72.732063c-20.28568,14.062126-12.841516,36.300197-23.122393,36.698434-1.746977.06767-5.231134-2.682946-5.240597-4.577333l-.186171-37.270519c-.009571-1.916026,1.939857-4.884932,3.423815-5.500476,1.695427-.70326,6.447271.545659,6.685331,2.394642l1.258874,9.777526c6.695529-8.078159,17.759312-17.418506,28.039094-11.915695,15.90477,8.513891,17.888035,29.026125,8.406284,43.917845-1.448362,2.274749-6.81523,3.365873-7.828253.405244-2.937732-8.585719,9.500844-19.225986-1.667159-32.135224-2.048347-2.367711-6.230178-4.24745-9.768825-1.794443Z"/>
  <path class="st0" d="M91.881193,98.396964c-2.349297,7.775336-11.30404,18.062488-18.205195,13.183507-1.47064-1.039713-3.206962-4.516246-3.129849-6.685885,1.245831-35.052602,7.609367-57.980186,3.682894-94.122917-.286816-2.640112.682637-5.730654,2.795444-6.448708,2.342163-.796002,6.628189.57909,7.257736,3.333826,5.793132,25.349259-1.608895,65.649228-2.867121,91.540112l10.466092-.799935Z"/>
  <path class="st0" d="M366.079812,201.320266l-6.392366,34.896803c-.307743,1.680014-3.073595,3.937362-4.622648,3.895372-1.965515-.053278-4.692368-3.031803-4.278777-5.284563l5.875337-32.001975c-2.138119-.419485-5.04451-1.016923-7.071964-1.532651-1.483659-.377401-2.106755-4.753021-1.309321-6.051724,2.897351-4.718632,9.274693-1.688101,9.637301-4.921088l4.498269-40.106217c.20008-1.783894,3.364365-4.004769,4.881569-4.210341,1.754712-.237753,4.873657,2.719638,4.72145,4.571318l-.727865,8.854857c-.870982,10.595946-2.100932,20.865787-3.583566,31.348532l23.948951-.371138c2.320491-.035961,6.69257,3.415917,5.108961,5.495518-1.994671,2.619409-6.333961,3.850537-9.461716,4.051776l-21.223616,1.36552Z"/>
  <path class="st0" d="M111.591444,59.011642c.905403-3.201534,3.955885-5.077222,6.601088-4.504072,2.606484.56476,4.678186,4.245177,3.851643,7.37819-1.992071,7.550948-6.722627,29.844802-2.057471,34.93731,1.659583,1.81161,8.831673-4.070315,10.255019-5.596886,14.199912-15.229733,3.023634-38.051202,13.18444-37.75184,1.45769.042947,4.436992,2.21094,4.710047,3.817824,5.948439,35.005619-19.747329,55.204381-31.752951,50.274752-14.297165-5.870559-8.360147-35.937545-4.791814-48.555278Z"/>
  <path class="st0" d="M358.167083,102.483988c-.240367,2.166256-6.116612,2.179675-7.294339.811659l-5.641627-6.553164c-7.17759,7.643269-17.856183,11.011876-26.284391,4.146553-3.261659-2.656833-5.790851-7.275274-5.740724-12.616581.13092-13.950165,12.417348-25.342119,26.422307-23.309319,8.740579,1.268683,12.97138-.682371,14.034411,3.849054,2.614012,11.142858-4.908123,12.36536,1.772178,23.374504,1.62539,2.678644,3.219518,5.905313,2.732185,10.297294ZM337.793189,88.610302c2.741328-4.132008,3.549124-7.943061,3.003842-13.194796-3.460102-.059416-7.420923.318587-10.514379,1.983662-5.618972,3.024453-7.539597,9.773416-5.112088,15.141138,4.785629,2.67142,9.556279.691905,12.622625-3.930005Z"/>
  <path class="st0" d="M403.141515,94.186025c2.422572-.56327,8.427192.25906,8.523159,2.561289.486877,11.680118-38.480866,15.114823-43.232056.639786-2.69763-8.218634.336065-16.627775,6.032505-22.77974,10.752999-11.61288,33.301815-17.825445,34.686865-8.353559.303219,2.073614-2.295477,5.329437-4.858785,5.707857-26.349047,3.889903-28.223006,20.425843-24.335134,22.386055,6.944779,3.501462,15.745415,1.567721,23.183446-.161688Z"/>
  <path class="st0" d="M157.006458,208.684283c-1.924955,3.499058-4.354452,8.600636-4.683863,11.857184l-1.245419,12.31219c-.24763,2.44807-3.338923,5.309292-5.444958,5.373579-2.857264.087218-6.107062-2.863545-5.94056-6.002677l1.38003-26.01834.007272-8.35385c.001524-1.750916,2.777402-4.572281,4.644335-4.848044,2.209733-.326397,4.663683,2.774245,6.098447,4.763845,5.266946.838287,31.115521-3.851534,31.99617,4.739488.874518,8.531208-22.585639,4.035402-26.811455,6.176626Z"/>
  <path class="st0" d="M328.974335,234.793477c-.271953,1.725749-3.437043,5.053231-5.249649,5.294145-3.119417.414603-5.658356-4.109703-4.996604-7.123623,2.717668-12.377489,4.266806-23.667335,5.292802-36.500588.143431-1.794049,3.205523-3.745577,4.850989-3.758531,1.795992-.014138,5.291812,2.899188,5.048172,4.959934l-2.719314,23.000461-2.226396,14.128202Z"/>
  <path class="st0" d="M338.036747,161.301663c2.012806,1.68237,1.798093,5.791728.685736,7.69976-.986172,1.691586-4.724933,3.368196-6.677918,2.498351-4.040309-1.799523-4.992648-6.701773-2.474044-9.898447,1.486769-1.887044,5.870877-2.468943,8.466226-.299664Z"/>
</svg>