<?xml version="1.0" encoding="UTF-8"?>
<svg id="Unbenanntes_x5F_Projekt_2_xA0_Bild" xmlns="http://www.w3.org/2000/svg" version="1.1" viewBox="0 0 396.707101 372.449951">
  <!-- Generator: Adobe Illustrator 30.1.0, SVG Export Plug-In . SVG Version: 2.1.1 Build 136)  -->
  <defs>
    <style>
      .st0 {
        fill: #fff;
      }
    </style>
  </defs>
  <path class="st0" d="M43.58938,59.051241c-18.878842,25.042312-15.785745,13.325815-20.302735,44.768951-.284764,3.620679-2.909169,5.682611-5.846816,5.454873-2.81927-.218561-5.094402-3.839573-4.575557-7.171366l6.11455-39.264981c2.63884-16.945484,4.591909-33.019689,3.932235-50.251204-.111027-2.900163,1.978234-6.225297,4.495739-6.640337,1.959902-.323113,5.747037,2.161142,5.938735,4.703145,1.215066,16.11241-.368461,30.835257-2.412875,47.314747,6.357276-8.967106,11.855433-16.975052,18.80326-24.522625l11.042142-12.979224L76.059897,1.650855c1.145252-1.409837,5.80755-1.405197,7.115412-.211611,1.469662,1.341249,1.955393,5.758309.411867,7.657452l-17.715701,21.797263c-3.631257,4.467871-7.216805,8.55846-11.189239,12.863202-2.194225,2.37778-3.057036,5.354841-1.882468,8.575494l16.998392,46.609422c.577858,1.58448-1.029248,5.494619-2.384178,6.253278-6.819899,3.818634-11.579823-13.360871-12.980124-17.900702l-10.844478-28.243411Z"/>
  <path class="st0" d="M15.827665,195.638022l-2.86897,18.905177c-.830746,5.47423-1.217415,10.272889-1.403483,15.991155,21.186225,1.25955,19.16012.36184,36.613215-3.761342,2.013159-.475596,5.553811,1.021255,6.237708,2.68597.838045,2.039937-.52231,5.889588-2.620079,6.723972-13.722891,5.458258-27.729685,7.061893-42.120622,4.569101-6.450886-1.11742-10.328841-6.560207-9.571467-13.268576,1.958678-17.348819,4.622751-34.084873,7.687958-51.340238,3.928688-22.116273-2.703211-31.876716-.371722-38.074839.502036-1.334633,3.566071-2.626195,5.162748-2.588827l43.795702,1.024962c2.484826.058153,5.270725,2.324989,5.747213,4.397462.452084,1.966327-2.452638,5.983355-5.131369,5.984846l-37.627563.020955c.983492,12.532552.669095,24.178488-1.088549,37.064171,10.067202.875919,17.528834-4.871349,26.420593-1.677133,1.592508.572082,3.323765,3.963175,3.153483,5.476935-.170357,1.514428-2.731321,3.843094-4.309924,4.133632l-16.026335,2.949605c-3.7172.684141-7.027616.739403-11.678537.783013Z"/>
  <path class="st0" d="M376.983002,351.732926l-16.035008,19.590697c-.782265.955729-3.649892,1.502389-4.5203.824887-.872283-.678961-2.1719-2.838924-2.272821-3.980074l-1.044013-11.805062c-15.505731.459019-30.064865-4.416839-41.320266-14.847843-21.519558-19.943365-25.918959-50.668718-15.744261-77.290838.599788-1.569346,3.222086-3.077731,4.51248-2.769205,1.635499.391039,3.20405,3.518424,2.497912,5.421642-5.789432,15.603974-6.45691,31.809341-.905925,47.436231,7.622382,21.458196,27.313339,35.644404,50.686358,34.726208l-.202973-12.410638c-.019864-1.214545,1.769072-3.558864,2.800344-3.738128,1.028792-.178833,2.710075.61188,3.900696,1.399843l15.043554,9.95595c1.17689.778876,2.462146,1.676069,3.176657,2.303833.857728.753592.291924,4.126472-.572434,5.182497Z"/>
  <path class="st0" d="M161.684361,229.250648c11.199977.282352,23.055885-7.858519,26.769093-3.653029,5.136725,5.817731-13.493067,13.603201-20.161362,13.864906-9.084151.356518-17.498967.344121-26.560085-.001992-7.186159-.274494-16.503008-7.976346-17.394603-14.773991-1.217176-9.27992,1.984522-17.181692,6.824966-24.56353,11.810274-18.011062,33.099368-22.896105,50.787648-11.016037,3.029571,2.034766,5.723053,5.896977,4.998711,9.670462-.987511,5.144468-5.511644,9.462524-10.655468,10.563354-8.702509,1.862425-17.263172,2.740135-26.176389,3.314121l-13.32497.85809c-1.316535,3.0516-2.107472,8.384016-.357998,11.476903,1.102721,1.949495,5.86493,3.51104,8.193124,3.534388l17.057334.726357ZM174.488408,197.919144c-10.618711-5.260494-21.068855-4.521479-30.121083,3.314217,10.571888.035061,19.73723-.785396,30.121083-3.314217Z"/>
  <path class="st0" d="M112.490324,213.845452c.819387,8.660954-1.110621,15.119249-7.680529,19.975777-6.836953,5.053929-15.231069,7.511864-23.756843,5.248861-8.088154-3.318897-11.989173-11.573655-10.731094-20.17291,1.444762-9.875279,2.627153-19.472234,3.218596-29.482189l.900261-15.236577.375548-32.672158c.026009-2.262768,4.0229-4.978333,5.925888-4.709107s5.075479,3.379286,5.080813,5.743773l.077224,34.233618c11.880218-1.043355,21.002417,6.848804,23.918837,17.175224,1.763335,6.243593,2.003452,12.836509,2.671301,19.895688ZM102.021801,220.586035c-.451082-8.205601-.840308-15.365926-2.234478-22.427549-1.410219-7.14291-8.240297-11.492188-14.69104-9.463383l-3.621075,32.441095c-.19028,1.704716-.114755,6.24189,1.47711,6.957386,6.541821,2.940357,15.580939-.403423,19.069483-7.507549Z"/>
  <path class="st0" d="M235.855693,234.6743c-4.282119-4.819078-1.447294-9.370022.484482-13.389201,3.135738-6.524097,6.528253-18.71651,5.136686-26.181628-5.971496,1.552808-8.460672,5.9951-12.222127,10.160871-7.1936,7.966832-12.824261,16.104956-15.571216,26.840408-.85368,3.33629-5.094762,5.23108-8.357189,4.58916-2.640599-.519568-5.215874-4.143475-4.560176-7.524246,2.608312-13.448436,2.333504-26.013541.816485-39.508494-.308971-2.748512,2.686097-6.513759,4.907354-6.866646,2.789838-.443217,6.807273,2.135684,7.216839,5.311465l1.850672,14.35015,17.745414-17.374015c2.799754-2.741157,9.711674-3.421609,13.368333-2.018207,17.141083,6.578637-2.437358,61.03917-10.815555,51.610383Z"/>
  <path class="st0" d="M273.139427,224.535738c4.780391,7.671357,25.166006-.20602,35.109047,2.019763-2.226023,2.422751-4.22928,5.151363-6.377791,6.750074-7.884858,5.867136-19.03639,6.483292-28.002539,4.020805-8.261904-2.269072-12.980733-9.067452-12.560632-17.353991.489098-9.64753,6.106167-22.008069,13.097204-27.367802,11.483007-8.803538,20.600823-14.320558,36.766855-9.489612,2.522614.753841,6.276774,5.456892,7.392561,8.04502,2.846253,6.60204-.974354,14.843267-7.135823,17.622595l-29.547048,3.369656c-1.808423.206239-5.064129-.600063-7.585499-.92705-1.547505,3.65631-3.492187,9.562071-1.156334,13.310544ZM306.261295,198.113007c.929519-.16963,2.713814-1.675915,2.445872-2.453896-2.231317-6.478713-23.858671-2.294869-28.714752,6.650414l7.074533-.693699,19.194347-3.502819Z"/>
  <path class="st0" d="M367.931064,233.534183c-4.981664-10.230292,5.867422-13.965066,4.388335-32.297884-.271336-3.363124-6.837878-8.209353-9.784658-6.522251-11.563453,6.620349-17.882736,21.399886-21.569438,33.756917-.936064,3.137487-3.083395,6.547143-6.502841,7.357068-1.27662.302378-4.45773-.417971-5.213688-1.324018s-1.686897-3.396946-1.476975-4.653974l4.515837-27.041216c.922927-5.526564,1.006466-10.361348-.004643-16.030597-.536632-3.008878,2.454222-5.947634,4.972868-6.352962,3.690895-.593979,6.930225,1.296321,7.852364,4.946872l1.725774,6.831974c2.95164-2.763482,5.579309-5.493073,9.03359-7.841047,4.261806-2.896872,11.448259-2.343795,15.850262.227908,11.46877,6.700196,12.787721,15.143907,10.727087,27.307436-1.32575,7.825653-3.381132,14.433478-7.704113,21.242194-.91981,1.448705-6.05096,1.951851-6.809763.393582Z"/>
  <path class="st0" d="M240.465194,95.51059c-2.09135,9.555396,30.1266.583234,34.255941,3.405909-7.446616,12.117077-25.252385,13.63956-36.955138,9.45651-4.69884-1.67956-8.028184-7.982531-7.83769-12.673793.620809-15.288537,11.74464-34.889684,30.296632-34.546571,4.706119.087038,9.419549.080407,14.114026.841067,4.964628.804434,9.922326,6.553609,9.830925,11.867371-.05363,3.117833-3.217133,9.930805-6.211484,10.88296-11.891587,3.781329-23.667159,3.70997-35.701294,2.579262l-1.791918,8.187285ZM268.411433,76.81871c1.613176-.030087,4.02502-2.968777,4.383178-4.340577-4.778795-1.57421-23.071083-1.950525-23.498594,4.69709l19.115415-.356513Z"/>
  <path class="st0" d="M328.646962,105.603191c3.128603-14.856194,8.963897-21.07985,4.198925-35.804544-2.428111-1.192453-5.902677,2.651745-7.51511,4.505718l-7.573491,8.707992-6.834145,8.682263c-7.892304,10.026574-5.248887,16.823468-11.930416,17.470575-9.134203.884649-3.308742-19.650172-2.078862-25.713771,2.540238-12.523977-1.126474-25.805599,6.101563-24.895387,1.625323.204674,5.114408,2.576238,5.155062,4.323406l.351813,15.119564c5.74866-5.891239,17.105851-21.953699,26.576192-18.527609,6.530634,2.362591,8.666171,9.288882,9.298699,15.24378,1.034028,9.734797-1.137744,18.131183-4.722662,26.895691l-2.948806,7.209322c-.492207,1.203361-3.649053,2.331257-4.930133,2.067842-1.490733-.306524-3.495337-3.638504-3.14863-5.284843Z"/>
  <path class="st0" d="M128.676293,106.663711c-3.068531,4.887953-12.64528-5.817801-14.156354-10.474259-7.358891,6.024502-16.286363,15.306932-26.494052,9.86597-8.063655-4.298137-5.551126-17.926915-3.519952-25.529141,3.389157-12.68485,18.483962-24.057377,29.4043-20.746693,2.681564.812961,7.626321,3.617041,9.090653,5.984151,5.348034,8.645158-5.465154,15.533047,4.914287,32.620667,1.174833,1.934122,2.408358,5.655368.761118,8.279304ZM110.675681,82.67095c2.181108-4.0501,1.176757-9.16679-1.197077-12.800231-12.890079,3.771872-16.89722,14.13469-15.914786,26.395676,5.417815,1.915133,14.841855-9.380267,17.111863-13.595445Z"/>
  <path class="st0" d="M195.414128,108.299996l1.450173-21.374351,1.392557-17.266842-7.619789.668411c-1.502898.131835-4.321974-2.330768-4.539729-3.773296-.21848-1.44733,1.585131-4.458301,3.076765-5.007775l10.303288-3.795434,4.386559-52.366812c.237998-2.841226,2.054606-5.227305,4.606007-5.378002,2.737578-.161693,5.351477,3.029649,5.14074,6.173317l-1.386814,20.68774-2.287962,28.867184c4.43499-.022013,7.840219-.040714,11.04351,1.594608,1.190989.608016,2.631956,3.630186,2.296597,4.878988-.335362,1.248814-2.907421,3.170691-4.259397,3.316045l-10.374902,1.115429-4.068273,41.946093c-.134615,1.387952-2.462972,3.567988-3.783035,3.937383-1.540033.43095-5.495374-2.467564-5.376295-4.222688Z"/>
  <path class="st0" d="M164.034333,75.3188l-14.543564-.150869c-1.412534,9.375996-1.128704,17.749166-.005261,26.964732.425552,3.490789-1.137473,7.13755-4.349363,7.782308-2.983458.598902-6.830203-1.949091-7.331311-5.929094-1.644771-13.063455-.842469-25.770819.940632-39.055809.208304-1.551971,2.969889-4.383023,4.470088-4.697104,1.72293-.360713,4.426378,2.018653,6.347702,2.981038,9.680414,4.848889,21.34299-2.515367,25.221071,1.633315.808912.865356.659625,3.907574-.024503,4.940668-2.059711,3.110348-6.698907,5.572587-10.72549,5.530817Z"/>
  <path class="st0" d="M368.590447,82.732235c-3.122842.184184-7.75794-2.021558-7.860719-4.451375-.218806-5.172863,4.703061-6.116286,8.44125-6.233915l22.128467-.696307c1.746609-.05496,4.736732,2.736358,5.313828,4.352592.577109,1.616268-1.622596,5.471933-3.462607,5.580456l-24.560219,1.448549Z"/>
</svg>