<svg width="116" height="126" viewBox="0 0 116 126" fill="none" xmlns="http://www.w3.org/2000/svg">
<g filter="url(#filter0_d_5_79678)">
<path d="M57.5098 92.51C76.8397 92.51 92.5098 76.84 92.5098 57.51C92.5098 38.18 76.8397 22.51 57.5098 22.51C38.1798 22.51 22.5098 38.18 22.5098 57.51C22.5098 76.84 38.1798 92.51 57.5098 92.51Z" fill="#000126"/>
<path d="M57.51 95.03C36.82 95.03 20 78.2 20 57.51C20 36.82 36.82 20 57.51 20C78.2 20 95.02 36.83 95.02 57.52C95.02 78.21 78.19 95.04 57.51 95.04V95.03ZM57.51 25.03C39.6 25.03 25.02 39.6 25.02 57.51C25.02 75.42 39.59 89.99 57.51 89.99C75.43 89.99 90 75.42 90 57.51C90 39.6 75.43 25.03 57.51 25.03Z" fill="#FFCDCC"/>
<path d="M64.4197 82.8101C65.2997 82.4601 66.1497 81.9801 66.8697 81.4201L67.7397 80.5701C68.5997 79.7201 69.0697 78.6001 69.0797 77.3901C69.0797 76.1901 68.6197 75.0501 67.7697 74.2001L63.6197 70.0501C62.7697 69.2001 61.6497 68.7401 60.4497 68.7401C59.2497 68.7401 58.1297 69.2101 57.2797 70.0501L57.0797 70.2501L55.4797 71.9501L54.8597 71.6001C52.9197 70.5201 50.8297 69.2101 48.6297 67.0101C46.3297 64.7101 45.0297 62.5301 43.9897 60.6701L43.6597 60.0701L45.4897 58.2401C47.2397 56.4901 47.2397 53.6501 45.4897 51.9001L41.4597 47.8701C40.6097 47.0201 39.4897 46.5601 38.2897 46.5601C37.0897 46.5601 35.9397 47.0401 35.0897 47.9001L34.2697 48.7301C33.6597 49.5001 33.1797 50.3401 32.8397 51.2201C32.5297 52.0401 32.3197 52.8501 32.2197 53.7001C32.1897 53.9401 31.9897 56.2301 33.1297 59.8101C34.6197 64.4801 37.6397 69.1101 42.0997 73.5701C49.8997 81.3701 55.6197 84.2001 61.9697 83.4301C62.7797 83.3401 63.5897 83.1401 64.4397 82.8101H64.4197Z" fill="white"/>
<path d="M66.0698 63.27C63.0298 63.27 60.0698 62.28 57.6498 60.46L53.5298 61.3C52.9798 61.41 52.3998 61.22 52.0198 60.8C51.6398 60.38 51.5198 59.78 51.6898 59.24L53.2098 54.52C52.6498 52.88 52.0598 50.8 52.0598 49.27C52.0598 41.55 58.3398 35.27 66.0598 35.27C73.7798 35.27 80.0598 41.55 80.0598 49.27C80.0598 56.99 73.7798 63.27 66.0598 63.27H66.0698ZM58.0698 57.14C58.4398 57.14 58.8098 57.27 59.0998 57.52C61.0498 59.17 63.5198 60.07 66.0698 60.07C72.0298 60.07 76.8798 55.22 76.8798 49.26C76.8798 43.3 72.0298 38.45 66.0698 38.45C60.1098 38.45 55.2598 43.3 55.2598 49.26C55.2598 50.2 55.6898 51.96 56.3998 53.95C56.5198 54.28 56.5198 54.64 56.4198 54.98L55.5698 57.61L57.7398 57.17C57.8498 57.15 57.9498 57.14 58.0598 57.14H58.0698Z" fill="white"/>
<path d="M65.09 54.83H67.62C68.1 54.83 68.48 54.44 68.48 53.97V51.4H71.05C71.53 51.4 71.91 51.01 71.91 50.54V48.01C71.91 47.53 71.52 47.15 71.05 47.15H68.48V44.58C68.48 44.1 68.09 43.72 67.62 43.72H65.09C64.61 43.72 64.23 44.11 64.23 44.58V47.15H61.66C61.18 47.15 60.79 47.54 60.79 48.01V50.54C60.79 51.02 61.18 51.4 61.66 51.4H64.23V53.97C64.23 54.45 64.62 54.83 65.09 54.83Z" fill="white"/>
</g>
<defs>
<filter id="filter0_d_5_79678" x="-10" y="-10" width="135.02" height="135.04" filterUnits="userSpaceOnUse" color-interpolation-filters="sRGB">
<feFlood flood-opacity="0" result="BackgroundImageFix"/>
<feColorMatrix in="SourceAlpha" type="matrix" values="0 0 0 0 0 0 0 0 0 0 0 0 0 0 0 0 0 0 127 0" result="hardAlpha"/>
<feOffset/>
<feGaussianBlur stdDeviation="15"/>
<feComposite in2="hardAlpha" operator="out"/>
<feColorMatrix type="matrix" values="0 0 0 0 0 0 0 0 0 0.0156863 0 0 0 0 0.627451 0 0 0 0.55 0"/>
<feBlend mode="normal" in2="BackgroundImageFix" result="effect1_dropShadow_5_79678"/>
<feBlend mode="normal" in="SourceGraphic" in2="effect1_dropShadow_5_79678" result="shape"/>
</filter>
</defs>
</svg>
