<?xml version="1.0" encoding="UTF-8"?>
<svg id="Ebene_1" xmlns="http://www.w3.org/2000/svg" version="1.1" viewBox="0 0 3840 2160">
  <!-- Generator: Adobe Illustrator 30.1.0, SVG Export Plug-In . SVG Version: 2.1.1 Build 136)  -->
  <defs>
    <style>
      .st0 {
      fill: #fce3e3;
      }

      .st1 {
      opacity: .7;
      }

      .st2 {
      opacity: .7;
      }

      .st3 {
      fill: #ff4612;
      pointer-events: none;
      }
    </style>
  </defs>
  <g class="st1">
    <polygon id="area-8" class="st0" points="558.005371 767.657227 548.192383 771.922852 514.348145 780.430664 489.116699 782.953125 458.208984 783.140625 438.918457 778.688477 433.191895 776.378906 408.998535 765.970703 400.01709 761.199219 390.682617 756.390625 375.77002 747.947266 329.169434 722.152344 243.795898 672.374023 252.837402 656.414062 235.188965 637.852539 229.343262 638.4375 211.553711 626.668945 188.374023 604.054688 149.96582 581.28418 166.37793 552.849609 142.918457 546.263672 128.118652 545.118164 103.587402 406.047852 102.460449 355.99707 103.166016 327.48291 129.373535 334.565918 143.024414 334.565918 147.49707 266.730469 158.366211 271.206055 301.80957 325.021484 316.861328 327.185059 493.893555 395.686523 520.500977 411.931641 592.315918 473.217773 764.474609 626.921875 839.772461 561.601562 859.537109 579.106445 885.839844 556.311523 924.84082 641.677734 910.129883 651.046875 687.915039 793.543945 598.967773 843.944336 558.005371 767.657227"/>
    <path class="st3" d="M148.856384,268.912323l8.938828,3.680695.043884.018127.044556.016785,143.246902,53.741089.304779.114227.322113.046326,14.720856,2.116119,176.748444,68.391541,26.390625,16.112091,71.69873,61.187958,171.17511,152.824768,1.969543,1.758301,1.994324-1.730103,73.307556-63.594177,17.796143,15.762207,1.967651,1.742798,1.986206-1.721436,23.795227-20.622559,37.626282,82.356873-13.617615,8.673096-222.141724,142.449158-87.611694,49.646729-39.583374-73.719421-1.306519-2.433228-2.532776,1.101196-8.433105,3.666565-33.617554,8.450928-25.052246,2.505188-30.662109.185242-19.005554-4.385803-5.584137-2.25177-24.138733-10.385193-8.959686-4.759521-9.264618-4.772705-14.938599-8.455627-46.556152-25.770447-84.096405-49.033386,7.763107-13.704346,1.095779-1.93457-1.531998-1.611328-16.37645-17.223572-1.011658-1.063965-1.460892.146118-4.584106.458374-17.225632-11.395386-22.9496-22.389893-.256668-.250427-.308441-.1828-36.978745-21.923096,14.705963-25.478943,1.93045-3.344421-3.717896-1.043579-21.458771-6.023438-.284561-.079895-.294769-.022888-13.492813-1.044128-24.309235-137.813904-1.122673-49.863983.656975-26.605499,24.171295,6.532745.384445.103882h15.253891l.184891-2.802673,4.24295-64.350922M146.137543,264.548462l-4.51767,68.517456h-12.046997l-27.85878-7.529327-.752998,30.493988,1.129448,50.164673,24.752884,140.329102,15.811783,1.223572,21.458771,6.023438-16.188217,28.046997,39.529327,23.435242,23.152893,22.588196,18.35289,12.141113,5.647003-.564697,16.376434,17.223572-9.223434,16.282349,86.682114,50.541016,46.588226,25.788208,14.964661,8.470581,9.317566,4.799988,9.035309,4.799988,24.282349,10.447021,5.835205,2.353027,19.576447,4.517578,31.152893-.188232,25.411652-2.541138,34.070557-8.564758,8.658813-3.764648,41.035217,76.423462,90.352783-51.200012,222.211304-142.493774,15.811707-10.070557-40.376343-88.376343-26.823486,23.247009-19.764648-17.505798-75.294006,65.317444-171.199646-152.84668-71.905762-61.364685-26.823456-16.376312-177.317352-68.611664-15.058655-2.164673-143.246902-53.741119-12.799881-5.270569h0v-.000031Z"/>
  </g>
  <g class="st1">
    <polygon id="area-2" class="st0" points="594.288574 470.958008 522.26709 409.495117 495.227539 392.985352 317.625488 324.26416 302.558594 322.098633 265.496582 308.193848 276.602051 280.027344 300.556152 244.470703 307.050781 236.893555 373.811035 208.013672 388.271484 200.022461 412.288086 181.987793 426.547852 195.392578 513.852539 107.799316 508.916016 96.598633 586.893555 1.5 828.932617 1.5 831.625 16.253906 848.272461 143.801758 853.305664 184.918945 865.444336 295.019043 872.883789 351.145508 875.379883 367.812988 878.617188 407.446289 880.683594 429.981445 880.683594 467.886719 886.047852 496.686523 886.047852 503.901367 898.083008 506.254883 906.195312 508.136719 910.416016 531.754883 885.407227 552.71582 859.558594 575.118164 839.793945 557.611328 764.503906 622.925781 594.288574 470.958008"/>
    <path class="st3" d="M827.681152,3l2.455017,13.449646,16.645752,127.522339,5.031067,41.093628,12.141113,110.117493.003662.032715.004272.032654,7.435364,56.093994.003357.025085.003723.025085,2.485168,16.593811,3.235352,39.612,2.058105,22.451324v37.97522l.05072.272369,5.314026,28.527679v8.310425l2.423889.474274,10.771973,2.107635,7.149719,1.657349,3.893433,21.788605-24.38031,20.434998-24.83728,21.525574-17.796997-15.762939-1.968567-1.743652-1.98645,1.723267-73.299561,63.58728-169.230164-151.088379-.024963-.022247-.025574-.02182-71.905701-61.364655-.181091-.154449-.203125-.124084-26.823425-16.376373-.229736-.140167-.250916-.097107-177.317352-68.611633-.318176-.123077-.337555-.048553-14.736542-2.118408-35.481903-13.311554,10.485992-26.595551,23.814209-35.349182,6.212433-7.247925,66.375793-28.713135.133118-.057617.126892-.070068,14.305817-7.905945.183105-.101135.167267-.125671,22.923462-17.214172,12.279175,11.54248,2.122803,1.995422,2.056732-2.063538,85.552765-85.835083,1.44696-1.451843-.826538-1.875732-4.150848-9.419312L587.603394,3h240.077759M830.183167,0h-243.999451l-79.011627,96.360535,4.894073,11.105896-85.552704,85.835144-14.117645-13.27063-24.941162,18.729309-14.305817,7.905945-67.011658,28.988159-6.776428,7.905945-24.094116,35.764618-11.670532,29.599915-.044098.141815,38.632294,14.493439,15.058716,2.164734,177.317352,68.611633,26.823486,16.376373,71.905701,61.364624,171.199646,152.846741,75.294006-65.317444,19.764648,17.505737,26.823547-23.247009,25.674316-21.519165-4.54718-25.447266-9.127258-2.115753-10.823425-2.117706v-6.117554l-5.364746-28.799988v-37.835205l-2.070618-22.588165-3.241089-39.683563-2.5-16.69281-7.435364-56.093994-12.141113-110.117462-5.035278-41.129333-16.658813-127.62323L830.183167.000031h0v-.000031Z"/>
  </g>
  <g class="st1">
    <polygon id="area-7" class="st0" points="1.499023 1031.988281 1.499023 588.212891 57.18457 588.212891 80.552734 550.521484 126.825684 548.027344 142.392578 549.232422 161.849609 554.693359 145.885742 582.352539 186.536133 606.453125 209.662109 629.014648 228.578613 641.529297 234.026855 640.983398 249.131348 656.869141 239.725586 673.473633 327.6875 724.760742 374.304688 750.56543 389.257324 759.029297 398.626465 763.857422 407.699219 768.677734 432.038086 779.148438 438.01416 781.55957 457.876465 786.142578 489.274902 785.952148 514.866211 783.393555 549.163086 774.772461 556.668457 771.508789 596.079102 844.90625 541.625 855.017578 541.625 878.222656 249.231934 997.787109 78.788574 1031.988281 1.499023 1031.988281"/>
    <path class="st3" d="M126.808189,549.53064l15.321098,1.185547,17.456055,4.899963-14.257843,24.702576-1.482254,2.568115,2.550583,1.512146,39.220917,23.252502,22.896255,22.337646.203171.198181.236664.156616,18.352921,12.141174.890823.589355,1.062836-.106323,4.186096-.418579,13.832779,14.548218-8.127701,14.347778-1.460419,2.577942,2.559586,1.492432,86.682251,50.541016.0289.016846.029266.016235,46.563171,25.774231,14.964661,8.470581.051422.029114.052582.0271,9.283997,4.78241,9.035248,4.799988.108734.057739.11319.048645,24.282318,10.447021.031677.013672.031982.012939,5.835266,2.352905.21817.087891.229156.052917,19.576416,4.517578.341827.078918.35083-.002197,31.152832-.188171.140594-.000854.139832-.013977,25.411743-2.541138.219238-.021912.213684-.05365,34.070496-8.564697.238831-.060059.225952-.098267,6.126038-2.663513,37.785645,70.371399-51.208435,9.50885-2.452332.455322v23.444519l-291.329163,119.12915-170.156082,34.143799H2.99875v-440.775513h55.020583l.879917-1.419189,22.516125-36.316406,45.392815-2.44635M126.843414,546.524353l-47.152832,2.541138-23.341084,37.647034H-.00125v446.775513h78.938834l170.729164-34.258789,293.458191-119.999756v-22.964661l55.246948-10.258728-41.035217-76.423401-8.658813,3.764771-34.070496,8.564636-25.411774,2.541138-31.152832.188171-19.576416-4.517578-5.835266-2.352905-24.282318-10.447021-9.035248-4.799988-9.317688-4.799988-14.964661-8.470581-46.588074-25.788269-86.682251-50.541016,9.223587-16.282349-16.376511-17.223511-5.646988.564697-18.352921-12.141174-23.152924-22.588074-39.529327-23.435303,16.188171-28.046997-21.458755-6.023499-15.811752-1.223511h0Z"/>
  </g>
  <g class="st1">
    <polygon id="area-1" class="st0" points="1.5 585.212891 1.5 1.5 583.013672 1.5 505.427734 96.12207 510.280273 107.133301 426.479492 191.210938 412.504395 178.07373 386.637695 197.498047 372.486816 205.317871 305.223633 234.415039 298.165527 242.649902 273.931152 278.62207 262.6875 307.140137 159.464355 268.414551 144.77832 262.366211 140.21582 331.565918 129.771973 331.565918 100.261719 323.590332 99.461426 355.993652 100.59375 406.34375 125.071777 545.118164 78.828125 547.609375 55.514648 585.212891 1.5 585.212891"/>
    <path class="st3" d="M579.844299,3l-74.992096,91.458374-1.168671,1.425232.743256,1.686646,4.067535,9.230164-82.04895,82.319702-11.994843-11.275085-1.838501-1.72821-2.01767,1.515198-24.773529,18.603577-13.996552,7.734863-66.878174,28.930481-.635834.275085-.450836.526001-6.776489,7.905884-.113159.132019-.097168.144165-24.094025,35.764679-.182831.271332-.119995.304413-10.642761,26.993073-101.797806-38.190918-12.755432-5.252258-3.860992-1.589813-.27475,4.166504-4.33287,65.714905h-8.840118l-27.474266-7.425507-3.687584-.996643-.094246,3.818665-.752922,30.493988-.001747.070831.001587.07074,1.129494,50.164581.005173.228516.039665.225159,24.164635,136.994537-43.771637,2.358948-1.563332.084229-.824997,1.330566-22.461205,36.227844H3.000025V3h576.844274M586.183716,0H.000025v586.712524h56.349504l23.341084-37.646973,47.15284-2.541138-24.752838-140.329163-1.129501-50.164581.752922-30.494019,27.858749,7.529419h12.047089l4.51767-68.517578,12.800003,5.270569,104.614517,39.247681.044067-.141846,11.670593-29.599915,24.093994-35.764679,6.776489-7.905884,67.011597-28.988159,14.305908-7.905823,24.941101-18.729431,14.117645,13.270569,85.552704-85.835083-4.894135-11.105896L586.183716,0h0Z"/>
  </g>
  <g class="st1">
    <polygon id="area-3" class="st0" points="888.209961 554.28125 913.675781 532.938477 908.800781 505.662109 898.709961 503.322266 889.047852 501.430664 889.047852 496.40918 883.683594 467.609375 883.683594 429.844727 881.606445 407.1875 878.362305 367.46875 875.854492 350.726074 868.422852 294.657227 856.286133 184.572266 851.249023 143.425293 834.587891 15.790039 831.981445 1.5 1217.574219 1.5 1223.131836 89.302246 1224.381836 99.542969 1227.793945 111.312012 1325.161133 243.147461 1275.076172 287.58252 1260.072266 273.666504 1204.910156 328.828613 1180.263672 310.422363 1103.078125 400.178711 927.052734 639.298828 888.209961 554.28125"/>
    <path class="st3" d="M1216.16626,3l5.469116,86.397156.005615.087585.01062.086975,1.226807,10.03363.029297.239502.067139.231689,3.303589,11.395386.149292.515381.318848.43158,96.393433,130.516296-48.041382,42.621887-12.946655-12.008148-2.118408-1.964813-2.042969,2.042999-53.223022,53.222687-22.484131-16.791351-2.243774-1.67572-1.825928,2.123291-76.235229,88.650726-.073975.086182-.067383.091339-174.480896,237.020355-37.306763-81.657593,23.923279-20.051514,1.331787-1.116272-.305725-1.710632-4.54718-25.447266-.347961-1.947906-1.927734-.446899-9.127197-2.115753-.050537-.011627-.050842-.01001-8.399597-1.643463v-3.924622l-.05072-.272369-5.313965-28.527649v-37.695343l-.012512-.136627-2.068115-22.558563-3.24115-39.683533-.008179-.100464-.014954-.099731-2.496155-16.667297-7.427795-56.037811-12.141541-110.119354-5.038269-41.153076-16.658875-127.623169-.009766-.075562-.013672-.07489-2.27179-12.445557h382.385925M1218.982422,0h-388.799316l2.917786,15.984253,16.658813,127.62323,5.035217,41.129333,12.141113,110.117462,7.435303,56.093994,2.5,16.69281,3.24115,39.683563,2.070618,22.588165v37.835205l5.364685,28.799988v6.117554l10.823547,2.117706,9.127136,2.115723,4.54718,25.447266-25.674316,21.519226,40.376343,88.376343,177.505493-241.128998,76.235229-88.650726,24.564575,18.345001,55.058838-55.058655,14.942017,13.858826,52.128784-46.248199-98.022827-132.722412-3.303589-11.395386-1.226807-10.03363-5.646973-89.207642h0Z"/>
  </g>
  <g class="st1">
    <polygon id="area-4" class="st0" points="1230.526367 109.961426 1227.331055 98.939453 1226.118164 89.025391 1220.580078 1.5 1548.100586 1.5 1543.050781 33.243652 1313.599609 215.78418 1310.152344 217.775879 1230.526367 109.961426"/>
    <path class="st3" d="M1546.343384,3l-4.682495,29.432617-228.908569,182.108521-2.189453,1.265137-78.671143-106.520386-3.087036-10.648254-1.186768-9.706726-5.439575-85.930908h324.165039M1549.858398,0h-330.875977l5.646973,89.207642,1.226807,10.03363,3.303589,11.395386,80.582642,109.108459,4.703491-2.717773,229.994629-182.972534,5.417847-34.05481h0Z"/>
  </g>
  <g class="st1">
    <polygon id="area-5" class="st0" points="1573.577148 116.145508 1522.1875 53.674805 1545.830078 34.865723 1551.138672 1.5 2080.633789 1.5 2080.633789 11.065918 2045.342773 17.615234 1578.921875 123.016602 1573.577148 116.145508"/>
    <path class="st3" d="M2079.133545,3v6.819153l-34.064941,6.32135-.057129.01062-.056763.012756-465.43396,105.179626-4.759155-6.118896-.025269-.03241-.026001-.031616-50.395142-61.261475,21.993042-17.496582.911865-.725464.183228-1.150879,5.015503-31.526184h526.714722M2082.133545,0h-532.275146l-5.417847,34.05481-24.379517,19.395142,52.33252,63.616455,5.929321,7.623474,467.293091-105.599731,36.517578-6.776489V0h0Z"/>
  </g>
  <g class="st1">
    <path id="area-9" class="st0" d="M1.5,1034.988281h77.586426l171.015625-34.316406,294.522949-120.435547v-22.724609l54.268066-10.077148,85.911621-48.682617,9.292969,18.834961,22.078125,189.857422,34.320312,22.136719,9.608398,172.852539-83.737793,2.624023-108.609863,4.032227-117.616699,4.958984-72.036621,2.273438c-.114746,0-.22998-.00293-.34375-.012695l-18.503906-1.595703-32.966309,2.572266-27.850586,1.363281-.178223.003906-20.258301-.02832-19.20166.567383-17.628418,2.991211-19.654297,4.620117c-.111328.026367-.220703.046875-.330566.061523l-20.827637,2.822266-19.742188,2.161133-16.393555,2.714844-21.339355,2.663086L1.5,1254.75293v-219.764648Z"/>
    <path class="st3" d="M684.162109,800.839844l8.475647,17.178528,21.966248,188.895447.163574,1.406921,1.190247.7677,33.082397,21.338562,9.481567,170.55542-82.219482,2.576172-108.616211,4.032959-117.577698,4.957886-71.946198,2.272217-.057312.000244c-.072479,0-.145081-.000122-.214691-.006104l-18.382782-1.585938-.245728-.02124-.245697.019165-32.716431,2.554565-.048157.00293-.035309.002319-27.843903,1.363037c-.036987.001709-.074493.002441-.1073.002441l-20.260193-.02832-.046509-.000122-.046387.001343-19.0513.563477-.208008.006226-.205109.03479-17.525879,2.973633-.093201.015747-.091904.021606-19.568405,4.603027c-.059799.01416-.1203.025391-.182602.033936l-20.819321,2.821167-.058777.007324-19.652802,2.150391-.082703.009033-.081985.013672-16.1539,2.679932-.089905.01355-21.344803,2.663818-139.701202,17.317383v-216.567139h76.235603l.292198-.058594,170.729095-34.258667.280502-.056335.264801-.108337,293.458176-119.999695,1.864502-.76239v-22.484863l52.794739-9.803406.49408-.091797.437195-.247681,84.311218-47.776367M685.446899,796.663574l-87.075012,49.342529-55.247009,10.258789v22.964722l-293.458191,119.999695-170.729095,34.258728H.000003v222.961914l143.070294-17.735107,21.347198-2.664185c.06691-.008789.133301-.018555.199203-.029297l16.164108-2.681641,19.652802-2.150391c.042496-.004883.084991-.010742.127396-.015625l20.827194-2.822266c.15921-.021484.31691-.050781.473099-.087891l19.562012-4.601685,17.525879-2.973633,19.0513-.563477,20.260223.02832c.083496,0,.167999-.001831.251495-.005737l27.850586-1.363281c.048309-.00293.096222-.005859.144501-.008789l32.742218-2.556641,18.382782,1.585938c.156769.013428.314819.017212.472595.017212.0383,0,.076569-.000244.114807-.00061l71.983398-2.273438,117.609406-4.958984,108.601074-4.032349,85.274231-2.671875-9.737-175.150269-34.366882-22.167114-22.026245-189.411133-10.110779-20.492615h0v.000183Z"/>
  </g>
  <g class="st1">
    <path id="area-10" class="st0" d="M753.40625,1027.887695l-34.414062-22.197266-21.974609-188.964844-9.598633-19.455078,2.044922-1.15918,222.28125-142.536133,16.044922-10.217773,120.064453-163.099609,29.911133,44.875977,29.666992,33.689453,102.337891,201.419922,17.241211-7.327148,61.461914,115.291992,54.024414,6.31543,15.716797,2.547852,22.956055,18.207031-75.450195,77.400391-45.862305,67.941406-29.868164,56.326172,2.083008,76.37793-29.204102,5.984375-16.100586,6.807617c-.272461.115234-.5625.196289-.862305.241211l-24.075195,3.507812c-.066406.008789-.147461.018555-.228516.025391l-24.097656,1.920898-.155273.008789-44.501953,1.427734-131.334961,4.550781-63.792969,1.399414-94.549805,2.037109-27.535156.757812-5.517578.323242c-.070312.003906-.138672.005859-.206055.005859h-6.233398l-.574219.017578-9.697266-174.452148Z"/>
    <path class="st3" d="M1047.793213,482.870361l28.668213,43.011658.111694.167603.133179.151123,29.474854,33.471619,101.618164,200.00061,1.269287,2.497986,2.578613-1.095886,14.686768-6.241333,60.446045,113.387268.738892,1.385986,1.560059.182434,53.177856,6.216003,15.33252,2.484131,21.348389,16.931458-74.197754,76.114258-.187866.192688-.150513.223022-45.741089,67.764587-.089233.13208-.074707.140747-29.646973,55.905762-.369995.697876.021484.789551,2.038086,74.725586-27.825073,5.702026-.291748.059814-.274292.115967-15.964355,6.750244c-.155518.065796-.322876.112183-.490356.137085l-24.053345,3.505127c-.052856.007324-.105713.013916-.154785.017822l-24.084229,1.919678-.109497.005859-44.499878,1.428101-131.292969,4.549561-63.810303,1.400391-94.568665,2.037476-27.526428.756958-.046692.001343-.046692.002808-5.471008.321289c-.03949.002319-.078613.00354-.117676.00354h-5.389038l-9.575989-172.254395-.0849-1.526123-1.284424-.828491-33.176697-21.399414-21.862549-188.00415-.059937-.515503-.229614-.465393-8.857239-17.951965.812988-.460693.071289-.040405.06897-.044189,222.203491-142.488708,15.811707-10.070618.472412-.300903.332031-.450989,118.629517-161.149933M1047.915161,477.644196l-121.16748,164.597626-15.811707,10.070618-222.211304,142.493713-3.277771,1.857483,10.110779,20.492615,22.026184,189.411133,34.366882,22.167114,9.737,175.150269,1.990051-.062378h6.233398c.097595,0,.195251-.003052.293884-.008789l5.470703-.321289,27.526367-.756958,94.550842-2.037109,63.811462-1.400391,131.331055-4.550659,44.492188-1.427734c.079102-.001831.157227-.006836.236328-.012695l24.099609-1.920898c.108398-.008789.21582-.021362.323242-.036133l24.079102-3.508789c.421875-.0625.833984-.176758,1.226562-.342773l15.963867-6.75,30.290283-6.207153-2.106689-77.241089,29.646973-55.905884,45.741211-67.764587,76.517456-78.493896-24.564697-19.4823-16.169189-2.61969-53.244507-6.223816-61.738281-115.811401-17.214966,7.315796-101.790283-200.339172-29.725952-33.756714-31.042603-46.573914h0v-.000153Z"/>
  </g>
  <g class="st1">
    <polygon id="area-11" class="st0" points="1359.466797 874.235352 1342.912109 871.552734 1290.381836 865.411133 1228.367188 749.080078 1211.176758 756.385742 1109.93457 557.125977 1080.150391 523.301758 1049.746094 477.6875 1105.427734 402.047852 1180.712891 314.501465 1205.195312 332.785645 1260.150391 277.830566 1275.03125 291.632324 1326.974609 245.549316 1662.586914 681.859375 1567.175781 766.389648 1535.956055 784.952148 1471.488281 825.668945 1383.420898 893.233398 1359.466797 874.235352"/>
    <path class="st3" d="M1326.766602,247.73877l333.77771,433.925293-94.257324,83.508606-31.09729,18.490234-.034668.02063-.03418.021545-64.376099,40.65863-.115723.072998-.108398.083252-87.084351,66.81073-22.731079-18.028076-.612549-.485901-.771851-.125-16.169189-2.619751-.065552-.01062-.06604-.007751-51.684326-6.041443-60.99939-114.425293-1.292358-2.424194-2.52832,1.074463-14.636353,6.219971-100.520996-197.841125-.171997-.338623-.251099-.285095-29.593018-33.605774-29.764771-44.656769,55.024414-74.746887,74.335327-86.441437,22.320801,16.669373,2.080322,1.553741,1.83606-1.835999,53.015747-53.015686,12.823608,11.894043,1.995361,1.850647,2.035767-1.806091,49.721802-44.112671M1327.182617,243.359192l-52.128784,46.248138-14.942017-13.858887-55.058838,55.058716-24.564575-18.345093-76.235229,88.650818-56.338013,76.531281,31.042603,46.573975,29.725952,33.756714,101.790283,200.339111,17.214966-7.315796,61.738281,115.81134,53.244507,6.223816,16.169189,2.61969,24.564697,19.4823,88.94104-68.235168,64.376221-40.65863,31.341187-18.635254,96.564575-85.552795-337.446045-438.694244h0v-.000031Z"/>
  </g>
  <g class="st1">
    <polygon id="area-12" class="st0" points="1328.371094 242.444824 1311.946289 220.204102 1315.292969 218.270508 1519.835938 55.54541 1577.225586 125.716797 1927.231445 453.584961 1664.850586 679.881836 1328.371094 242.444824"/>
    <path class="st3" d="M1519.612549,57.64032l56.388062,68.948792.125977.154114.145386.136047,348.716553,326.659058-259.916504,224.171082-335.494873-436.157776-15.427246-20.888428,1.796997-1.038269.192627-.111328.174194-.13855,203.298828-161.734741M1520.061035,53.449951l-205.615112,163.577454-4.703491,2.717712,17.440186,23.614014,337.446045,438.694336,264.846436-228.423004-351.152222-328.940582-58.261841-71.239929h0Z"/>
  </g>
  <g class="st1">
    <polygon id="area-13" class="st0" points="1581.413086 125.529297 2045.947266 20.552734 2081.680664 13.922852 2255.191406 169.812988 1929.514648 451.613281 1581.413086 125.529297"/>
    <path class="st3" d="M2081.227783,15.532959l171.695801,154.258972-323.368896,279.802429-345.051392-323.225586,461.716553-104.3396,35.007935-6.496216M2082.133545,12.31366l-36.517578,6.776367-467.293091,105.599854,351.152222,328.940521,327.984375-283.796173-175.325928-157.520569h0Z"/>
  </g>
  <g class="st1">
    <polygon id="area-6" class="st0" points="2258.529297 168.782715 2083.633789 11.644531 2083.633789 1.5 2556.639648 1.5 2545.990234 12.027344 2488.626953 68.055664 2455.369141 107.099121 2414.422852 159.88916 2388.109375 196.261719 2388.016602 196.383789 2363.93457 226.664062 2341.822266 253.578125 2258.529297 168.782715"/>
    <path class="st3" d="M2552.989258,3l-8.040527,7.94812-57.320312,55.986328-.098389.096069-.089111.104675-33.213867,38.991211-.044678.052368-.042236.054382-40.902344,52.736816-.030762.039612-.029297.040588-26.295166,36.347717-.043945.057495-24.04834,30.237854-21.067139,25.643005-82.123535-83.604248-.06543-.066833-.069824-.0625-174.330811-156.626648V3h467.855713M2560.291504,0h-478.157959v12.31366l175.325928,157.520569,84.462646,85.985657,23.186279-28.222229,24.078125-30.274902c.047852-.05957.09375-.120117.137695-.181641l26.28418-36.33252,40.902344-52.736816,33.213867-38.991211,57.320312-55.986328L2560.291504.000061v-.000061h0Z"/>
  </g>
  <g class="st1">
    <path id="area-15" class="st0" d="M1666.695312,682.251953l263.758789-227.485352,326.921875-282.876953,82.53125,84.02002-9.243164,11.250977-21.692383,52.502441c-.06543.159668-.141602.311523-.228516.456543l-12.113281,20.272949c-.041016.068359-.082031.131836-.124023.193848l-90.008789,130.48584-21.166992,29.634766c-.053711.076172-.111328.150391-.171875.22168l-18.416992,21.808594-45.385742,65.663086-34.691406,48.591797-18.977539,26.478516-11.700195,15.228516-34.768555,41.173828-21.014648,22.992188c-.057617.063477-.114258.121094-.172852.176758l-71.748047,68.420898-77.691406,70.779297-14.713867,14.517578-169.181641-214.507812Z"/>
    <path class="st3" d="M2257.292725,173.945618l80.599854,82.053162-8.24585,10.036774-.283691.34549-.170898.413391-21.608887,52.302307c-.034912.084808-.077637.169617-.12915.255615l-12.115967,20.276794c-.021484.036591-.044434.072205-.066406.104004l-89.981689,130.447083-21.178955,29.65332c-.030762.042694-.062744.0849-.100342.129303l-18.369141,21.751007-.093506.110718-.082275.119202-45.317627,65.566101-34.701904,48.606934-18.90918,26.385803-.032959.043396-.007568.010498-11.613037,15.121582-.046875.057495-34.67688,41.06958-.050903.057678-21.020508,22.998596c-.031982.035278-.065796.068481-.087402.089478l-71.786987,68.458313-77.633667,70.723572-.044312.040283-.042603.042114-13.477173,13.2995-167.254028-212.064697,262.675903-226.550964,325.854614-281.95343M2257.459473,169.834229l-327.984375,283.796204-264.846436,228.423035,171.108398,216.951599,15.863525-15.65448,77.633789-70.723633c.02832-.025391.055664-.051819.083008-.078125l71.753906-68.426819c.082031-.079102.162109-.160095.239258-.245117l21.012695-22.990173c.043945-.047913.087891-.097717.129883-.147522l34.675781-41.068298c.049805-.058594.098633-.119202.144531-.179688l11.602539-15.107483c.03418-.043884.067383-.08783.099609-.133728l18.90918-26.385803,34.705078-48.611267,45.34375-65.603516,18.369141-21.751007c.086914-.102478.169922-.209991.248047-.319305l21.180664-29.655273,90.009766-130.487305c.061523-.089417.120117-.180695.175781-.274414l12.112305-20.270996c.125977-.209991.236328-.429199.329102-.655304l21.606445-52.295898,33.143555-40.342285-23.186279,28.222168-84.462646-85.985596h0v.000031Z"/>
  </g>
  <g class="st1">
    <path id="area-14" class="st0" d="M1233.009766,1097.65332l29.424805-55.487305,45.62207-67.585938,76.347656-78.320312,88.800781-68.12793,64.318359-40.62207,31.429688-18.686523,95.481445-84.59375,169.293945,214.650391-10.822266,10.679688c-.052734.051758-.100586.095703-.148438.137695l-45.415039,39.896484-28.891602,27.0625-48.044922,43.939453c-.050781.045898-.110352.097656-.171875.147461l-44.092773,35.46582c-.079102.063477-.163086.126953-.25.18457-.005859.00293-15.254883,10.142578-15.976562,10.617188-.429688.28125-4.089844,2.591797-10.876953,6.867188l-.754883.472656-19.641602,11.462891c-.082031.047852-.166992.092773-.253906.134766l-45.426758,21.706055-92.808594,39.46875c-.111328.045898-.229492.089844-.349609.125977l-41.859375,12.779297c-.092773.02832-.186523.052734-.28125.073242l-34.554688,7.506836c-.172852.038086-.347656.0625-.523438.073242l-72.757812,4.557617c-.071289.004883-.142578.007812-.213867.007812l-25.966797-.541992c-.114258-.001953-.232422-.010742-.350586-.024414l-24.513672-2.998047-21.575195,1.540039-12.148438,2.490234-2.047852-75.05957Z"/>
    <path class="st3" d="M1664.240356,686.405518l167.478882,212.34967-9.880615,9.750427c-.022705.022766-.046997.044067-.070557.064758l-45.415039,39.896484-.035889.031616-.035034.032715-28.8302,27.00592-48.042236,43.937317c-.039185.035278-.078491.069763-.112305.097046l-44.090942,35.465149c-.045532.036377-.091431.071777-.150757.11084-.152588.101318-15.256836,10.14502-15.960938,10.607422-.42334.277222-4.075317,2.582886-10.85498,6.853027l-.636475.401001-.068604.041626-19.645874,11.465698c-.047729.02771-.096069.053833-.150146.07959l-45.307861,21.651733-.062866.028809-92.793579,39.462036c-.068848.029053-.139282.054932-.208008.07605l-41.862671,12.779907c-.052856.016113-.106934.029541-.157227.040527l-34.560791,7.508423c-.097168.02124-.196167.035034-.296387.04126l-72.758545,4.557861c-.032471.001953-.065308.003662-.125488.003662-.012085,0-.025269-.000122-.039673-.000244l-25.881348-.539795c-.069092-.001709-.137817-.006226-.207886-.014893l-24.369019-2.979492-.288086-.035278-.289551.02063-21.332153,1.522461-.196045.014038-.192627.039551-10.300781,2.11084-1.987549-72.876465,29.202148-55.067017,45.501709-67.40979,76.178345-78.146118,88.661499-68.02063,64.228027-40.565125,31.305176-18.61377.243774-.14502.212402-.18811,94.186768-83.446228M1664.628662,682.053467l-96.564575,85.552856-31.341187,18.635254-64.376221,40.658691-88.94104,68.235168-76.517456,78.494019-45.741211,67.764587-29.646973,55.905762,2.106689,77.241089,13.804443-2.828857,21.332031-1.522461,24.369141,2.979492c.166992.020508.333984.032227.501953.036133l25.888672.540039c.036499.001099.07312.001587.109863.001587.102661,0,.205688-.003784.307129-.010254l72.756836-4.557617c.251953-.015625.50293-.050781.749023-.104492l34.557617-7.507812c.133789-.029297.267578-.063477.398438-.103516l41.860352-12.779297c.168945-.051758.334961-.112305.49707-.180664l92.802734-39.46582c.067383-.02832.132812-.058594.199219-.09082l45.291016-21.643555c.125-.059448.246094-.124023.365234-.193359l19.649414-11.467773c.047852-.02832.09668-.057617.143555-.086914,1.103516-.695312,10.806641-6.804688,11.547852-7.290039.722656-.474609,15.978516-10.619141,15.978516-10.619141.125977-.083008.24707-.172974.365234-.267578l44.095703-35.46875c.082031-.066406.162109-.135742.241211-.207092l48.057617-43.951172,28.856445-27.030212,45.415039-39.896484c.072266-.063477.143555-.128906.211914-.197266l11.7771-11.621948-171.108398-216.951599h0v-.000183Z"/>
  </g>
  <g class="st1">
    <polygon id="area-24" class="st0" points="3519.510742 194.899414 3433.223633 129.616699 3395.644531 111.396484 3372.21875 106.825195 3316.381836 102.313477 3246.532227 81.834961 3152.536133 1.501953 3838.5 1.501953 3838.5 70.518066 3681.030273 212.800293 3569.660156 321.106934 3519.510742 194.899414"/>
    <path class="st3" d="M3837,3.001709v66.850403l-156.975098,141.835266-.040771.036804-.039551.038391-109.720215,106.702911-49.164307-123.73056-.30957-.778931-.668457-.505737-85.835205-64.941101-.235596-.178162-.265625-.128784-37.270508-18.070557-.351318-.170288-.383057-.074707-23.152832-4.517639-.165039-.032288-.167725-.01355-55.599121-4.492859-69.393555-20.344299-90.662354-77.484314h680.399902M3840,.001709h-691.527588l97.329346,83.182373,70.305908,20.611755,55.905762,4.517639,23.152832,4.517639,37.270508,18.070496,85.835205,64.941101,50.823242,127.905548,112.940918-109.834991,157.963867-142.728638V.001709h0Z"/>
  </g>
  <g class="st1">
    <polygon id="area-23" class="st0" points="3081.241211 446.967773 2974.419922 310.248047 2891.126953 242.588867 2888.0625 237.562988 2890.861328 236.440918 2954.515625 166.810059 3022.120117 93.304199 3040.818359 73.240234 3103.666016 1.5 3147.918945 1.501953 3245.071289 84.533203 3315.833008 105.278809 3371.808594 109.801758 3394.6875 114.266113 3431.649414 132.1875 3517.032227 196.786133 3567.307617 323.309082 3245.551758 600.592773 3081.241211 446.967773"/>
    <path class="st3" d="M3104.345703,3.000061l43.019287.001587,96.487793,82.462952.488281.417542.616699.180725,70.305908,20.611755.29541.086609.306885.024841,55.738281,4.504089,22.604248,4.410583,36.653564,17.771484,84.931396,64.257263,49.724854,125.141022-319.925781,275.707123-163.241943-152.626068-106.644043-136.493439-.208984-.267548-.263428-.213989-82.960693-67.389404-2.00708-3.291443.835449-.334961.635498-.254944.462158-.505432,63.416748-69.371704,67.593994-73.494812,18.705078-20.07074.031494-.033813.030518-.034729,62.368408-71.19458M3102.984131,0l-.004639.001709h.004639l-63.263428,72.216125-18.705078,20.070679-67.607422,73.509399-63.422852,69.378357-4.126221,1.654358,4.121826,6.759521,83.361572,67.715027,106.78833,136.67807,165.380127,154.625092,323.584229-278.860077-50.823242-127.905548-85.835205-64.940979-37.270508-18.070679-23.152832-4.517639-55.905762-4.517639-70.305908-20.611694L3148.472412.001709l-45.488281-.001709h0Z"/>
  </g>
  <g class="st1">
    <path id="area-22" class="st0" d="M2993.625,768.696289l-3.103516-2.068359-3.904297-24.541016-49.361328-70.354492-15.847656-19.244141-25.533203-27.239258-143.478516-122.532227-15.824219-15.633789-43.551758-42.588867,61.216797-62.55127,44.341797-46.344727,62.077148-65.855469,8.96875-20.211426c.087891-.212402.175781-.382812.276367-.545898l1.016602-1.644531c.097656-.158691.208984-.310059.331055-.451172l1.381836-1.59668c.081055-.094238.167969-.183594.258789-.268555l1.87207-1.74707c.268555-.250488.572266-.456055.902344-.61084l1.876953-.878906c.058594-.027832.116211-.052734.174805-.075684l7.523438-3.016602,3.594727,5.896484,83.431641,67.770508,106.754883,136.636719,165.423828,154.666016,9.802734,10.689453-11.640625,9.303711-35.493164,30.421875.374023,22.763672-9.511719,5.21582-2.365234-4.731445-4.709961-6.671875-9.038086-7.101562-73.3125,61.856445-18.813477,22.202148-72.001953,58.708008-24.109375-37.625Z"/>
    <path class="st3" d="M2884.619385,240.559875l2.800293,4.592163.268799.441101.400879.325623,83.098145,67.501007,106.579346,136.410431.144287.184448.170898.159943,165.296143,154.546478,8.677734,9.464111-10.385986,8.301331-.040283.032166-.039062.033569-34.91748,29.929382-1.070312.91748.023193,1.409485.34668,21.155151-7.351562,4.031555-1.618164-3.23645-.101562-.203003-.130859-.185364-4.517578-6.399902-.252686-.358154-.344727-.270874-7.906006-6.211792-1.920898-1.509216-1.867188,1.575378-72.282227,60.988159-.191895.161865-.162109.191467-18.644531,22.00061-70.590576,57.558472-23.032471-35.944092-.338867-.529053-.522949-.348511-2.295654-1.530579-3.746582-23.550415-.108887-.684448-.398193-.567322-49.129395-70.023376-.066406-.094666-.07373-.089417-15.811768-19.200012-.061279-.074402-.065918-.070312-25.411621-27.105774-.11377-.121399-.126465-.108093-143.374512-122.443115-15.796631-15.606049-42.473633-41.534668,60.191162-61.503326,44.345459-46.348694,61.893555-65.661133.351562-.372711.20752-.468231,8.865479-19.97702.015869-.035645.014893-.036072c.04126-.099854.092529-.200134.147949-.290405l1.017334-1.645935c.057129-.092163.121826-.180237.190918-.260132l1.380859-1.596252c.046631-.053711.096191-.10498.14917-.154236l1.872314-1.747437c.15332-.143005.326416-.260254.515625-.348877l1.881592-.881531c.026855-.012634.054443-.024658.098877-.042236l6.337891-2.541077M2885.859131,236.830627l-8.694092,3.485779c-.087891.034607-.175781.072815-.260742.112793l-1.875977.878906c-.473633.22168-.908203.516113-1.290039.872559l-1.87207,1.74707c-.129883.121094-.253906.249512-.370117.383789l-1.381836,1.597107c-.173828.201233-.332031.416565-.472656.643616l-1.018555,1.647949c-.141602.230469-.265625.472168-.369141.722717l-8.865234,19.97699-61.893555,65.661133-44.330078,46.33255-62.266846,63.62384,44.619385,43.632996,15.863281,15.671844,143.457031,122.513672,25.411621,27.105774,15.811768,19.200012,49.129395,70.023376,3.952881,24.846985,3.388184,2.25885,24.847168,38.776306,73.411621-59.858643,18.823242-22.21167,72.282227-60.988159,7.906006,6.211792,4.517578,6.399902,3.011719,6.023621,11.670654-6.400085-.376465-22.9646,34.91748-29.929382,12.894043-10.305847-10.926025-11.915833-165.380127-154.625183-106.78833-136.677979-83.361572-67.714996-4.121826-6.759583h0v.000031Z"/>
  </g>
  <g class="st1">
    <polygon id="area-36" class="st0" points="3634.982422 261.765625 3683.082031 214.988281 3838.498047 74.562988 3838.498047 793.858398 3634.982422 261.765625"/>
    <path class="st3" d="M3836.998535,77.939697v707.797791l-200.262939-523.585022,47.352295-46.049957,152.910645-138.162781M3839.998535,71.185852l-157.962402,142.727356-48.808105,47.46582,206.770508,540.599426V71.185852h0Z"/>
  </g>
  <g class="st1">
    <polygon id="area-35" class="st0" points="3508.220703 827.94043 3287.72168 632.950195 3276.992188 630.691406 3257.490234 613.453125 3247.662109 602.734375 3570.075195 324.884277 3632.641602 264.04248 3838.5 802.260742 3838.5 958.888672 3501.484375 1012.051758 3508.220703 827.94043"/>
    <path class="st3" d="M3632.053711,266.705963l204.946289,535.83017v155.070923l-333.949951,52.679443,6.643311-181.582336.051758-1.417419-1.0625-.939575-219.669922-194.258484-.59375-.525085-.775635-.16333-9.954346-2.095642-19.146973-16.923706-8.729004-9.519775,321.240479-276.840302.068604-.058899.064697-.062897,60.866943-59.193024M3633.228027,261.379089l-64.132812,62.369202-323.584229,278.859985,10.926025,11.915894,19.858887,17.552917,10.729492,2.258789,219.669922,194.258484-6.776367,185.223083,340.081055-53.646606v-465.912689l-.001465-.002808v307.722992l-206.770508-540.599304h0v.000061Z"/>
  </g>
  <g class="st1">
    <polygon id="area-41" class="st0" points="3790.709961 1494.75293 3687.943359 1484.755859 3719.291992 1385.944336 3733.109375 978.551758 3838.5 961.925781 3838.5 1494.75293 3790.709961 1494.75293"/>
    <path class="st3" d="M3837,963.681274v529.571777h-46.216309l-100.849365-9.810425,30.725098-96.848511.124756-.393066.013916-.412231,13.768311-405.948975,102.433594-16.158508M3840,960.170898l-108.3479,17.091431-13.852295,408.424561-31.846191,100.38269,104.684326,10.183472h49.362061v-536.082153h0Z"/>
  </g>
  <g class="st1">
    <polygon id="area-34" class="st0" points="2736.84668 1136.824219 2723.958008 1120.677734 2693.408203 1092.37793 3018.363281 809.678711 3091.845703 749.763672 3110.676758 727.541992 3181.930664 667.423828 3188.703125 672.744141 3193.02832 678.873047 3196.686523 686.188477 3210.516602 678.603516 3210.136719 655.44043 3244.519531 625.96875 3256.388672 616.483398 3275.599609 633.462891 3286.328125 635.72168 3505.170898 829.249023 3498.463867 1012.567383 3331.108398 1044.438477 3303.053711 1060.9375 3268.210938 1075.344727 3237.80957 1078.513672 3163.917969 1091.986328 3050.291016 1101.347656 3014.421875 1100.53418 2965.59082 1094.652344 2881.484375 1087.808594 2853.799805 1088.402344 2807.140625 1105.699219 2772.786133 1132.499023 2747.074219 1165.614258 2736.84668 1136.824219"/>
    <path class="st3" d="M3256.339844,618.442261l17.969238,15.882568.593506.524658.775391.163208,9.953857,2.09552,218.013672,192.793762-6.637207,181.415771-165.925537,31.598755-.510986.09729-.448486.263672-27.73999,16.313599-34.544434,14.284668-30.127686,3.140381-.114258.011963-.112793.02063-73.76123,13.448486-113.477783,9.348877-35.716309-.810059-48.758545-5.872925-.057617-.006958-.057861-.004639-83.972168-6.832031-.153564-.012573-.154297.003418-27.354004.586426-.504883.010864-.473389.175415-46.205566,17.128296-.436035.161621-.366455.286011-34.023193,26.542114-.294922.22998-.229492.295532-23.91626,30.803223-9.226074-25.970947-.168457-.474121-.313721-.393188-12.661377-15.86145-.140625-.176147-.165283-.153076-29.241699-27.088257,323.656494-281.56897,73.376465-59.829956.214355-.174683.178467-.210876,18.660889-22.02002,70.223389-59.251099,5.640625,4.431763,4.133301,5.855774,2.910645,5.821167,1.393799,2.787109,2.732178-1.498352,11.670654-6.400085,1.58667-.870239-.029785-1.809448-.353271-21.554993,33.808105-28.978455,10.883545-8.699036M3256.437012,614.524231l-12.894043,10.305908-34.91748,29.929321.376465,22.964539-11.670654,6.400146-3.011719-6.02356-4.517578-6.400024-7.906006-6.211792-72.282227,60.988098-18.823242,22.211792-73.411621,59.858643-326.21582,283.795349,31.693115,29.359131,12.661377,15.86145,11.061035,31.136108,27.277832-35.132935,34.023193-26.542114,46.205566-17.128296,27.354004-.586426,83.972168,6.832031,48.903809,5.890381,36.019531.816895,113.781006-9.373901,73.906494-13.474976,30.560547-3.185425,35.140625-14.53125,27.920654-16.4198,168.274902-32.046082,6.776367-185.223083-219.669922-194.258423-10.729492-2.258789-19.858887-17.552856h0v-.000061Z"/>
  </g>
  <g class="st1">
    <polygon id="area-40" class="st0" points="3214.921875 1452.260742 3239.435547 1081.361328 3268.955078 1078.28418 3304.393555 1063.628906 3332.180664 1047.288086 3500.199219 1015.291016 3730.091797 979.027344 3716.307617 1385.430664 3684.879883 1484.492188 3214.921875 1452.260742"/>
    <path class="st3" d="M3728.530762,980.791931l-13.715332,404.381042-31.008545,97.74231-467.289795-32.048218,24.331787-368.145386,28.044922-2.92334.433105-.045166.402344-.166382,35.140625-14.531128.193604-.080078.180664-.106201,27.472168-16.156006,167.718262-31.940063,228.096191-35.981323M3731.6521,977.262451l-231.733154,36.555054-168.274902,32.046021-27.920654,16.4198-35.140625,14.531128-30.560547,3.185547-24.696045,373.655273,472.627441,32.414307,31.846191-100.382568,13.852295-408.424561h0Z"/>
  </g>
  <g class="st1">
    <path id="area-20" class="st0" d="M2179.290039,1190.981445l-10.271484-11.794922-83.611328-134.030273,72.128906-46.898438c.078125-.050781.15625-.097656.235352-.141602l40.814453-22.310547c.063477-.03418.135742-.072266.209961-.105469l30.669922-14.095703-.102539-9.301758c-.010742-.936523.364258-1.853516,1.02832-2.516602l8.172852-8.151367.085938-.457031c.024414-.133789.057617-.266602.097656-.396484l.192383-.614258c.104492-.333984.258789-.650391.457031-.938477l.751953-1.09375c.289062-.419922.674805-.77832,1.115234-1.037109l4.045898-2.370117c.537109-.314453,1.147461-.480469,1.767578-.480469.3125,0,.625.041992.926758.125977.90625.248047,1.68457.861328,2.138672,1.681641l1.025391,1.857422,17.635742-2.222656,1.757812-.28418c.18457-.029297.37207-.044922.557617-.044922.808594,0,1.598633.282227,2.223633.794922l2.945312,2.416016c.121094.099609.234375.206055.338867.319336l.418945.451172,5.279297.228516,24.929688-3.746094,27.204102-15.035156,11.398438,20.926758,19.966797-9.926758,25.283203-14.983398,72.070312-47.276367,99.480469,109.238281.265625.251953-53.927734,53.643555-31.949219,43.844727-23.961914,22.612305-52.546875,37.291016-74.170898,40.980469-24.961914,4.496094-22.678711-.001953-35.518555,12.949219-33.960938,9.526367-11.600586.112305-18.357422-13.492188Z"/>
    <path class="st3" d="M2462.931152,871.486023l97.899658,107.501953-52.807129,52.527771-.168701.167847-.140137.192383-31.796875,43.635986-23.785889,22.445923-52.392822,37.181885-73.880371,40.819702-24.586914,4.428467-22.280029-.001953h-.529785l-.498047.181519-35.214844,12.838257-33.714355,9.45752-10.902344.105225-17.820312-13.097168-10.084473-11.57959-82.768311-132.680664,70.896484-46.097168c.045898-.029968.093018-.057983.128906-.077881l40.802734-22.304932c.042236-.022766.084961-.04541.14209-.071289l29.77832-13.686523,1.768311-.812805-.021484-1.946106-.091797-8.327515c-.005859-.535583.20874-1.059998.587646-1.438232l7.84375-7.823181.658203-.656555.171631-.913818c.014893-.079407.033447-.154724.056641-.228088l.19043-.609863c.060303-.192322.148682-.37384.261963-.538696l.750977-1.092468c.165771-.240723.386475-.445923.638916-.593811l4.047119-2.37085c.306152-.179565.654541-.274414,1.007812-.274414.178223,0,.355713.024048.532227.072876.516113.141602.960938.491882,1.219238.959045l.53418.967712.983154,1.781067,2.018555-.254395,16.626953-2.095703.05249-.006653.052246-.008423,1.703125-.276062c.105469-.016968.213135-.025635.319336-.025635.463623,0,.916016.16156,1.272217.45343l2.947021,2.418396c.067383.055115.131104.115173.189697.178284l.838135.903259,1.231201.053162,4.518555.195312.289307.012512.286133-.04303,24.520508-3.684631.533447-.080139.471924-.260864,25.646973-14.174622,9.985107,18.332886,1.382324,2.537903,2.587646-1.28656,18.624023-9.258911.099121-.049194.094971-.056335,25.235596-14.955627.058838-.034851.057129-.037537,70.94165-46.537659M2463.425781,867.573669l-73.081787,47.941589-25.235596,14.955688-18.624023,9.258911-11.428711-20.983765-28.289062,15.634766-24.520508,3.684631-4.518555-.195312c-.151367-.163086-.314453-.316406-.487305-.458008l-2.945312-2.416992c-.901123-.738586-2.026123-1.134277-3.175049-1.134338-.265625,0-.531982.021118-.797607.063965l-1.705078.276428-16.626953,2.095642-.53418-.967712c-.652344-1.179749-1.75293-2.045959-3.051758-2.402344-.436279-.120483-.882324-.17981-1.326172-.17981-.880615,0-1.752686.233459-2.525391.686584l-4.045898,2.370117c-.633789.371033-1.177734.876953-1.59375,1.481506l-.751953,1.09375c-.283203.412109-.50293.864258-.652344,1.34082l-.191406.612305c-.058594.186523-.105469.376953-.141602.569336l-7.84375,7.823181c-.953125.951172-1.483398,2.24707-1.46875,3.594727l.091797,8.328125-29.77832,13.686523c-.105469.047852-.208984.100586-.310547.155273l-40.820312,22.314453c-.111328.061523-.220703.126953-.327148.196289l-73.362793,47.700928,84.452881,135.381104,10.459229,12.010132,18.893555,13.885864,12.300293-.118652,34.207275-9.595825,35.32251-12.877441,22.548096.001953,25.337402-4.563721,74.460938-41.140503,52.700684-37.400391,24.140137-22.780273,31.960449-43.860596,54.939697-54.649109-1.348633-1.2771-100.304688-110.142822h0v.000122Z"/>
  </g>
  <g class="st1">
    <path id="area-19" class="st0" d="M1930.130859,1530.307617l-13.435547-29.415039-12.791992-26.466797-13.833984-21.294922-7.84082-8.866211-10.87793-8.894531-16.254883-32.716797-25.048828-37-31.875977-49.822266-8.44043,7.796875-27.467773-50.379883,71.038086-49.048828,12.594727-9.817383,2.561523-7.338867c.238281-.680664.671875-1.262695,1.253906-1.683594l22.861328-16.515625.136719-.09375,11.208984-7.269531,58.820312-43.494141,24.223633-16.817383c.049805-.035156.102539-.069336.155273-.101562l23.929688-14.775391,72.176758-46.711914,19.667969-12.788086,83.707031,134.185547,10.646484,12.224609,2.814453,2.068359-37.307617,27.017578,73.306641,100.719727,31.783203,49.053711-76.952148,53.494141-109.116211,68.972656-7.108398,6.904297-48.323242,27.419922-53.637695,35.051758-22.573242-33.59668Z"/>
    <path class="st3" d="M2082.428467,1048.882324l82.834961,132.787476.126465.202393.156494.179932,10.459229,12.010132.218262.250366.267578.196655,1.022949.751831-34.424072,24.929443-2.435547,1.763794,1.769531,2.431274,72.373779,99.438843,30.99585,47.834473-75.706299,52.627197-108.983887,68.890747-.263672.166626-.223633.217163-6.859375,6.662231-48.155762,27.324707-.081909.046509-.078857.051636-52.317627,34.192261-21.678345-32.264771-13.38501-29.304077-.01355-.029663-.014282-.029419-12.736938-26.35144-.082153-.170166-.103027-.158569-13.721802-21.123413-.121094-.186401-.147339-.166626-7.686279-8.691162-.160645-.181641-.187622-.153442-10.533936-8.613892-16.066895-32.337402-.0896-.180298-.112793-.166626-24.970947-36.884277-30.910278-48.313721-1.93103-3.018066-2.631836,2.431274-5.711182,5.276123-25.900146-47.505005,69.926636-48.282227.071411-.049438.068604-.053467,12.176758-9.494141.696655-.543213.291138-.833984,2.415649-6.920654c.136353-.390015.383911-.7229.716797-.963257l22.865967-16.519043.078003-.053101,11.200317-7.264648.077271-.050171.073975-.054688,58.650024-43.373413.058228-.041992,24.221558-16.81604c.028931-.02002.058716-.039185.092041-.05957l23.927734-14.774414.0271-.016846.026733-.017334,72.154663-46.697876,18.38501-11.953979M2083.355957,1044.700928l-20.947754,13.620361-72.149414,46.694336-23.927734,14.774414c-.076172.046875-.151367.095703-.224609.146484l-24.223633,16.817383c-.041016.02832-.081055.057617-.121094.086792l-58.660156,43.380859-11.200195,7.264648c-.070312.044922-.139648.092773-.207031.141602l-22.861328,16.515625c-.829102.598633-1.454102,1.438477-1.791992,2.405151l-2.416016,6.921875-12.176758,9.494141-72.148438,49.816406,29.035034,53.254883,8.538452-7.887817,30.930908,48.345825,24.993164,36.917236,16.35437,32.916016,11.034058,9.022827,7.686279,8.69104,13.721802,21.123413,12.736938,26.35144,13.486938,29.527344,23.466919,34.926758,54.797119-35.812744,48.48999-27.514404,7.134766-6.929932,109.039551-68.925781,78.144531-54.322266-32.619141-50.339844-72.421631-99.504639,37.754639-27.341309-4.336426-3.187134-10.459229-12.010132-84.452881-135.381104h0v.000244Z"/>
  </g>
  <g class="st1">
    <polygon id="area-32" class="st0" points="2524.210938 1333.291016 2484.398438 1322.113281 2455.345703 1297.520508 2417.647461 1273.826172 2371.370117 1251.803711 2304.611328 1184.358398 2327.385742 1180.256836 2402.136719 1138.956055 2454.992188 1101.446289 2479.30957 1078.499023 2511.282227 1034.62207 2565.104492 981.083008 2618.725586 1031.858398 2690.183594 1093.478516 2721.754883 1122.726562 2734.188477 1138.302734 2744.890625 1168.428711 2600.220703 1355.164062 2524.210938 1333.291016"/>
    <path class="st3" d="M2565.130615,983.173828l52.563721,49.774414.050781.048096.052734.045654,71.365967,61.538208,31.488281,29.169434,12.207031,15.291992,10.34375,29.116821-143.545654,185.283203-75.050049-21.59729-39.48877-11.086792-28.722168-24.3125-.161865-.137207-.179932-.113037-37.533691-23.592529-.148682-.093506-.158691-.075439-45.962402-21.870972-64.568115-65.232422,19.726074-3.552979.486572-.087646.432617-.239014,74.460938-41.140503.147705-.081665.137695-.097778,52.700684-37.400391.17041-.121094.152344-.143555,24.140137-22.780273.201904-.190674.163574-.224487,31.820312-43.668091,52.706787-52.428101M2563.730469,977.716431l1.348633,1.277161-54.939697,54.649109-31.960449,43.860474-24.140137,22.780273-52.700684,37.400391-74.460938,41.140503-25.337402,4.563599,68.948242,69.657715,46.436279,22.096436,37.533691,23.592651,29.220703,24.734497,40.117432,11.263184,76.986572,22.154541,145.795898-188.187744-11.061035-31.136108-12.661377-15.86145-31.693115-29.359131-71.406006-61.572754-56.026611-53.053528h0v.000183Z"/>
  </g>
  <g class="st1">
    <polygon id="area-30" class="st0" points="2333.587891 1466.123047 2282.516602 1406.645508 2251.085938 1371.550781 2218.530273 1321.30957 2146.947266 1222.954102 2182.597656 1197.135742 2196.676758 1207.483398 2209.675781 1207.357422 2244.128906 1197.692383 2279.256836 1184.885742 2300.914062 1184.887695 2369.606445 1254.288086 2416.200195 1276.458984 2453.570312 1299.948242 2482.958984 1324.825195 2523.390625 1336.176758 2597.84082 1357.600586 2567.321289 1386.401367 2498.660156 1453.506836 2439.727539 1502.708984 2366.794922 1548.566406 2333.587891 1466.123047"/>
    <path class="st3" d="M2279.521484,1186.386108l20.766602.001709,68.067871,68.768311.369141.373047.473877.225464,46.277588,22.020874,37.205322,23.38623,29.058594,24.59729.498535.421875.628662.176636,40.098877,11.257935,71.931396,20.699951-28.606445,26.995117-.019043.017944-.018799.018433-68.599854,67.046143-58.810059,49.099609-71.327637,44.848877-32.444336-80.549683-.18457-.458496-.322021-.375-50.910156-59.289185-.020508-.023804-.020752-.023315-31.33252-34.984619-32.492188-50.143799-.044189-.068237-.047852-.065796-70.6521-97.07312,33.546631-24.293823,12.793457,9.402588.805664.592163.999756-.009644,12.300293-.118652.398193-.003906.383301-.107544,34.207275-9.595825.109863-.030884.107422-.039062,34.824707-12.695923M2278.991699,1183.386108l-35.32251,12.877441-34.207275,9.595825-12.300293.118652-18.893555-13.885864,4.336426,3.187134-37.754639,27.341309,72.421631,99.504517,32.619141,50.339844,31.488281,35.158569,50.910156,59.289062,33.7854,83.87915,74.536865-46.866699,59.05542-49.304443,68.683838-67.128052,32.432129-30.605347-76.986572-22.154541-40.117432-11.263184-29.220703-24.734375-37.533691-23.592651-46.436279-22.096436-68.948242-69.657715-22.548096-.001953h0v-.000244Z"/>
  </g>
  <g class="st1">
    <polygon id="area-33" class="st0" points="3074.402344 1459.950195 2774.450195 1410.259766 2714.711914 1410.818359 2688.382812 1393.251953 2603.151367 1356.279297 2747.763672 1169.618164 2774.926758 1134.633789 2808.619141 1108.350586 2854.369141 1091.390625 2881.394531 1090.810547 2965.289062 1097.636719 3014.208984 1103.530273 3050.379883 1104.349609 3164.311523 1094.963867 3236.398438 1081.820312 3211.829102 1453.556641 3210.045898 1472.974609 3074.402344 1459.950195"/>
    <path class="st3" d="M3234.775146,1083.641602l-24.439941,369.776611-1.644531,17.919067-134.093994-12.875122-299.772705-49.661011-.257324-.042725-.260986.002319-59.145508.553223-25.833496-17.23584-.224121-.149414-.24707-.107178-83.336182-36.149902,143.428955-185.132568,27.048584-34.837402,33.361572-26.026123,45.295898-16.791016,26.695068-.572388,83.760742,6.814941,48.846436,5.883301.144775.017456.145752.003418,36.019531.817017.157471.00354.156982-.012939,113.781006-9.374023.146729-.012085.14502-.026489,70.121338-12.78479M3238.022217,1080l-73.906494,13.474854-113.781006,9.374023-36.019531-.817017-48.903809-5.890259-83.972168-6.832153-27.354004.586426-46.205566,17.128296-34.023193,26.542236-27.277832,35.132812-145.795898,188.187866,86.878906,37.686646,26.602539,17.749023,60.06958-.56189,299.874512,49.677856,137.19458,13.172729,1.92334-20.956177,24.696045-373.655273h0Z"/>
  </g>
  <g class="st1">
    <polygon id="area-43" class="st0" points="3360.832031 2158.499023 3366.799805 2094.474609 3380.405273 1967.066406 3402.487305 1768.762695 3447.873047 1678.990234 3499.19043 1620.714844 3560.103516 1582.427734 3674.717773 1535.081055 3687.082031 1487.686523 3790.564453 1497.75293 3838.499023 1497.75293 3838.5 2158.499023 3360.832031 2158.499023"/>
    <path class="st3" d="M3688.210449,1489.303345l102.136963,9.935669.14502.014038h46.506348l.001221,657.745972h-474.52124l5.810791-62.345947,13.605469-127.413818,22.052734-198.041138,45.178223-89.360352,51.046631-57.96814,60.621582-38.10498,113.805908-47.012695,1.380615-.570312.376953-1.445068,11.852783-45.43335M3685.953613,1486.06958l-12.498779,47.909668-114.041748,47.110107-61.204834,38.471558-51.58667,58.581665-45.595459,90.185303-22.112549,198.579346-13.606934,127.427246-6.120605,65.664551h480.813965l-.001221-663.746094h-49.36084l-104.684326-10.183472h0v.000122Z"/>
  </g>
  <g class="st1">
    <polygon id="area-39" class="st0" points="3169.306641 1750.110352 3105.297852 1742.696289 3023.399414 1715.698242 2940.029297 1650.148438 2869.208008 1564.651367 2796.272461 1482.757812 2718.186523 1413.785156 2774.216797 1413.261719 3074.013672 1462.926758 3212.758789 1476.248047 3214.685547 1455.251953 3684.044922 1487.442383 3672.192383 1532.87793 3558.722656 1579.751953 3497.225586 1618.40625 3446.001953 1676.576172 3427.626953 1674.805664 3409.34082 1662.30957 3414.731445 1631.34668 3271.381836 1746.875 3257.004883 1765.994141 3169.306641 1750.110352"/>
    <path class="st3" d="M2774.101074,1414.763184l299.616943,49.635254.101318.016846.102295.009766,137.19458,13.172852,2.998779.287964.275391-3.000122,1.655273-18.036865,466.091309,31.966064-11.208008,42.961914-112.661133,46.539795-.235596.097168-.215576.13562-61.204834,38.471558-.36792.231079-.287109.326172-50.573486,57.43103-17.228027-1.660156-17.171387-11.733887,4.541504-26.085815,1.366943-7.851074-6.204834,5.00061-140.101318,112.911133-.290771.234375-.224365.29834-13.709473,18.230469-86.788086-15.719727-.094482-.01709-.095215-.010986-63.762939-7.38147-81.501465-26.867676-83.037354-65.288818-70.719238-85.372925-.03418-.041382-.035889-.040161-72.84082-81.786133-.119629-.134277-.134521-.119019-75.088379-66.324341,51.991699-.486206M2774.33374,1411.760864l-60.06958.561768,80.94751,71.499634,72.84082,81.786133,70.923828,85.619751,83.702881,65.812134,82.293213,27.128662,64.066406,7.416626,88.608643,16.049438,14.821289-19.708984,140.101318-112.911133-4.872803,27.988037,19.402344,13.258301,19.521973,1.881348,51.58667-58.581665,61.204834-38.471558,114.041748-47.109985,12.498779-47.90979-472.627441-32.414307-1.92334,20.956299-137.19458-13.172852-299.874512-49.677856h0Z"/>
  </g>
  <g class="st1">
    <polygon id="area-42" class="st0" points="3149.325195 1841.331055 3170.170898 1753.31543 3258.290039 1769.275391 3273.555664 1748.976562 3410.40918 1638.682617 3406.053711 1663.696289 3426.571289 1677.717773 3444.291992 1679.424805 3399.56543 1767.892578 3377.422852 1966.741211 3363.81543 2094.175781 3357.819336 2158.499023 2842.629883 2158.5 3149.325195 1841.331055"/>
    <path class="st3" d="M3408.247803,1642.35144l-3.506104,20.136963-.331299,1.902222,1.594238,1.089355,19.402344,13.258301.636963.435303.767822.074097,15.151367,1.460083-43.614258,86.266846-.244385.483276-.060059.538208-22.11377,198.592896-13.611084,127.467407-5.866943,62.942871-510.285889.000732,303.950684-314.329346.57251-.592285.189941-.801758,20.422852-86.232056,85.810059,15.542603,1.820312.329712,1.112061-1.478638,14.596924-19.410645,133.605713-107.676147M3412.570068,1635.015015l-140.101318,112.911133-14.821289,19.708984-88.608643-16.049438-21.078125,88.999512-308.868164,319.414795,520.093506-.000732,6.120605-65.664307,13.606934-127.427368,22.112549-198.579346,45.595459-90.185425-19.521973-1.881348-19.402344-13.258301,4.872803-27.988037h0v-.000122Z"/>
  </g>
  <g class="st1">
    <polygon id="area-31" class="st0" points="2465.24707 1805.8125 2437.320312 1715.889648 2421.428711 1676.580078 2369.057617 1582.642578 2367.613281 1551.59668 2441.495117 1505.140625 2500.673828 1455.733398 2569.399414 1388.564453 2601.09375 1358.65625 2686.941406 1395.896484 2713.34668 1413.513672 2794.151367 1484.886719 2866.932617 1566.606445 2905.183594 1612.78418 2827.915039 1620.126953 2825.504883 1633.983398 2818.31543 1647.807617 2807.19043 1665.607422 2781.612305 1688.68457 2744.086914 1705.206055 2712.202148 1721.363281 2641.100586 1758.606445 2571.046875 1794.84082 2537.198242 1808.864258 2480.49707 1838.160156 2465.24707 1805.8125"/>
    <path class="st3" d="M2601.40332,1360.426514l84.817383,36.792358,26.209473,17.486572,80.660889,71.24646,72.685059,81.611206,36.444336,43.995972-73.307861,6.96582-2.279541.216675-.392334,2.255859-2.173828,12.499634-7.054443,13.566284-10.982178,17.571167-25.244141,22.774658-37.303223,16.424683-.074463.032837-.072754.036865-31.8479,16.140381-71.069824,37.227051-70.003418,36.20874-33.731934,13.974609-.116699.04834-.112061.057983-55.263428,28.552612-14.541748-30.845825-27.877686-89.763306-.036865-.119141-.046875-.115601-15.832764-39.165405-.069824-.173218-.091064-.163208-52.154541-93.547119-1.386719-29.820312,73.055908-45.935425.170898-.107544.154785-.129272,59.05542-49.304443.090332-.075195.083984-.082153,68.663818-67.108643,30.97583-29.230957M2600.782715,1356.887207l-32.432129,30.605225-68.683838,67.128052-59.05542,49.304321-74.536865,46.866821,1.500488,32.273071,52.498291,94.163574,15.832764,39.165283,27.939941,89.963623,15.95752,33.849243,58.027344-29.980713,33.849365-14.023315,70.116211-36.26709,71.083496-37.234131,31.812012-16.121826,37.745117-16.619385,25.914795-23.379517,11.267334-18.027588,7.32373-14.084106,2.253418-12.957397,78.949707-7.501953-40.093506-48.401123-72.84082-81.786011-80.94751-71.499634-26.602539-17.748901-86.878906-37.686523h0Z"/>
  </g>
  <g class="st1">
    <polygon id="area-38" class="st0" points="2644.910156 2158.5 2613.198242 2080.482422 2526.935547 1939.107422 2481.764648 1840.881836 2538.462891 1811.586914 2572.3125 1797.563477 2642.486328 1761.267578 2713.576172 1724.030273 2745.369141 1707.916992 2783.262695 1691.235352 2809.512695 1667.552734 2820.922852 1649.297852 2828.380859 1634.955078 2830.477539 1622.896484 2907.498047 1615.578125 2937.923828 1652.308594 3021.959961 1718.381836 3104.648438 1745.641602 3167.19043 1752.881836 3146.59668 1839.838867 2838.457031 2158.5 2644.910156 2158.5"/>
    <path class="st3" d="M2906.848877,1617.14624l29.817139,35.995605.204346.246582.251709.197998,83.702881,65.812256.414307.325928.500732.164917,82.293213,27.12854.290283.095703.303955.035156,60.714355,7.028687-20.110596,84.914307-307.410889,317.908081h-191.900879l-31.286133-76.969482-.091553-.225342-.126709-.207764-86.153076-141.196045-44.535645-96.844971,55.369873-28.607666,33.732178-13.974854.117432-.048462.112549-.058472,70.130127-36.27417,71.047607-37.215576,31.73999-16.085205,37.669922-16.586182.441895-.19458.358643-.323486,25.914795-23.379517.311768-.28125.222656-.356079,11.267334-18.027588.062988-.100708.054688-.105347,7.32373-14.083984.214355-.412231.07959-.457886,1.861084-10.701416,75.089355-7.135132M2908.145996,1614.009399l-78.949707,7.501953-2.253418,12.957397-7.32373,14.083984-11.267334,18.027588-25.914795,23.379639-37.745117,16.619263-31.812012,16.121826-71.083496,37.234253-70.116211,36.26709-33.849365,14.023315-58.027344,29.980713,45.805908,99.607178,86.244873,141.346558,32.046387,78.839844h195.191895l308.868164-319.414795,21.078125-88.999512-64.066406-7.416748-82.293213-27.12854-83.702881-65.812256-30.830322-37.218628h0v-.000122Z"/>
  </g>
  <g class="st1">
    <polygon id="area-29" class="st0" points="2052.626953 1706.43457 2045.977539 1698.22168 2033.526367 1694.193359 2023.646484 1681.842773 2003.237305 1641.729492 1954.357422 1566.407227 2007.902344 1531.413086 2056.479492 1503.852539 2063.639648 1496.897461 2172.547852 1428.054688 2249.658203 1374.453125 2280.261719 1408.624023 2330.990234 1467.703125 2364.030273 1549.733398 2341.814453 1554.975586 2329.755859 1565.200195 2296.119141 1604.108398 2291.227539 1611.05957 2287.839844 1619.288086 2276.352539 1626.798828 2274.197266 1624.163086 2266.621094 1627.950195 2250.625977 1636.169922 2256.442383 1646.375 2254.12793 1647.736328 2230.291992 1660.954102 2204.104492 1672.208008 2112.78418 1700.643555 2057.677734 1718.894531 2052.626953 1706.43457"/>
    <path class="st3" d="M2249.425293,1376.442139l29.697266,33.158936,50.568359,58.891113,32.296387,80.181885-20.166016,4.759155-.701416.165527-.549805.465942-11.695312,9.91626-.177246.150391-.1521.175903-33.511963,38.764038-.0979.113159-.085938.122314-4.751709,6.752563-.192871.27417-.127686.310059-3.147461,7.643311-9.969971,6.518799-.543457-.664429-1.518555-1.856079-2.14502,1.07251-6.531982,3.266235-14.587158,7.496094-2.786865,1.432007,1.551758,2.721924,4.30835,7.558594-1.007568.592529-23.768799,13.180664-26.045898,11.193359-91.245605,28.412842-.025635.008057-.025635.008423-53.748291,17.799805-4.439209-10.950317-.167725-.413574-.280762-.346924-6.227905-7.693115-.560547-.692505-.847656-.274292-11.598755-3.752563-9.503052-11.878784-20.303833-39.90686-.071533-.140503-.085815-.132202-48.023682-74.001343,52.214844-34.125,48.408325-27.468018.334229-.189575.275391-.2677,6.911377-6.712769,108.775879-68.759155.05542-.035034.053955-.037476,75.966797-52.808594M2249.890625,1372.464966l-78.144531,54.322388-109.039551,68.925781-7.134766,6.929932-48.48999,27.514404-54.797119,35.812744,49.651611,76.509766,20.443115,40.180664,10.257446,12.821777,12.455444,4.029785,6.227783,7.693115,5.495117,13.554443,56.415771-18.683228,91.394531-28.459229,26.328125-11.314575,23.935059-13.272949,3.590332-2.111328-5.77417-10.129883,14.587158-7.496094,6.502441-3.251221,2.250732,2.751099,13.004639-8.503052,3.501465-8.503052,4.751709-6.752441,33.511963-38.764038,11.695312-9.91626,23.564209-5.561157-33.7854-83.879028-50.910156-59.289062-31.488281-35.158569h0v-.000732Z"/>
  </g>
  <g class="st1">
    <polygon id="area-28" class="st0" points="2117.625977 2158.461914 2109.59375 2153.383789 2101.177734 2145.500977 2094.824219 2137.981445 2085.851562 2120.720703 2080.40332 2106.103516 2075.676758 2099.213867 2060.505859 2086.300781 2043.936523 2069.516602 1986.395508 2004.820312 1958.597656 1971.251953 1946.011719 1953.399414 1929.086914 1927.231445 1895.160156 1874.816406 1978.390625 1806.926758 1966.643555 1791.490234 2057.525391 1722.104492 2113.702148 1703.5 2205.145508 1675.026367 2231.614258 1663.651367 2255.616211 1650.34082 2260.514648 1647.460938 2254.78418 1637.40625 2267.977539 1630.625977 2273.392578 1627.918945 2275.737305 1630.785156 2290.259766 1621.290039 2293.874023 1612.512695 2298.486328 1605.957031 2331.873047 1567.338867 2343.205078 1557.729492 2364.660156 1552.666992 2366.092773 1583.486328 2418.717773 1677.87793 2434.492188 1716.897461 2462.444336 1806.902344 2478.447266 1840.84668 2521.564453 1934.608398 2463.775391 1963.103516 2467.74707 1973.698242 2463.897461 1988.804688 2456.707031 2023.445312 2393.663086 2061.826172 2350.379883 2090.384766 2334.706055 2095.976562 2330.458984 2095.28418 2326.929688 2095.1875 2281.759766 2112.576172 2275.05957 2112.073242 2246.110352 2105.748047 2209.064453 2109.399414 2137.061523 2145.84082 2130.926758 2158.49707 2117.625977 2158.461914"/>
    <path class="st3" d="M2363.245605,1554.541626l1.33252,28.662476.032715.705078.34375.616455,52.407227,94.000122,15.716309,38.876831,27.902832,89.844482.062012.200073.089355.189453,15.945557,33.823364,42.513672,92.448486-55.262207,27.249268-2.436035,1.20105.953613,2.542969,3.330811,8.882446-3.733887,14.649414-.016602.065308-.013916.065918-7.043457,33.937622-62.487061,38.042725-.046631.02832-.045654.030029-43.085205,28.429199-15.138916,5.401611-3.765625-.614746-.199219-.032471-.20166-.005371-3.128906-.086182-.600098-.016357-.560303.215576-44.575439,17.1604-6.259277-.469971-28.614502-6.252441-.462891-.101074-.47168.046631-36.529541,3.600586-.559326.055176-.501221.253662-71.30127,36.085693-.90332.457275-.44165.911133-5.502197,11.353027-11.926514-.032227-7.546387-4.770752-8.247314-7.725098-6.190186-7.324951-8.853027-17.031006-5.351318-14.358643-.128662-.345459-.20874-.303955-4.509521-6.573242-.225586-.328857-.303711-.258545-14.970703-12.742432-16.466675-16.681641-57.508789-64.655273-27.761353-33.523682-12.516968-17.754517-16.927246-26.169312-33.196045-51.285522,81.06543-66.124878,2.247681-1.833374-1.756592-2.308105-9.962158-13.0896,89.491943-68.324829,55.915039-18.517456,91.366455-28.450562.14917-.046509.143555-.061646,26.328125-11.314575.138428-.059448.131836-.07312,23.935059-13.272827.033203-.018433.032715-.019165,3.590332-2.111328,2.55127-1.500366-1.465576-2.571289-4.222656-7.408081,11.770996-6.049072,4.357178-2.178711.732178.89502,1.707275,2.08667,2.256592-1.475464,13.004639-8.503174.778076-.508789.354004-.859741,3.373779-8.192993,4.4729-6.356079,33.261719-38.474854,10.96875-9.300171,19.344727-4.56543M2366.074463,1550.791626l-23.564209,5.561279-11.695312,9.91626-33.511963,38.764038-4.751709,6.752441-3.501465,8.503052-13.004639,8.503052-2.250732-2.751099-6.502441,3.251221-14.587158,7.496216,5.77417,10.129883-3.590332,2.111328-23.935059,13.272949-26.328125,11.314697-91.394531,28.459229-56.415771,18.683228-92.272705,70.447876,11.776245,15.473267-83.147949,67.823486,34.656372,53.541748,16.95874,26.218018,12.619141,17.899414,27.869629,33.654419,57.594849,64.752197,16.613892,16.830566,15.069336,12.826416,4.509766,6.573242,5.415771,14.53125,9.092285,17.491455,6.518555,7.713379,8.583252,8.039551,8.516846,5.384521,14.676514.039551,6.324463-13.049561,71.30127-36.085938,36.529541-3.600586,28.820312,6.297363,7.14209.536133,45.205078-17.402832,3.128906.085938,4.528809.739258,16.20874-5.783447,43.387939-28.628906,63.599609-38.720093,7.30835-35.213013,3.966553-15.56189-3.661377-9.764282,57.881104-28.540527-43.733643-95.101318-15.95752-33.849243-27.939941-89.963501-15.832764-39.165283-52.498291-94.163574-1.500488-32.273193h0v.000366Z"/>
  </g>
  <g class="st1">
    <polygon id="area-37" class="st0" points="2134.258789 2158.5 2139.319336 2148.05957 2209.917969 2112.329102 2245.932617 2108.779297 2274.624023 2115.049805 2282.207031 2115.619141 2327.447266 2098.203125 2330.175781 2098.27832 2334.985352 2099.0625 2351.729492 2093.087891 2395.269531 2064.359375 2459.378906 2025.330078 2466.819336 1989.479492 2470.887695 1973.526367 2467.537109 1964.59375 2522.818359 1937.334961 2524.283203 1940.519531 2610.510742 2081.837891 2641.671875 2158.5 2134.258789 2158.5"/>
    <path class="st3" d="M2522.099609,1939.361694l.78418,1.705322.073242.159546.091309.14978,86.118164,141.138794,30.276367,74.484863h-502.789551l3.794922-7.830078,69.896729-35.375,35.498535-3.498779,28.357422,6.196289.205811.044922.209961.015869,7.14209.536133.672852.050537.629639-.242432,44.644775-17.187012,2.327393.063965,4.329346.706787.763184.124512.728271-.26001,16.20874-5.783203.341553-.121826.302734-.199707,43.34082-28.5979,63.554443-38.692627,1.112793-.677368.264648-1.275513,7.294434-35.146973,3.949951-15.496582.232666-.912598-.330566-.881714-2.708008-7.221313,52.681152-25.976318M2523.537354,1935.307861h-.000244l-57.881104,28.540527,3.661377,9.764282-3.966553,15.56189-7.30835,35.213013-63.599609,38.720093-43.387939,28.628906-16.20874,5.783447-4.528809-.739258-3.128906-.085938-45.205078,17.402832-7.14209-.536133-28.820312-6.297363-36.529541,3.600586-71.30127,36.085938-6.324463,13.049805h512.034912l-32.046387-78.839844-86.244873-141.346436-2.072021-4.505859h0v-.000488Z"/>
  </g>
  <g class="st1">
    <polygon id="area-27" class="st0" points="1641.80957 2069.237305 1617.974609 1985.336914 1630.443359 1984.21582 1678.446289 1978.754883 1708.140625 1970.922852 1746.258789 1955.936523 1770.40332 1942.125977 1817.025391 1914.587891 1886.141602 1866.639648 1891.921875 1875.333984 1926.568359 1928.861328 1943.526367 1955.078125 1956.212891 1973.075195 1984.119141 2006.774414 2041.748047 2071.567383 2058.461914 2088.5 2073.428711 2101.239258 2077.72168 2107.496094 2083.105469 2121.941406 2092.316406 2139.662109 2099 2147.571289 2107.75 2155.768555 2112.010742 2158.460938 1678.083008 2158.5 1641.80957 2069.237305"/>
    <path class="st3" d="M1885.739624,1868.744141l4.91272,7.390137,34.655884,53.541016,16.958618,26.217896.032593.050293.034546.049072,12.619141,17.899414.067017.095093.074341.089722,27.869629,33.654419.033813.040771.035156.039551,57.594849,64.751953.05188.05835.054688.055664,16.613892,16.830566.091553.092529.098877.084473,14.765625,12.567871,4.075684,5.94043,5.286865,14.186035.064453.172607.084961.16333,9.092285,17.491455.154297.296875.216309.255615,6.518555,7.713379.112793.133545.127686.119629,8.583252,8.039795.207275.194336.002686.001709-427.739014.03833-35.862671-88.251953-23.317627-82.079712,10.665039-.958618.0354-.003174.035278-.003906,47.860352-5.445312.21582-.024658.210083-.05542,29.504639-7.781494.169556-.044678.163086-.064087,37.93457-14.914429.202759-.079712.189087-.108154,24.085815-13.776733,46.557861-27.5.094238-.055786.089966-.062378,67.813843-47.045532M1886.543945,1864.534912l-70.328125,48.789795-46.557861,27.5-24.049561,13.755737-37.93457,14.914429-29.504639,7.781494-47.860474,5.445312-14.271851,1.282837,24.352173,85.721313,36.684448,90.27417,440.115723-.039551-8.516846-5.384521-8.583252-8.039795-6.518555-7.713379-9.092285-17.491455-5.415771-14.53125-4.509766-6.573242-15.069336-12.826416-16.613892-16.830566-57.594849-64.752075-27.869629-33.654419-12.619141-17.899414-16.95874-26.218018-34.656372-53.541748-6.626831-9.969238h0Z"/>
  </g>
  <g class="st1">
    <path id="area-18" class="st0" d="M1589.634766,1931.946289l-16.295898-18.948242-38.583008-31.905273-2.09082-19.240234,5.299805-23.12793-40.674805-44.194336-13.922852,17.446289-25.549805-2.318359,2.080078-9.799805,24.157227-38.202148,16.174805-43.03418,5.462891-62.506836,49.80957-72.166016,29.774414-99.698242-27.461914-45.079102-16.098633-33.96875,24.547852-12.420898,5.902344-3.118164c.094727-.049805.19043-.095703.289062-.135742l10.700195-4.44043,70.546875-41.614258,31.378906-17.429688,51.19043-31.464844,23.573242-19.499023,29.094727,53.364258,8.635742-7.978516,29.96582,46.836914,24.957031,36.865234,16.454102,33.116211,11.19043,9.149414,7.532227,8.517578,13.609375,20.951172,12.696289,26.266602,13.523438,29.608398,23.536133,35.029297,49.595703,76.423828,20.475586,40.24707,10.635742,13.293945,12.458984,4.030273,5.807617,7.173828,4.981445,12.287109-92.552734,70.661133,11.803711,15.510742-80.742188,65.861328-6.557617-9.865234-71.540039,49.629883-46.510742,27.47168-23.9375,13.691406-37.751953,14.84375-29.314453,7.730469-47.75293,5.433594-13.250977,1.19043-27.25293-50.475586Z"/>
    <path class="st3" d="M1759.398682,1277.395752l27.302124,50.076416,1.842529,3.379272,2.827148-2.611816,5.906738-5.456665,28.999878,45.327637.020996.032837.021973.032227,24.879761,36.75,16.265137,32.73645.287598.578491.500122.409058,10.846436,8.869385,7.378174,8.343018,13.498047,20.778809,12.639893,26.150391,13.473633,29.498535.101929.223022.136841.203613,23.44043,34.886719,49.565796,76.377319,20.371704,40.040283.139404.273804.191895.239868,10.257324,12.821777.5625.703125.856689.2771,11.607788,3.755371,5.386353,6.653564,4.467285,11.018799-90.452759,69.05835-2.380859,1.817627,1.814087,2.383789,10.019531,13.165161-78.336914,63.89917-4.795532-7.214478-1.694092-2.548462-2.514282,1.744263-70.237549,48.726929-46.427979,27.423706-23.860229,13.647461-37.569214,14.770752-29.124634,7.681274-47.608643,5.416748-12.268433,1.102661-26.705688-49.462891-.153931-.285156-.211304-.245605-16.106445-18.728516-.16626-.193359-.196533-.162476-38.016357-31.436401-1.996826-18.383545,5.066772-22.112305.352783-1.539551-1.06958-1.162109-38.955322-42.326416-2.369629-2.574707-2.182617,2.734985-12.327759,15.44751-23.062988-2.092041,1.673828-7.883667,23.930786-37.845459.164429-.259888.108154-.287964,16.048462-42.69751.144531-.384888.035767-.409546,5.410156-61.906738,49.449707-71.644043.269653-.390625.135864-.454834,29.515747-98.831787.38208-1.279175-.69458-1.140137-27.07373-44.441772-15.439575-32.577515,23.24353-11.761108.023438-.011841.023193-.012329,5.881348-3.106201c.051392-.027222.10376-.052612.16626-.078247l10.598633-4.398438.193726-.080322.180542-.106445,70.457031-41.560425.029175-.016357.015625-.009399,31.299805-17.384888.057983-.032104.056396-.034668,51.043945-31.375854.179077-.110107.161987-.134033,22.090088-18.272339M1760.299805,1272.78125c-.119141.082031-.234375.168945-.345703.261719l-24.557617,20.313477-51.043945,31.375854-31.299805,17.384888c-.038086.021484-.075195.041992-.112305.064453l-70.457031,41.560547-10.598633,4.398315c-.142578.058594-.282227.125-.418945.197388l-5.879883,3.105469-25.852051,13.080933,16.759155,35.36145,27.155151,44.575439-29.515747,98.831787-49.900269,72.296875-5.479126,62.696899-16.048462,42.697632-24.218018,38.299927-2.487305,11.714844,28.036743,2.543213,13.335205-16.709717,38.955322,42.326416-5.179565,22.604492,2.182983,20.09668,38.955322,32.213013,16.106567,18.728516,27.64502,51.202637,14.271851-1.282837,47.860474-5.445312,29.504639-7.781494,37.93457-14.914429,24.049561-13.755737,46.557861-27.5,70.328125-48.789795,6.626831,9.969238,83.147949-67.823486-11.776245-15.473267,92.272705-70.447998-5.495117-13.554443-6.227783-7.692993-12.455444-4.029663-10.257446-12.821777-20.443115-40.180664-49.651611-76.509766-23.466919-34.926758-13.486938-29.527344-12.736938-26.351562-13.721802-21.123291-7.686279-8.691162-11.034058-9.022827-16.35437-32.916016-24.993164-36.917358-30.930908-48.345703-8.538452,7.887817-29.035034-53.254761h0v.000244Z"/>
  </g>
  <g class="st1">
    <path id="area-17" class="st0" d="M957.011719,1782.729492l-97.263672-171.59668-6.674805-36.296875,62.762695-3.275391,54.774414-5.165039,60.96875-7.020508,50.428711-7.149414,44.379883-6.87793,24.014648-6.328125.177734-.041016,61.543945-12.888672,40.069336-8.735352,32.469727-8.546875,7.214844-2.118164,66.079102-19.792969,28.572266-9.649414,97.536133-40.980469,18.642578-12.876953c.162109-.112305.334961-.210938.509766-.291992l2.597656-1.208008,24.765625-11.120117,5.592773-2.762695,2.864258-1.449219,16.132812,34.041016,26.849609,44.072266-29.256836,97.96582-49.991211,72.427734-5.496094,62.887695-15.920898,42.360352-24.280273,38.397461-2.894531,13.629883,28.004883,2.541016-8.517578,36.65918-58.550781-4.754883-209.206055,78.017578-147.786133,55.060547-101.113281-197.133789Z"/>
    <path class="st3" d="M1538.341431,1408.590942l15.440674,32.57959.067261.141968.081665.134033,26.460693,43.435425-28.997925,97.097534-49.630615,71.90625-.450684.652832-.06897.790039-5.443359,62.287354-15.795654,42.025146-24.053589,38.039795-.287354.454346-.111694.525879-2.487305,11.714966-.701782,3.305542,3.365479.305176,24.605957,2.232056-7.834351,33.721069-56.929077-4.622803-.665527-.053955-.625488.233276-208.891602,77.900146-146.537842,54.595703-100.504395-195.947754-.028625-.055786-.030884-.054443-97.108826-171.321533-6.320129-34.368408,61.056641-3.186157.062805-.003296.062622-.005859,54.711853-5.160156.030823-.00293.030701-.003418,60.937561-7.017578.03894-.004517.03894-.005493,50.427979-7.150269,44.28418-6.863281.154053-.023926.150879-.039795,23.935913-6.306763c.035034-.009155.070557-.017578.102051-.02417l61.572144-12.893921,40.057617-8.733398.0625-.013672.062012-.016235,32.407227-8.53125.041138-.010864.040649-.011963,7.189209-2.111816,66.071167-19.790039.049927-.015015.049316-.016602,28.47168-9.616211.102417-.034668.099731-.04187,97.342773-40.899292.286865-.120605.255981-.17688,18.511841-12.787109c.093994-.064819.191162-.120483.296997-.169434l2.556763-1.190308,24.784302-11.12793.050659-.022827.049805-.024536,5.567139-2.751709,1.478149-.748047M1539.733887,1404.524292l-4.225098,2.137695-5.541992,2.73938-24.78418,11.12793-2.59375,1.207031c-.255859.118042-.500977.258667-.733398.418823l-18.514648,12.789185-97.342773,40.899414-28.47168,9.616211-66.071289,19.790039-7.173828,2.107422-32.407227,8.53125-40.057617,8.733398-61.547852,12.888672c-.083008.017456-.166016.036987-.248047.058594l-23.939453,6.307617-44.28418,6.863281-50.389648,7.144531-60.9375,7.017578-54.711914,5.160156-64.468811,3.364258,7.029541,38.22583,97.357971,171.76123,101.72168,198.321045,149.037354-55.526978,208.892456-77.900391,59.508423,4.832275,9.199585-39.59729-28.036743-2.543213,2.487305-11.714844,24.218018-38.299927,16.048462-42.697632,5.479126-62.696899,49.900269-72.296875,29.515747-98.831787-27.155151-44.575562-16.759155-35.361572h0v.000122Z"/>
  </g>
  <g class="st1">
    <polygon id="area-26" class="st0" points="1214.241211 2158.499023 1123 2100.397461 1059.535156 1982.539062 1206.958984 1927.613281 1415.539062 1849.830078 1476.003906 1854.739258 1485.419922 1814.212891 1497.452148 1799.135742 1534.6875 1839.59375 1529.62793 1861.674805 1531.904297 1882.62793 1571.231445 1915.148438 1587.148438 1933.657227 1614.638672 1984.573242 1638.967773 2070.213867 1674.844727 2158.5 1214.241211 2158.499023"/>
    <path class="st3" d="M1497.533447,1801.439087l35.515991,38.5896-4.82666,21.064819-.112793.492188.054565.501831,2.182983,20.096802.131592,1.211426.939087.776489,38.758545,32.050415,15.729248,18.289551,27.334839,50.628296,24.262329,85.405151.0448.157715.061768.1521,35.00647,86.144775-457.937866-.000732-90.543335-57.656738-62.463013-115.998169,145.811768-54.325317,208.266968-77.667114,58.842896,4.77832,2.579346.209351.585571-2.52063,9.045898-38.935791,10.729004-13.443848M1497.371216,1796.832764l-13.335205,16.709717-9.199585,39.59729-59.508423-4.832275-208.892456,77.900391-149.037354,55.526978,64.465942,119.718018,91.940063,58.546143,463.269287.000732-36.684448-90.27417-24.352173-85.721313-27.64502-51.202637-16.106567-18.728516-38.955322-32.213013-2.182983-20.09668,5.179565-22.604492-38.955322-42.326416h0v.000244Z"/>
  </g>
  <g class="st1">
    <polygon id="area-25" class="st0" points="779.288086 2158.499023 636.831055 1912.067383 773.773438 1959.62207 862.866211 1979.878906 960.59082 2001.667969 991.049805 2001.220703 1056.641602 1983.493164 1120.728516 2102.508789 1208.65625 2158.499023 779.288086 2158.499023"/>
    <path class="st3" d="M640.147156,1914.807251l133.056152,46.204834.156921.054443.162109.036865,89.024231,20.241089,97.546082,21.749146.344238.076782.352661-.005127,30.094788-.442383.375793-.005493.362854-.098145,64.261658-17.367676,63.338135,117.623657.370605.688232.659302.419922,83.255127,53.015625h-423.354309l-140.006348-242.191895M633.514709,1909.328369l144.907837,250.670654h435.381653l-91.940063-58.546387-64.465942-119.718018-66.557983,17.988403-30.094727.442261-97.546082-21.749146-89.012024-20.238281-140.672668-48.849731h0v.000244Z"/>
  </g>
  <g class="st1">
    <polygon id="area-16" class="st0" points="863.525391 1976.952148 774.601562 1956.733398 634.158203 1907.963867 534.468262 1847.188477 509.163574 1800.407227 395.618164 1669.378906 388.665527 1623.799805 388.665527 1538.035156 410.993164 1542.804688 482.724121 1554.521484 549.774902 1562.314453 616.964355 1568.932617 657.543945 1572.616211 725.003906 1575.124023 752.764648 1576.191406 825.833984 1575.751953 841.886719 1575.418945 850.051758 1574.993164 856.888672 1612.171875 954.37207 1784.15332 1055.217773 1980.769531 990.629883 1998.226562 960.899414 1998.664062 863.525391 1976.952148"/>
    <path class="st3" d="M390.165436,1539.889282l20.514465,4.382324.071259.015137.071899.011841,71.65918,11.703125.068481.011108.068817.008057,66.982452,7.783325.026062.003174.026123.002563,67.185974,6.617432,40.568359,3.682617.079773.007202.080078.00293,67.375916,2.502808,27.762695,1.067383.06665.002441.066711-.000366,73.047119-.440918,16.030273-.333008.047058-.000977.046997-.002441,6.80304-.35498,6.553162,35.635254.091431.49707.249207.439697,97.327087,171.706665,100.001404,194.967285-62.616882,16.923218-29.366028.431519-97.189697-21.669678-88.850037-20.201416-140.212036-48.689819-99.207458-60.480591-25.033722-46.280762-.156372-.289062-.215179-.248291-113.154083-130.577026-6.870178-45.038086v-83.796509M387.165436,1536.180786v87.732788l7.035187,46.119873,113.721893,131.232422,25.41922,46.993286,100.173035,61.069336,140.672668,48.849731,89.012024,20.238281,97.546082,21.749146,30.094727-.442261,66.557922-17.988403-101.72168-198.321045-97.357971-171.76123-7.029541-38.225952-9.433594.49231-16.030273.333008-73.002869.44043-27.762756-1.067383-67.379822-2.50293-40.568359-3.682617-67.163086-6.615234-66.982452-7.783325-71.65918-11.703125-24.141174-5.157104h0Z"/>
  </g>
  <g class="st1">
    <path id="area-21" class="st0" d="M2212.166992,928.970703c-.518555,0-1.018555-.110352-1.484375-.328125l-2.192383-1.025391c-.438477-.204102-.823242-.493164-1.144531-.856445l-1.431641-1.625c-.150391-.171875-.286133-.359375-.400391-.556641l-.963867-1.65918c-.110352-.189453-.203125-.391602-.277344-.600586l-.646484-1.849609c-.102539-.291016-.166016-.595703-.188477-.90625l-.104492-1.448242c-.008789-.125977-.011719-.258789-.005859-.389648l.0625-1.553711c.025391-.617188.212891-1.217773.543945-1.737305l1.086914-1.708008c.040039-.06543.075195-.116211.112305-.166992l1.34668-1.868164c.130859-.182617.280273-.351562.444336-.504883l1.722656-1.617188c.053711-.049805.103516-.094727.155273-.136719l6.171875-5.125977,20.132812-18.378906,46.03418-40.138672,28.657227-24.952148,13.734375-12.50293,42.472656-39.898438,13.06543-13.399414,83.814453-82.250977,25.28125-25.317383,63.927734-61.054688,90.90918-89.18457,31.081055-32.385742,16.837891-17.204102,42.496094,41.556641-22.222656,23.69043-25.780273,26.618164-58.831055,59.386719-76.889648,77.573242-18.754883,17.756836-29.12207,27.634766-74.017578,72.121094-20.868164,19.155273-70.427734,65.529297c-.110352.100586-.229492.198242-.354492.288086l-31.371094,22.388672c-.209961.149414-.436523.275391-.670898.374023l-22.441406,9.475586c-.202148.084961-.411133.151367-.623047.196289l-25.634766,5.521484-11.606445,3.706055-15.105469,4.414062-9.777344,3.462891-2.227539.887695c-.243164.097656-.498047.166992-.756836.207031l-1.629883.253906c-.107422.016602-.219727.029297-.332031.035156l-1.606445.09375c-.064453.00293-.131836.004883-.199219.004883ZM2620.736328,1029.633789l-55.93457-52.967773-101.128906-111.048828-74.152344,48.644531-25.129883,14.890625-17.280273,8.59082-10.438477-19.166016,1.18457-3.961914c.203125-.677734.601562-1.271484,1.151367-1.717773l10.426758-8.441406c.09668-.079102.200195-.154297.307617-.222656l49.351562-31.739258,39.777344-25.953125,15.353516-10.798828,17.290039-12.597656,39.317383-29.047852,19.853516-14.960938,13.813477-11.886719,15.848633-15.021484,78.140625-80.223633,14.378906-19.143555,15.071289-19.307617,19.541016-23.832031,50.457031-76.600586,13.90918-26.928711,141.955078,121.231445,25.354492,27.044922,15.711914,19.083008,48.896484,69.692383,4.001953,25.152344,3.671875,2.449219,23.979492,37.420898-324.258789,282.092773-70.421875-60.724609Z"/>
    <path class="st3" d="M2690.944824,448.758972l40.374512,39.481995-21.185303,22.584076-25.773193,26.611542-58.842041,59.397827-76.800293,77.485718-.05542.054138-18.757324,17.759155-29.149902,27.661316-73.924072,72.033386-.044189.04187-20.884766,19.171021-70.415283,65.516235c-.06543.060608-.136719.11853-.206787.168823l-31.37207,22.389221c-.121094.086304-.25.158386-.38623.215698l-22.439209,9.474182c-.115723.048767-.234619.086365-.357422.112671l-25.5625,5.505859-.142334.030701-.138428.04425-11.551514,3.688232-.032471.01062-15.022461,4.387695-.081299.023743-.079834.02832-9.697266,3.437561-.055664.019714-.054443.02179-2.168701.865784c-.140869.056091-.286865.096191-.435791.119202l-1.62207.252686c-.062744.009644-.125977.017212-.199707.02124l-1.597168.092529c-.039062.002258-.078125.003296-.117188.003296-.297363,0-.583252-.063171-.849609-.187683l-2.192383-1.024841c-.250732-.117065-.470947-.282166-.65332-.488708l-1.428223-1.620972c-.088623-.101013-.166992-.209839-.232666-.322571l-.965576-1.662231c-.062012-.106384-.114746-.221436-.15625-.3396l-.648438-1.8526c-.058105-.165039-.093994-.339172-.106934-.514343l-.103516-1.438293c-.005371-.077209-.007812-.154846-.004395-.236084l.0625-1.548706c.014404-.354065.121826-.697998.310791-.994751l1.101318-1.730957c.014893-.023804.031006-.046509.051025-.074463l1.346924-1.868225c.07373-.102295.157959-.198242.251953-.286316l1.732178-1.625183c.023193-.021973.047119-.043091.081055-.071045l6.168945-5.123047.053955-.044983.052002-.047363,20.114746-18.364441,45.972168-40.082703,28.657227-24.952148.025146-.02179.024414-.0224,13.744385-12.513306,42.455078-39.881775.048096-.045166.046143-.04718,13.049805-13.384705,83.78125-82.217773,25.257812-25.293762.031494-.030823.015381-.015198,63.896973-61.025085,90.894531-89.170898.032471-.031708.03125-.032593,31.029297-32.332397,15.798828-16.143066M2690.898193,444.517426l-17.89624,18.286316-31.049805,32.353455-90.894531,89.170929-63.868164,60.99707c-.029297.027283-.056641.055725-.084961.083008l-25.270508,25.306641-83.759766,82.196289c-.026367.025391-.052734.051758-.078125.078125l-13.018555,13.353516-42.455078,39.881775-13.709961,12.481445-28.657227,24.952148-45.973633,40.083984c-.029297.025391-.058594.051758-.086914.078186l-20.079102,18.33197-6.168945,5.123047c-.078125.064392-.15332.130859-.226562.200195l-1.722656,1.616211c-.234375.219666-.447266.461914-.634766.722595l-1.344727,1.865234c-.056641.078186-.111328.158264-.163086.241211l-1.086914,1.708008c-.473633.744141-.741211,1.600586-.777344,2.482422l-.0625,1.550781c-.007812.186523-.003906.374023.008789.560547l.104492,1.450256c.032227.440369.12207.875916.268555,1.292908l.647461,1.849609c.104492.297852.236328.584961.395508.858398l.963867,1.659241c.164062.282227.355469.547852.571289.793945l1.432617,1.625977c.455078.515625,1.011719.932617,1.634766,1.223633l2.191406,1.024414c.665283.311096,1.388184.469971,2.120117.469971.095215,0,.190674-.002686.286133-.008057l1.601562-.092773c.161133-.008789.321289-.026367.480469-.050781l1.629883-.253906c.371094-.057617.734375-.157227,1.083008-.295959l2.171875-.867188,9.697266-3.437561,15.022461-4.387695c.039062-.011658.079102-.024414.118164-.037109l11.537109-3.683594,25.5625-5.505859c.305664-.06543.604492-.160156.891602-.28125l22.44043-9.474609c.338867-.142639.661133-.323242.959961-.536133l31.374023-22.390625c.175781-.125977.34375-.262695.501953-.40918l70.420898-65.521545,20.870117-19.157227c.037109-.03418.073242-.068298.108398-.102539l73.924805-72.03418,29.121094-27.633789,18.754883-17.756836c.039062-.036133.076172-.073242.114258-.111328l76.80957-77.495178,58.842773-59.398376,25.796875-26.635742,23.228516-24.761719-44.619385-43.632996h0v.000275ZM2752.309814,508.560883l140.453125,119.948151,25.232178,26.914368,15.676758,19.036011,48.665039,69.361511,3.843994,24.162598.206299,1.29657,1.092285.728271,2.865479,1.910278,23.110107,36.065796-322.300781,280.389465-69.38501-59.8302-55.895752-52.929565-100.229736-110.060364-1.723389-1.892456-2.140137,1.403931-73.024658,47.904114-25.081543,14.86438-15.9375,7.923279-9.44873-17.348572,1.004639-3.361023c.116455-.38855.344727-.728882.658691-.983459l10.422852-8.439087c.056885-.046021.115967-.0896.18042-.13092l49.366943-31.749023,39.769531-25.947266.043945-.028625.042969-.030212,15.350098-10.798645,17.285645-12.594727,39.332275-29.059021,19.842773-14.953064.077881-.058716.073975-.063538,13.737061-11.825195.054688-.046936.052246-.049561,15.794922-14.973633.043457-.041077.041748-.042908,78.03125-80.112244.134033-.137756.115479-.153748,14.304199-19.043762,15.101318-19.346069,19.438477-23.706055.099365-.121094.086182-.130859,50.371094-76.46875.087402-.132568.072754-.140991,13.003662-25.177155M2751.380859,503.822296l-14.740234,28.539032-50.371094,76.46875-19.438477,23.706116c-.025391.030273-.050781.061523-.075195.093689l-15.087891,19.330078-14.321289,19.066467-78.03125,80.112244-15.794922,14.973633-13.737305,11.825195-19.842773,14.953064-39.30957,29.041992-17.269531,12.583008-15.30957,10.769531-39.769531,25.947266-49.350586,31.738281c-.152344.097717-.299805.205078-.441406.319336l-10.426758,8.442322c-.782227.63385-1.355469,1.489258-1.644531,2.453186l-1.363281,4.560547,11.428711,20.983704,18.624023-9.258911,25.235596-14.95575,73.081787-47.941528,100.304688,110.142761,56.026611,53.053467,71.406006,61.572754,326.21582-283.79541-24.847168-38.776367-3.388184-2.258789-3.952881-24.846985-49.129395-70.023376-15.811768-19.200012-25.411621-27.105835-143.457031-122.513641h0v.000183Z"/>
  </g>
</svg>