<?xml version="1.0" encoding="UTF-8"?>
<svg xmlns="http://www.w3.org/2000/svg" xmlns:xlink="http://www.w3.org/1999/xlink" viewBox="0 0 3840 2160" width="3840" height="2160" preserveAspectRatio="xMidYMid meet" style="width: 100%; height: 100%; transform: translate3d(0px, 0px, 0px); content-visibility: visible;"><defs><clipPath id="__lottie_element_4"><rect width="3840" height="2160" x="0" y="0"/></clipPath></defs><g clip-path="url(#__lottie_element_4)"><g style="display: block;" transform="matrix(1,0,0,1,0.2620849609375,0.07562255859375)" opacity="1"><path fill="rgb(0,3,160)" fill-opacity="1" d=" M2899.317138671875,233.53199768066406 C2906.61767578125,225.38900756835938 2913.3759765625,217.48348999023438 2934.74609375,196.7812042236328 C2962.63330078125,168.89093017578125 3039.840087890625,73.62999725341797 3102.97998046875,0 C3102.97998046875,0 2531.55859375,-0.06806070357561111 2531.55859375,-0.06806070357561111 C2531.55859375,-0.06806070357561111 2520.891357421875,5.883863925933838 2501.178955078125,28.297178268432617 C2479.067626953125,52.991493225097656 2456.410888671875,74.9669189453125 2430.924560546875,106.99288177490234 C2403.4091796875,141.44683837890625 2338.64599609375,224.8140106201172 2325.414306640625,244.7783660888672 C2312.89208984375,263.89398193359375 2282.03173828125,313.7975158691406 2262.426025390625,340.004150390625 C2241.107177734375,368.7867736816406 2199.459716796875,453.0277404785156 2155.41357421875,504.1585693359375 C2110.052490234375,558.121337890625 2056.12744140625,645.9300537109375 1995.542724609375,711.932373046875 C1932.8922119140625,779.7697143554688 1831.8529052734375,876.8497924804688 1765.209228515625,935.6243896484375 C1701.237548828125,992.0399780273438 1646.3038330078125,1045.354248046875 1588.1064453125,1075.1090087890625 C1531.16015625,1103.94873046875 1470.633544921875,1122.1173095703125 1426.611328125,1136.678466796875 C1385.6192626953125,1150.6737060546875 1345.658935546875,1154.0986328125 1324.737060546875,1154.6231689453125 C1304.9051513671875,1155.0096435546875 1272.73974609375,1153.3856201171875 1253.6668701171875,1153.527099609375 C1234.4339599609375,1153.860595703125 1216.32470703125,1155.378662109375 1203.4027099609375,1157.5472412109375 C1191.9166259765625,1159.39990234375 1179.8370361328125,1160.120849609375 1175.8704833984375,1161.1864013671875 C1171.8648681640625,1162.2689208984375 1146.459716796875,1167.15771484375 1146.10595703125,1167.148681640625 C1145.770263671875,1167.1275634765625 1115.8712158203125,1175.6177978515625 1026.9752197265625,1176.4385986328125 C918.8131713867188,1178.3203125 709.1398315429688,1184.0062255859375 579.2835693359375,1185.8302001953125 C463.4832458496094,1186.810302734375 409.4199523925781,1191.9259033203125 366.11883544921875,1192.896484375 C325.72869873046875,1194.468017578125 304.6614685058594,1195.3228759765625 275.77490234375,1195.6090087890625 C247.50730895996094,1195.900146484375 220.661376953125,1197.3955078125 167.4563446044922,1201.0771484375 C110.22930908203125,1205.1087646484375 56.86000061035156,1208.0679931640625 0,1215.10791015625 C0,1215.10791015625 0,1472.034912109375 0,1472.034912109375 C0,1472.034912109375 55.6263427734375,1490.6002197265625 72.9167251586914,1495.2498779296875 C90.32411193847656,1499.6024169921875 108.86685943603516,1504.618408203125 149.2301483154297,1514.258544921875 C195.04742431640625,1525.7337646484375 250.87718200683594,1538.178466796875 346.4537353515625,1554.7916259765625 C448.66632080078125,1572.8758544921875 547.4506225585938,1596.8131103515625 739.1400146484375,1600.3726806640625 C939.1764526367188,1604.2552490234375 1218.52490234375,1565.4293212890625 1344.110595703125,1524.0369873046875 C1452.705322265625,1487.833740234375 1485.4427490234375,1473.67626953125 1513.405517578125,1460.370849609375 C1540.3753662109375,1448.3905029296875 1575.137451171875,1427.3544921875 1608.1351318359375,1410.3255615234375 C1644.5797119140625,1391.591552734375 1709.99169921875,1341.4468994140625 1744.287109375,1316.530029296875 C1775.302490234375,1293.0740966796875 1812.678955078125,1263.9945068359375 1824.7191162109375,1254.8414306640625 C1834.7713623046875,1247.009521484375 1844.7421875,1238.837646484375 1849.9615478515625,1235.0899658203125 C1855.1810302734375,1231.34228515625 1869.57080078125,1221.4925537109375 1870.0506591796875,1220.1219482421875 C1870.5645751953125,1218.654296875 1895.8734130859375,1199.7459716796875 1896.3443603515625,1199.3375244140625 C1896.7412109375,1198.97900390625 1919.119140625,1183.144775390625 1923.7213134765625,1179.91357421875 C1929.401611328125,1176.1173095703125 1946.622802734375,1164.5152587890625 1966.3656005859375,1150.94482421875 C1988.1412353515625,1135.9434814453125 2039.604248046875,1100.34423828125 2075.139892578125,1076.843994140625 C2111.5224609375,1052.7666015625 2167.91162109375,1016.3038940429688 2193.47119140625,1001.372802734375 C2214.419921875,986.931640625 2228.471435546875,977.2789306640625 2237.126708984375,971.7466430664062 C2245.09033203125,966.4694213867188 2254.0185546875,961.4193725585938 2261.2314453125,957.1468505859375 C2268.25732421875,952.1223754882812 2271.1767578125,951.6777954101562 2275.767822265625,949.05810546875 C2280.5908203125,946.3843994140625 2287.880126953125,942.6780395507812 2294.68115234375,939.2646484375 C2301.479248046875,935.771240234375 2309.02294921875,933.1785888671875 2314.380615234375,930.1048583984375 C2319.474365234375,927.076171875 2329.91064453125,921.5433959960938 2335.070068359375,918.760009765625 C2340.332275390625,915.7625732421875 2349.373046875,908.3265991210938 2357.350830078125,903.1561889648438 C2365.70166015625,897.4847412109375 2407.24365234375,870.9725952148438 2433.26611328125,853.9256591796875 C2463.287353515625,834.3247680664062 2492.852783203125,819.2286376953125 2552.149169921875,767.0534057617188 C2614.77734375,711.3181762695312 2747.333984375,541.4114379882812 2754.9248046875,511.6808776855469 C2757.73779296875,491.4273681640625 2748.275390625,490.9855651855469 2734.773193359375,496.6115417480469 C2711.7626953125,512.362548828125 2495.6083984375,718.2423095703125 2424.884033203125,788.138427734375 C2360.965576171875,851.1546020507812 2337.893798828125,869.4785766601562 2314.28125,881.87255859375 C2294.306884765625,892.0645141601562 2286.915283203125,898.2930908203125 2279.711669921875,901.092041015625 C2272.479248046875,903.9029541015625 2267.398681640625,906.8585205078125 2261.693115234375,909.8375244140625 C2255.279296875,912.9454956054688 2246.682373046875,916.2640991210938 2240.322998046875,918.3167114257812 C2234.0947265625,920.2133178710938 2224.390380859375,922.6964721679688 2219.55712890625,924.7103271484375 C2214.84912109375,926.732177734375 2204.44287109375,923.7097778320312 2202.749267578125,922.0139770507812 C2200.75048828125,919.9891967773438 2206.8984375,912.312744140625 2214.118408203125,906.522705078125 C2248.728515625,875.4927368164062 2285.043701171875,843.7835083007812 2325.282958984375,807.00341796875 C2366.7880859375,768.9513549804688 2416.840576171875,718.9881591796875 2497.517578125,640.9197387695312 C2586.009521484375,555.7222900390625 2799.916748046875,341.1835632324219 2827.510009765625,313.0140075683594 C2843.455078125,297.2684631347656 2853.714599609375,287.1683349609375 2858.6376953125,281.2607727050781 C2863.570556640625,275.3282165527344 2867.014404296875,270.08477783203125 2868.3955078125,268.1798095703125 C2869.7626953125,266.2978515625 2874.9306640625,260.00927734375 2878.07568359375,256.8642578125 C2881.40673828125,253.46722412109375 2882.589599609375,252.30870056152344 2886.684326171875,247.85140991210938 C2890.47509765625,243.49913024902344 2892.016357421875,241.6749725341797 2899.317138671875,233.53199768066406 C2899.317138671875,233.53199768066406 2899.317138671875,233.53199768066406 2899.317138671875,233.53199768066406z"/></g></g></svg>