<?xml version="1.0" encoding="UTF-8"?>
<svg xmlns="http://www.w3.org/2000/svg" xmlns:xlink="http://www.w3.org/1999/xlink" viewBox="0 0 3840 2160" width="3840" height="2160" preserveAspectRatio="xMidYMid meet" style="width: 100%; height: 100%; transform: translate3d(0px, 0px, 0px); content-visibility: visible;"><defs><clipPath id="__lottie_element_4"><rect width="3840" height="2160" x="0" y="0"/></clipPath></defs><g clip-path="url(#__lottie_element_4)"><g style="display: block;" transform="matrix(1,0,0,1,0.2620849609375,0.07562255859375)" opacity="1"><path fill="rgb(0,3,160)" fill-opacity="1" d=" M3193.549072265625,80.77912902832031 C3201.656005859375,69.57255554199219 3211.223876953125,57.00883865356445 3215.687255859375,51.253929138183594 C3220.150390625,45.4990234375 3238.151611328125,22.738988876342773 3252.974365234375,-0.07562299817800522 C3252.974365234375,-0.07562299817800522 2417.900634765625,-0.07562299817800522 2417.900634765625,-0.07562299817800522 C2417.900634765625,-0.07562299817800522 2404.366455078125,13.401331901550293 2382.96337890625,38.88942337036133 C2361.560302734375,64.37751007080078 2353.3486328125,85.26703643798828 2332.656494140625,114.27198791503906 C2311.96435546875,143.2769317626953 2289.937744140625,177.69049072265625 2277.07275390625,197.23931884765625 C2264.207763671875,216.78814697265625 2226.5224609375,274.5337219238281 2206.029541015625,302.0066223144531 C2185.536376953125,329.47955322265625 2135.632080078125,409.3770751953125 2090.548095703125,467.6751708984375 C2045.46435546875,525.9732666015625 1997.4515380859375,605.5661010742188 1931.399169921875,672.8193359375 C1865.346923828125,740.0725708007812 1816.6771240234375,781.803955078125 1751.206298828125,839.2835083007812 C1685.7354736328125,896.7630615234375 1626.7000732421875,955.53515625 1568.8836669921875,984.9451904296875 C1511.0672607421875,1014.355224609375 1474.759765625,1033.1968994140625 1420.4417724609375,1046.5860595703125 C1366.123779296875,1059.9752197265625 1341.18359375,1066.4637451171875 1317.3873291015625,1071.2432861328125 C1293.591064453125,1076.0228271484375 1268.62060546875,1080.571044921875 1248.626953125,1082.8536376953125 C1228.6331787109375,1085.1361083984375 1210.4677734375,1088.717041015625 1197.4720458984375,1089.7166748046875 C1184.476318359375,1090.71630859375 1146.6815185546875,1095.7977294921875 1137.351318359375,1096.464111328125 C1128.02099609375,1097.130615234375 1082.508544921875,1101.6329345703125 1071.989013671875,1101.70166015625 C1061.4693603515625,1101.7705078125 982.3333740234375,1112.3038330078125 883.5877685546875,1113.222412109375 C784.8421630859375,1114.1409912109375 694.3526611328125,1120.4962158203125 571.5145263671875,1121.528564453125 C448.67645263671875,1122.560791015625 403.71490478515625,1125.2899169921875 361.3925476074219,1126.8382568359375 C319.0701904296875,1128.3865966796875 288.9917297363281,1128.796875 255.61529541015625,1130.24853515625 C222.2388458251953,1131.7003173828125 185.8010711669922,1133.442626953125 134.98800659179688,1133.94287109375 C84.17493438720703,1134.443115234375 38.442970275878906,1134.633544921875 -0.2620350122451782,1137.551025390625 C-0.2620350122451782,1137.551025390625 -0.1729431003332138,1550.0616455078125 -0.1729431003332138,1550.0616455078125 C-0.1729431003332138,1550.0616455078125 15.807202339172363,1558.10107421875 35.090415954589844,1564.6123046875 C54.37363052368164,1571.12353515625 80.92437744140625,1582.200927734375 122.57443237304688,1593.8380126953125 C164.2244873046875,1605.4749755859375 187.76820373535156,1612.0745849609375 261.231201171875,1628.4725341796875 C334.6941833496094,1644.8704833984375 438.3447570800781,1666.8773193359375 559.384765625,1682.126953125 C680.4248046875,1697.3765869140625 764.5502319335938,1687.5675048828125 921.7059936523438,1680.443115234375 C1078.8616943359375,1673.3187255859375 1148.4342041015625,1654.009521484375 1247.8087158203125,1634.3455810546875 C1347.18310546875,1614.681640625 1413.7667236328125,1592.0389404296875 1464.126220703125,1577.1329345703125 C1514.4857177734375,1562.226806640625 1572.0433349609375,1534.0233154296875 1631.023193359375,1508.7462158203125 C1690.0029296875,1483.46923828125 1758.0498046875,1441.7518310546875 1795.363525390625,1416.474853515625 C1832.67724609375,1391.19775390625 1858.9664306640625,1375.2159423828125 1864.7657470703125,1371.052001953125 C1870.56494140625,1366.887939453125 1899.7791748046875,1349.08349609375 1905.94970703125,1344.08447265625 C1912.120361328125,1339.0853271484375 1935.052490234375,1325.334228515625 1941.21923828125,1320.0306396484375 C1947.3858642578125,1314.7271728515625 1976.510009765625,1297.613037109375 1981.6114501953125,1294.0338134765625 C1986.7127685546875,1290.45458984375 2001.849365234375,1281.4376220703125 2022.6123046875,1267.1572265625 C2043.3753662109375,1252.8768310546875 2048.68408203125,1251.1990966796875 2084.643798828125,1227.410888671875 C2120.603271484375,1203.622802734375 2129.813232421875,1195.91162109375 2153.204833984375,1181.2481689453125 C2176.5966796875,1166.584716796875 2198.046630859375,1151.4427490234375 2206.77490234375,1146.205810546875 C2215.503173828125,1140.9688720703125 2229.285400390625,1132.2938232421875 2244.44482421875,1122.93115234375 C2259.604248046875,1113.5684814453125 2270.851318359375,1105.33447265625 2277.611572265625,1101.954345703125 C2284.37158203125,1098.5743408203125 2293.6728515625,1092.568603515625 2301.487548828125,1087.7261962890625 C2309.302490234375,1082.8837890625 2318.075439453125,1077.37890625 2323.735107421875,1074.013671875 C2329.394775390625,1070.6484375 2338.024658203125,1066.4107666015625 2343.757080078125,1063.318115234375 C2349.48974609375,1060.2254638671875 2359.511474609375,1055.019775390625 2381.1474609375,1042.2330322265625 C2402.783447265625,1029.4461669921875 2421.19677734375,1017.7247314453125 2448.694091796875,999.727783203125 C2476.191162109375,981.7307739257812 2495.1328125,972.4715576171875 2537.95361328125,940.75244140625 C2580.7744140625,909.0333251953125 2616.388916015625,877.9328002929688 2639.38525390625,858.9013671875 C2662.381591796875,839.869873046875 2709.83203125,794.6946411132812 2724.854248046875,776.0324096679688 C2739.87646484375,757.3701171875 2765.325927734375,722.3959350585938 2783.41650390625,693.3441162109375 C2801.50732421875,664.292236328125 2828.83154296875,631.7607421875 2840.069091796875,607.91796875 C2851.306396484375,584.0751342773438 2864.671875,558.2883911132812 2870.265625,539.0598754882812 C2875.859375,519.8314208984375 2887.058837890625,496.06353759765625 2890.904541015625,484.5264587402344 C2894.750244140625,472.9893798828125 2902.64013671875,457.3966064453125 2908.0732421875,444.15338134765625 C2913.50634765625,430.91015625 2919.9345703125,416.90283203125 2926.55615234375,402.8321228027344 C2933.177490234375,388.76141357421875 2948.875732421875,365.5399169921875 2955.4970703125,358.0906982421875 C2962.11865234375,350.6415100097656 2968.289794921875,341.43475341796875 2977.4296875,330.3362121582031 C2986.56982421875,319.2376708984375 2995.564208984375,310.6155700683594 3006.051025390625,298.5712890625 C3016.537841796875,286.5270080566406 3026.170654296875,276.7072448730469 3036.805908203125,265.41424560546875 C3047.44140625,254.12123107910156 3055.68017578125,245.74644470214844 3067.25830078125,232.9998779296875 C3078.83642578125,220.25332641601562 3083.56884765625,215.3961181640625 3089.7529296875,207.66604614257812 C3095.93701171875,199.9359893798828 3103.501220703125,191.43223571777344 3108.400634765625,184.6158447265625 C3113.2998046875,177.79945373535156 3125.796630859375,164.9390411376953 3132.73193359375,155.78445434570312 C3142.090087890625,143.74600219726562 3159.07177734375,124.2087631225586 3163.781982421875,117.65535736083984 C3168.4921875,111.1019515991211 3185.442138671875,91.98570251464844 3193.549072265625,80.77912902832031 C3193.549072265625,80.77912902832031 3193.549072265625,80.77912902832031 3193.549072265625,80.77912902832031z"/></g></g></svg>