<?xml version="1.0" encoding="UTF-8"?>
<svg xmlns="http://www.w3.org/2000/svg" xmlns:xlink="http://www.w3.org/1999/xlink" viewBox="0 0 3840 2160" width="3840" height="2160" preserveAspectRatio="xMidYMid meet" style="width: 100%; height: 100%; transform: translate3d(0px, 0px, 0px); content-visibility: visible;"><defs><clipPath id="__lottie_element_4"><rect width="3840" height="2160" x="0" y="0"/></clipPath></defs><g clip-path="url(#__lottie_element_4)"><g style="display: block;" transform="matrix(1,0,0,1,0.2620849609375,0.07562255859375)" opacity="1"><path fill="rgb(0,3,160)" fill-opacity="1" d=" M2889.473876953125,236.54888916015625 C2893.52978515625,232.02500915527344 2902.982177734375,225.34860229492188 2914.8544921875,213.8473358154297 C2959.311767578125,166.40606689453125 3039.840087890625,73.62999725341797 3102.97998046875,0 C3102.97998046875,0 2544.328125,-0.03781149908900261 2544.328125,-0.03781149908900261 C2544.328125,-0.03781149908900261 2532.512939453125,9.086590766906738 2521.561767578125,21.538433074951172 C2498.615478515625,45.3952751159668 2465.014892578125,78.25273132324219 2442.2958984375,107.47159576416016 C2409.431640625,148.83045959472656 2343.021240234375,233.4459686279297 2328.323486328125,255.07241821289062 C2317.17236328125,272.45526123046875 2294.173095703125,319.5008544921875 2278.11669921875,340.6423034667969 C2253.4951171875,374.66375732421875 2199.38427734375,468.8420715332031 2160.976318359375,512.8214111328125 C2115.99365234375,570.9607543945312 2064.012939453125,653.574462890625 2007.5015869140625,715.8468627929688 C1940.66015625,787.2942504882812 1842.3760986328125,878.3787841796875 1771.0406494140625,942.3335571289062 C1713.0653076171875,994.4933471679688 1657.1553955078125,1049.3968505859375 1597.5657958984375,1080.4427490234375 C1544.231201171875,1106.9136962890625 1475.0452880859375,1133.4473876953125 1427.2196044921875,1147.7413330078125 C1394.5440673828125,1159.205322265625 1344.8682861328125,1162.1436767578125 1322.59619140625,1163.1195068359375 C1305.77392578125,1163.4053955078125 1276.6865234375,1161.8719482421875 1260.365966796875,1160.932861328125 C1243.2454833984375,1160.9537353515625 1216.922607421875,1165.2503662109375 1203.3614501953125,1167.859619140625 C1196.9803466796875,1168.8887939453125 1183.1761474609375,1172.2894287109375 1180.972412109375,1172.88134765625 C1178.5738525390625,1173.558349609375 1164.277587890625,1176.3232421875 1163.8900146484375,1176.3448486328125 C1163.5924072265625,1176.306396484375 1136.359619140625,1182.64990234375 1086.86181640625,1183.0792236328125 C941.0339965820312,1188.8134765625 732.1132202148438,1191.843505859375 574.1842041015625,1196.8345947265625 C486.53515625,1197.605712890625 410.2821960449219,1204.603271484375 363.0660095214844,1203.262451171875 C330.40484619140625,1204.9266357421875 303.1319274902344,1206.6904296875 276.7638244628906,1206.5028076171875 C253.49072265625,1206.340087890625 228.2918701171875,1209.241943359375 191.42686462402344,1213.1983642578125 C134.45184326171875,1218.9049072265625 56.86000061035156,1226.442138671875 0,1233.482177734375 C0,1233.482177734375 0,1457.1572265625 0,1457.1572265625 C0,1457.1572265625 79.50797271728516,1481.3067626953125 89.11373901367188,1483.889892578125 C99.30450439453125,1484.988037109375 110.7971420288086,1486.3924560546875 134.78562927246094,1492.30810546875 C186.04412841796875,1507.3988037109375 260.0206604003906,1525.4813232421875 339.5054016113281,1541.168701171875 C452.170166015625,1564.2110595703125 569.1436767578125,1584.7672119140625 732.8822631835938,1588.4825439453125 C938.3558349609375,1593.8128662109375 1190.3138427734375,1558.0518798828125 1350.0748291015625,1506.88720703125 C1424.8807373046875,1481.6676025390625 1480.3037109375,1460.202392578125 1508.274169921875,1443.3837890625 C1531.2796630859375,1433.1903076171875 1563.0941162109375,1415.4947509765625 1589.2261962890625,1401.9320068359375 C1632.5931396484375,1379.84423828125 1699.1331787109375,1333.4749755859375 1740.3372802734375,1306.232177734375 C1765.141357421875,1286.2945556640625 1812.635009765625,1251.6324462890625 1828.1595458984375,1240.6763916015625 C1833.744140625,1236.3253173828125 1844.6923828125,1227.5675048828125 1847.592041015625,1225.4854736328125 C1850.49169921875,1223.403564453125 1859.5615234375,1214.85595703125 1859.828125,1214.094482421875 C1860.2647705078125,1212.8480224609375 1874.600830078125,1201.969970703125 1875.2313232421875,1201.4764404296875 C1875.4918212890625,1201.2327880859375 1898.08837890625,1185.1204833984375 1900.694091796875,1183.2808837890625 C1908.689697265625,1178.6162109375 1939.8304443359375,1155.37060546875 1955.491943359375,1144.6405029296875 C1981.3184814453125,1126.7552490234375 2035.6512451171875,1090.964599609375 2069.490966796875,1068.615478515625 C2107.56591796875,1043.3814697265625 2174.5732421875,999.2799682617188 2208.803955078125,983.2781982421875 C2219.97998046875,969.7265014648438 2228.790771484375,964.7549438476562 2237.15478515625,958.04150390625 C2242.05908203125,952.6029663085938 2251.7880859375,946.9041137695312 2257.128662109375,947.8860473632812 C2261.533935546875,945.1079711914062 2270.587158203125,943.8121337890625 2273.35107421875,942.3389282226562 C2277.27490234375,940.5957641601562 2282.515625,939.8078002929688 2287.151611328125,938.6492309570312 C2291.77294921875,937.0906982421875 2306.852783203125,933.9169921875 2311.002685546875,932.0093994140625 C2313.83251953125,930.3267822265625 2332.20361328125,920.3063354492188 2335.070068359375,918.760009765625 C2338.451416015625,916.1436767578125 2343.4560546875,910.4658813476562 2348.7861328125,906.9756469726562 C2355.98095703125,900.9804077148438 2399.65966796875,873.5003662109375 2417.7255859375,861.6253662109375 C2455.786376953125,836.9804077148438 2495.882568359375,811.8959350585938 2548.32275390625,766.6430053710938 C2617.423095703125,703.590087890625 2727.905517578125,566.8330078125 2753.358154296875,508.196044921875 C2754.921142578125,496.944091796875 2742.615234375,489.73419189453125 2735.114013671875,492.8597412109375 C2680.07275390625,546.6102905273438 2510.33349609375,708.974609375 2426.64208984375,790.7880249023438 C2376.98095703125,838.2014770507812 2339.314208984375,874.1947631835938 2310.02734375,890.866943359375 C2298.930419921875,896.5291748046875 2284.8505859375,904.1984252929688 2280.8486328125,905.7533569335938 C2276.70166015625,907.3683471679688 2273.74609375,909.0547485351562 2270.44287109375,910.7363891601562 C2263.599609375,913.0630493164062 2248.632568359375,917.1600341796875 2242.0283203125,919.5492553710938 C2236.079345703125,921.1585083007812 2224.59033203125,924.5913696289062 2219.505126953125,926.5768432617188 C2215.045166015625,928.602294921875 2206.783935546875,927.0609741210938 2204.30078125,924.5677490234375 C2200.29248046875,920.4295654296875 2204.121337890625,912.6492919921875 2211.34130859375,906.8593139648438 C2245.951416015625,875.8292846679688 2286.3798828125,840.915283203125 2324.068359375,806.65966796875 C2368.086669921875,766.0440673828125 2427.70703125,706.4912109375 2492.94091796875,642.8798828125 C2597.249755859375,543.6234741210938 2774.59375,364.2752990722656 2841.692138671875,293.40777587890625 C2850.550537109375,284.6602478027344 2860.192626953125,270.1690673828125 2862.927490234375,266.8871154785156 C2865.712646484375,263.4801330566406 2867.68359375,260.4604187011719 2868.51318359375,259.2998962402344 C2869.272705078125,258.2543640136719 2872.596923828125,254.02737426757812 2874.34423828125,252.28013610839844 C2877.021484375,249.2729034423828 2878.84326171875,247.44261169433594 2882.468994140625,244.4996795654297 C2884.574951171875,242.0817413330078 2885.41796875,241.07276916503906 2889.473876953125,236.54888916015625 C2889.473876953125,236.54888916015625 2889.473876953125,236.54888916015625 2889.473876953125,236.54888916015625z"/></g></g></svg>