<?xml version="1.0" encoding="UTF-8"?>
<svg id="Ebene_1" xmlns="http://www.w3.org/2000/svg" xmlns:serif="http://www.serif.com/" version="1.1" viewBox="0 0 3840 2160">
  <!-- Generator: Adobe Illustrator 30.1.0, SVG Export Plug-In . SVG Version: 2.1.1 Build 136)  -->
  <defs>
    <style>
      .st0 {
        fill: #0004a0;
      }
    </style>
  </defs>
  <path class="st0" d="M2872.237305,248.426758l148.133789-161.946777L3096.276856.001722h-532.184501l-13.041574,12.489489-16.660156,16.787598-59.110352,58.418945-38.177734,46.038086-31.907227,41.66748-26.015625,35.798828c-.033203.045898-.068359.091309-.103516.13623l-22.695312,29.085938c-.027344.035645-.055664.071289-.083984.105957l-33.217773,40.268555-21.513672,51.978027c-.087891.211426-.189453.416992-.305664.614746l-11.706055,19.98877c-.061523.105469-.125977.20752-.195312.307129l-88.701172,128.94043-20.826172,29.294922c-.078125.109375-.161133.216797-.248047.320312l-18.548828,22.066406-43.90918,63.893555-33.917969,48.050781-27.126953,37.864258c-.080078.111328-.165039.219727-.253906.325195l-37.414062,44.043945c-.041992.048828-.084961.097656-.12793.144531l-20.75,22.591797c-.0625.068359-.125977.133789-.192383.198242l-32.869141,32.049805-37.785156,35.49707-76.22168,70.479492-27.058594,26.307617c-.05957.057617-.121094.114258-.183594.169922l-43.588867,38.328125-29.657227,28.532227c-.035156.033203-.071289.067383-.107422.099609l-48.564453,44.046875c-.079102.072266-.161133.141602-.244141.208008l-42.541016,33.881836c-.094727.075195-.191406.146484-.290039.214844l-22.99707,15.744141c-.087891.060547-.178711.118164-.270508.172852l-22.93457,13.621094c-.133789.080078-.272461.15332-.414062.220703l-43.952148,20.799805c-.047852.022461-.095703.043945-.143555.06543l-91.482422,39.811523c-.181641.079102-.369141.147461-.55957.204102l-42.166016,12.641602c-.120117.035156-.241211.066406-.363281.09375l-34.073242,7.480469c-.246094.053711-.49707.089844-.749023.105469l-71.757812,4.652344c-.138672.008789-.280273.015625-.416016.009766l-25.539062-.476562c-.155273-.00293-.30957-.012695-.463867-.030273l-24.879883-2.787109-20.667969,1.450195-43.017578,8.99707-15.731445,6.692383c-.387695.164062-.795898.280273-1.212891.342773l-24.029297,3.618164c-.117188.017578-.234375.03125-.352539.040039l-23.483398,1.842773c-.070312.005859-.139648.009766-.208984.012695l-173.316406,6.344727-155.914062,3.955078-124.768555,3.952148-294.739258,11.481445c-.200195.008789-.400879.003906-.602051-.012695l-18.056152-1.473633-39.881348,2.993164c-.04834.00293-.096191.005859-.144043.007812l-20.151367.929688c-.067871.003906-.135254.004883-.202637.005859l-19.899902.111328-18.64209.490234-17.297363,3.019531-20.051758,4.62793c-.13623.03125-.274414.057617-.413086.077148l-17.194336,2.47168c-.046875.006836-.094238.012695-.141113.018555l-22.488281,2.581055-15.416992,2.536133c-.0625.010742-.124512.019531-.187012.027344L-.001238,1264.233215l.001238,168.346441,132.85791,38.64886,1.42041-2.466797c1.175781-2.041016,3.618652-2.985352,5.860352-2.265625l48.633301,15.604492,106.090332,28.300781,56.59375,14.103516,79.424316,16.785156,70.727051,11.392578,66.078613,7.53125,66.264648,6.380859,40.019531,3.544922,66.472168,2.323242,27.382812.993164,88.697266-1.00293,19.128906-1.040039,23.03125-1.849609c.076172-.005859.152344-.009766.228516-.012695l29.739258-1.021484,11.819336-.823242,42.049805-4.322266,36.174805-3.794922,23.852539-3.307617,49.726562-7.162109,43.665039-6.864258,23.507812-6.213867c.079102-.020508.158203-.040039.238281-.056641l60.716797-12.895508,67.369141-15.977539,10.056641-2.836914,94.390625-29.708008,95.777344-40.495117,18.333008-12.689453c.165039-.113281.335938-.217773.512695-.311523l2.420898-1.276367c.09668-.050781.195312-.099609.295898-.143555l24.509766-10.927734,5.522461-2.682617,29.532227-15.088867,5.799805-3.079102c.15625-.083984.316406-.158203.481445-.223633l10.460938-4.199219,46.466797-28.31543c.041992-.025391.083984-.050781.126953-.075195l21.790039-12.410156,32.125-18.035156,52.948242-32.601562,21.452148-18.283203c.113281-.095703.229492-.1875.351562-.272461l82.883789-58.768555,2.318359-6.691406c.334961-.966797.958984-1.807617,1.787109-2.40918l22.513672-16.34082,69.044922-50.276367c.027344-.019531.054688-.039062.083008-.05957l23.858398-16.639648c.073242-.051758.148438-.100586.223633-.148438l23.584961-14.632812,47.739258-31,9.610352-6.03125,44.902344-29.551758,61.700195-40.31543c.105469-.069336.214844-.134766.326172-.196289l40.216797-22.099609c.101562-.055664.205078-.108398.310547-.157227l21.070312-9.740234,17.128906-22.019531c.007812-.145508.021484-.291016.041992-.435547l.084961-.603516c.037109-.265625.095703-.52832.175781-.78418l.1875-.604492c.129883-.417969.313477-.816406.546875-1.186523l.355469-.563477c.066406-.105469.137695-.209961.211914-.30957l.383789-.518555c.399414-.538086.902344-.990234,1.480469-1.330078l3.986328-2.34668c1.160156-.68457,2.548828-.87207,3.848633-.515625,1.299805.353516,2.402344,1.216797,3.057617,2.394531l.583008,1.048828,13.183594-.514648c.759766-.896484,1.820312-1.506836,3.00293-1.701172l1.767578-.291016c1.416016-.234375,2.864258.154297,3.975586,1.061523l2.910156,2.376953c.166016.135742.323242.28125.470703.4375l4.420898.182617,24.161133-3.685547,27.835938-15.462891,1.326172-4.474609c.286133-.96582.857422-1.823242,1.639648-2.458008l10.267578-8.349609c.140625-.115234.288086-.22168.44043-.320312l81.751953-52.832031,21.110352-14.917969,12.598633-9.177734,35.470703-26.325195,27.185547-20.466797,13.525391-11.694336,15.541992-14.797852,76.791016-79.18457,11.756836-15.838867.073242-.09668,19.348633-24.77832c.022461-.029297.044922-.057617.068359-.085938l16.881836-20.662109,49.515625-75.529297,5.514648-10.740234,8.651367-17.112305-15.400391-15.500977-22.716797,24.302734-25.037109,26.029297-92.94043,94.070312-41.220703,41.785156c-.036133.037109-.072266.073242-.109375.108398l-18.070312,17.223633-28.522461,27.110352-72.798828,71.106445c-.02832.027344-.056641.053711-.084961.080078l-20.751953,19.34082-69.313477,64.794922-12.056641,10.923828c-.313477.28418-.661133.526367-1.035156.722656l-20.1875,10.587891c-.167969.088867-.34082.166992-.518555.235352l-19.341797,7.482422c-.116211.044922-.233398.084961-.351562.12207l-26.960938,8.178711-9.40332,3.026367-4.422852,1.354492-12.602539,3.641602-11.834961,4.398438c-.385742.143555-.788086.238281-1.196289.283203l-3.1875.349609c-.90918.102539-1.825195-.050781-2.654297-.436523l-2.164062-1.006836c-.623047-.290039-1.179688-.705078-1.635742-1.220703l-1.416016-1.599609c-.209961-.238281-.396484-.495117-.558594-.767578l-.936523-1.583008c-.166016-.280273-.303711-.576172-.412109-.883789l-.660156-1.873047c-.178711-.508789-.275391-1.041992-.283203-1.581055l-.047852-2.959961c-.016602-1.027344.283203-2.03418.858398-2.883789l2.390625-3.53125c.206055-.304688.445312-.584961.712891-.836914l1.696289-1.597656c.072266-.068359.147461-.135742.224609-.199219l6.537109-5.455078,19.299805-17.736328c.029297-.026367.058594-.053711.088867-.080078l45.262695-39.638672,43.679688-38.818359,22.571289-21.723633,30.173828-29.21582,65.601562-65.189453c.024414-.023438.048828-.047852.073242-.070312l16.72168-15.954102,7.232422-7.489258,11.291016-11.459961c.035156-.035156.071289-.070312.107422-.105469l6.345703-6.063477,31.006836-28.726562,36.226562-35.90625,18.996094-18.919922,66.103516-64.90625,30.554688-31.978516c.025391-.026367.051758-.052734.077148-.079102l7.734375-7.745117,114.734375-118.96582,59.804688-63.724121,1.728516-6.445312c.115234-.430664.288086-.844727.512695-1.229492l7.237305-12.375977,1.493164-2.858398c.216797-.415527.492188-.798828.81543-1.137695l2.760742-2.889648c.341797-.358398.735352-.663574,1.166992-.90625l2.291016-1.286621c.249023-.140137.508789-.257812.777344-.353516l11.621094-4.119141Z"/>
</svg>