<?xml version="1.0" encoding="UTF-8"?>
<svg class="toggle" xmlns="http://www.w3.org/2000/svg" version="1.1" viewBox="0 0 165 165">
  <path class="toggle__backdrop" fill="#000126" d="M82.500999,159.459c42.514999,0,76.978996-34.456001,76.978996-76.959,0-42.5033-34.463997-76.95898-76.978996-76.95898C39.986401,5.54102,5.52148,39.9967,5.52148,82.5c0,42.502998,34.464921,76.959,76.979519,76.959Z"/>
  <path class="toggle__border" fill="#ffcdcc" d="M82.5,164.977997C36.994099,164.977997,0,127.972,0,82.477997,0,36.984299,37.016102,0,82.5,0s82.5,37.006302,82.5,82.5c0,45.494003-37.015999,82.5-82.5,82.5v-.022003ZM82.5,11.0601C43.108501,11.0601,11.041,43.097,11.041,82.477997s32.045498,71.417999,71.459,71.417999c39.413002,0,71.459-32.036995,71.459-71.417999S121.913002,11.0601,82.5,11.0601Z"/>
  <g>
    <path class="toggle__icon" fill="white" d="M83.107977,49.956528c.463367.463367,1.095199.716063,1.705928.716063.610818,0,1.242647-.231682,1.706014-.716063.947748-.947746.947748-2.485205,0-3.41194l-4.275456-4.275454c-.947745-.947728-2.485207-.947728-3.411938,0-.947748.947746-.947748,2.485298,0,3.41194l4.275452,4.275453Z"/>
    <path class="toggle__icon" fill="white" d="M107.182946,50.67259c.610811,0,1.242643-.231682,1.706014-.716063l4.275362-4.275453c.947838-.947746.947838-2.485207,0-3.41194-.947748-.947728-2.485204-.947728-3.411849,0l-4.275459,4.275454c-.947741.947746-.947741,2.485207,0,3.41194.463371.463367,1.095203.716063,1.705931.716063Z"/>
    <path class="toggle__icon" fill="white" d="M95.431579,48.608816c1.326788,0,2.421983-1.074094,2.421983-2.421987v-6.760688c0-1.326863-1.074092-2.422051-2.421983-2.422051-1.347988,0-2.42208,1.074121-2.42208,2.422051v6.781701c0,1.326881,1.074092,2.422078,2.42208,2.422078v-.021103Z"/>
    <path class="toggle__icon" fill="white" d="M130.517659,84.539748l-.230956-.210668c-.147634-.126351-.295269-.273802-.421164-.40015l-22.557064-22.535596s-.105338-.105244-.147448-.14736c-1.116216-.947838-2.42208-1.621783-3.812089-2.000828v-5.518103c0-1.326881-1.074099-2.421987-2.42208-2.421987h-10.972895c-1.326885,0-2.42208,1.074094-2.42208,2.421987v5.160072h-46.650689c-3.938482,0-7.139797,3.20127-7.139797,7.139705v42.817577c0,1.326884,1.074121,2.42208,2.422051,2.42208h6.318426c1.095107,4.801953,5.412678,8.403455,10.551647,8.403455s9.435435-3.601503,10.551738-8.403455h41.469693c1.095106,4.801953,5.412675,8.403455,10.551648,8.403455,5.139236,0,9.456812-3.601503,10.551828-8.424469,4.42263-.147448,7.982113-3.791074,7.982113-8.256097v-10.151496c0-3.138139-1.306051-6.149934-3.601144-8.298121h-.021739ZM53.033522,114.825869c-3.306606,0-5.98138-2.674775-5.98138-5.981472,0-3.3066,2.674774-5.981375,5.98138-5.981375s5.98138,2.674775,5.98138,5.981375c0,3.306697-2.674776,5.981472-5.98138,5.981472ZM71.525349,85.297927c0,1.053082-.863514,1.916596-1.916596,1.916596h-5.707581v5.70758c0,1.053078-.863514,1.916592-1.916593,1.916592h-5.62335c-1.05308,0-1.916596-.863514-1.916596-1.916592v-5.70758h-5.707579c-1.053082,0-1.916596-.863514-1.916596-1.916596v-5.623346c0-1.053082.863514-1.916596,1.916596-1.916596h5.707579v-5.70758c0-1.053082.863516-1.916596,1.916596-1.916596h5.62335c1.053079,0,1.916593.863514,1.916593,1.916596v5.70758h5.707581c1.053082,0,1.916596.863514,1.916596,1.916596v5.623346ZM90.585788,87.214523c-1.368995,0-2.46419-1.116302-2.46419-2.464193v-13.247522c0-.758269.610818-1.368998,1.368995-1.368998h8.845814c.863424,0,1.684821.336926,2.316653.947744l13.521416,13.521324c.652839.652932.463274,1.390098.336923,1.68491-.126344.294902-.505481.947748-1.432125.947748h-22.472381l-.021103-.021014ZM115.585587,114.825869c-3.306698,0-5.981473-2.674775-5.981473-5.981472,0-3.3066,2.674776-5.981375,5.981473-5.981375,3.306601,0,5.981743,2.674775,5.981743,5.981375,0,3.306697-2.675142,5.981472-5.981743,5.981472Z"/>
  </g>
</svg>