<svg width="98" height="99" viewBox="0 0 98 99" fill="none" xmlns="http://www.w3.org/2000/svg">
<path d="M65.4762 96.9821C67.2638 96.2681 68.9905 95.2889 70.4531 94.1465L72.2204 92.4125C73.9674 90.6784 74.9222 88.3936 74.9426 85.9251C74.9426 83.4771 74.0081 81.1514 72.2814 79.4174L63.8511 70.9513C62.1244 69.2172 59.8493 68.2788 57.4116 68.2788C54.9739 68.2788 52.6988 69.2376 50.9721 70.9513L50.5658 71.3593L47.3156 74.8273L46.0561 74.1133C42.1151 71.9101 37.8696 69.2376 33.4005 64.7495C28.7283 60.0574 26.0874 55.6102 23.9748 51.8157L23.3045 50.5917L27.0219 46.8584C30.5768 43.2883 30.5768 37.4946 27.0219 33.9246L18.8354 25.7032C17.1087 23.9692 14.8336 23.0308 12.3959 23.0308C9.95827 23.0308 7.62214 24.01 5.89546 25.7644L4.2297 27.4576C2.99055 29.0285 2.01549 30.7421 1.32482 32.5373C0.695085 34.2102 0.268502 35.8626 0.0653629 37.5966C0.00442109 38.0862 -0.401912 42.7579 1.91388 50.0613C4.94066 59.5882 11.0755 69.0336 20.1356 78.1322C35.9804 94.0445 47.6 99.8178 60.4994 98.247C62.1448 98.0634 63.7902 97.6554 65.5169 96.9821H65.4762Z" fill="#0004A0"/>
<path d="M68.8278 57.1211C62.6523 57.1211 56.6394 55.1014 51.7234 51.3886L43.3541 53.1022C42.2368 53.3266 41.0586 52.939 40.2867 52.0822C39.5147 51.2254 39.2709 50.0013 39.6163 48.8997L42.704 39.2707C41.5665 35.9251 40.3679 31.6818 40.3679 28.5605C40.3679 12.8114 53.1251 0 68.8074 0C84.4898 0 97.2469 12.8114 97.2469 28.5605C97.2469 44.3096 84.4898 57.1211 68.8074 57.1211H68.8278ZM52.5766 44.6156C53.3282 44.6156 54.0799 44.8808 54.669 45.3909C58.6302 48.7569 63.6477 50.5929 68.8278 50.5929C80.9349 50.5929 90.7871 40.6988 90.7871 28.5401C90.7871 16.3815 80.9349 6.48732 68.8278 6.48732C56.7206 6.48732 46.8684 16.3815 46.8684 28.5401C46.8684 30.4578 47.7419 34.0482 49.1842 38.1079C49.428 38.7811 49.4279 39.5155 49.2247 40.2092L47.4981 45.5745L51.9062 44.6768C52.1297 44.636 52.3328 44.6156 52.5563 44.6156H52.5766Z" fill="#0004A0"/>
<path d="M66.8365 39.9026H71.9759C72.951 39.9026 73.723 39.107 73.723 38.1482V32.9053H78.9436C79.9186 32.9053 80.6907 32.1097 80.6907 31.1509V25.9896C80.6907 25.0103 79.8983 24.2351 78.9436 24.2351H73.723V18.9922C73.723 18.013 72.9307 17.2378 71.9759 17.2378H66.8365C65.8615 17.2378 65.0896 18.0334 65.0896 18.9922V24.2351H59.8689C58.8938 24.2351 58.1016 25.0307 58.1016 25.9896V31.1509C58.1016 32.1301 58.8938 32.9053 59.8689 32.9053H65.0896V38.1482C65.0896 39.1274 65.8818 39.9026 66.8365 39.9026Z" fill="#0004A0"/>
</svg>
