<svg class="toggle" width="165" height="165" viewBox="0 0 165 165" fill="none" xmlns="http://www.w3.org/2000/svg">
<path class="toggle__backdrop" d="M82.501 159.459C125.016 159.459 159.48 125.003 159.48 82.5C159.48 39.9967 125.016 5.54102 82.501 5.54102C39.9864 5.54102 5.52148 39.9967 5.52148 82.5C5.52148 125.003 39.9864 159.459 82.501 159.459Z" fill="#000126"/>
<path class="toggle__border" d="M82.5 164.978C36.9941 164.978 0 127.972 0 82.478C0 36.9843 37.0161 0 82.5 0C127.984 0 165 37.0063 165 82.5C165 127.994 127.984 165 82.5 165V164.978ZM82.5 11.0601C43.1085 11.0601 11.041 43.097 11.041 82.478C11.041 121.859 43.0865 153.896 82.5 153.896C121.913 153.896 153.959 121.859 153.959 82.478C153.959 43.097 121.913 11.0601 82.5 11.0601Z" fill="#FFCDCC"/>
<path class="toggle__icon" d="M82.5013 28.6948C65.2799 28.6948 51.1816 42.7673 51.1816 59.9182C51.1816 66.5586 53.3151 72.7593 56.9001 77.8386L78.6743 115.483C81.7315 119.462 83.755 118.715 86.2843 115.263L110.302 74.3865C110.786 73.5069 111.16 72.5834 111.49 71.6159C113.007 67.8999 113.799 63.92 113.799 59.9182C113.799 42.7453 99.7007 28.6948 82.4793 28.6948H82.5013ZM82.5013 45.6258C90.4632 45.6258 96.7975 51.9584 96.7975 59.9182C96.7975 67.8779 90.4632 74.2106 82.5013 74.2106C74.5394 74.2106 68.2051 67.8779 68.2051 59.9182C68.2051 51.9584 74.5394 45.6258 82.5013 45.6258Z" fill="white"/>
<path class="toggle__icon" d="M65.6541 101.388C50.786 103.499 40.3828 108.512 40.3828 115.922C40.3828 125.883 57.7582 133.975 82.5016 133.975C107.245 133.975 124.62 125.905 124.62 115.922C124.62 108.512 114.217 103.499 99.3491 101.388L97.2816 104.906C108.499 106.467 116.197 109.722 116.197 113.526C116.197 118.847 101.109 123.156 82.5016 123.156C63.8945 123.156 48.8066 118.847 48.8066 113.526C48.8066 109.744 56.4605 106.489 67.6995 104.928C67.0177 103.763 66.3359 102.575 65.6541 101.41V101.388Z" fill="white"/>
</svg>
