<?xml version="1.0" encoding="UTF-8"?>
<svg id="Ebene_1" xmlns="http://www.w3.org/2000/svg" xmlns:xlink="http://www.w3.org/1999/xlink" version="1.1" viewBox="0 0 787.203186 259.375">
  <!-- Generator: Adobe Illustrator 30.1.0, SVG Export Plug-In . SVG Version: 2.1.1 Build 136)  -->
  <defs>
    <style>
      .drone {
        fill: #fff;
      }
    </style>
  </defs>
  <g class="drone">
    <path d="M476.749987,96.531248h23.065615c-39.410925,40.368748-39.410925-26.910925-66.320324,49.98126-49.017191,7.690477-30.756235,7.690477-79.779673,0-26.910925-76.892185-26.910925-9.612989-66.320324-49.98126h23.065615c0-27.874994,166.281223-26.910925,166.281223,0h.007868ZM293.171877,183.035946c9.612989,1.922655,17.303133,8.648729,19.226551,18.262482h28.832817v10.571241h-28.832817c-1.922655,9.612989-9.612989,16.339064-19.226551,18.262482v28.832817h-9.612989v-28.832817c-9.612989-1.922655-17.303133-8.648729-19.226551-18.262482h-28.832817v-10.571241h28.832817c1.922655-9.612989,9.612989-16.339064,19.226551-18.262482v-17.303133l-28.832817-7.690477c0-40.368748-2.880955-30.756235,25.951576-59.595299,45.178127,46.13595,42.29064-22.106266,68.243742,53.826571,57.671881,8.648729,31.720304,8.648729,89.392185,0,25.951576-75.934362,23.065615-7.690477,68.243742-53.826571,28.832817,28.832817,25.951576,19.226551,25.951576,59.595299l-28.832817,7.690477v17.303133c9.612989,1.922655,17.303133,8.648729,19.226551,18.262482h28.832817v10.571241h-28.832817c-1.922655,9.612989-9.612989,16.339064-19.226551,18.262482v28.832817h-9.612989v-28.832817c-9.612989-1.922655-17.303133-8.648729-19.226551-18.262482h-28.832817v-10.571241h28.832817c1.922655-9.612989,9.612989-16.339064,19.226551-18.262482v-15.380955l-61.517191,16.339064v27.874994h-77.856255v-27.874994l-61.517191-16.339064-.000572,15.380955ZM403.706259,181.113291c2.880955,2.880955,3.845167,7.690477,1.922655,12.493896,0-2.880955-1.922655-3.845167-3.845167-3.845167s-3.845167.958252-3.845167,2.880955c0,2.880955,1.922655,3.845167,3.845167,3.845167-.958252.958252-2.880955,1.922655-5.767822,1.922655-5.767822,0-10.571241-4.803419-10.571241-10.571241,0-.958252.958252-2.880955.958252-3.845167.958252,1.922655,2.880955,3.845167,5.767822,3.845167,2.880955,0,4.803419-1.922655,4.803419-4.803419s-.958252-3.845167-2.880955-4.803419c3.845167-.958252,6.726074,0,9.612989,2.880955l.000048-.000381ZM396.015781,173.422813c8.648729,0,15.380955,6.726074,15.380955,14.416552,0,8.648729-6.726074,15.380955-15.380955,15.380955-7.690477,0-14.416552-6.726074-14.416552-15.380955,0-7.690477,6.726074-14.416552,14.416552-14.416552ZM280.678267,93.643141c-1.922655.958252-2.880955,1.922655-3.845167,2.880955-57.671881,0-46.13595,8.648729-56.707811-48.059368-5.767822-.958252-9.612989-5.767822-9.612989-11.535645,0-6.726074,4.803419-11.535645,11.535645-11.535645,6.726074,0,11.535645,4.803419,11.535645,11.535645,0,3.845167-1.922655,7.690477-5.767822,9.612989,17.303133,36.523438,15.380955,28.832817,52.862501,47.095299v.00577ZM234.542316,37.893152v-3.845167c98.040628-7.690477,119.182825,13.4583,0,3.845167ZM208.59074,34.047985v3.845167c-67.284369,5.767822-77.856255-10.571241,0-3.845167ZM506.559509,93.643284c1.922655.958252,2.880955,1.922655,3.845167,2.880955,57.671881,0,46.13595,8.648729,56.707811-48.059368,5.767822-.958252,9.612942-5.767822,9.612942-11.535645,0-6.726074-4.803467-11.535645-11.535645-11.535645-5.767822,0-11.535645,4.803419-11.535645,11.535645,0,3.845167,1.922655,7.690477,5.767822,9.612989-17.303133,36.523438-15.380955,28.832817-52.862501,47.095299l.000048.00577ZM552.695459,37.893295v-3.845167c-98.040628-7.690477-119.182825,13.4583,0,3.845167ZM578.646988,34.048128v3.845167c67.284393,5.767822,77.856255-10.571241,0-3.845167ZM268.178219,102.29187c-22.106266,22.106266-19.226551,15.380955-19.226551,46.13595-85.546875-19.226551-96.118736-31.720304-112.4578-114.379692-7.690477-.958252-14.416552-7.690477-14.416552-16.339064,0-9.612989,7.690477-17.303133,17.303133-17.303133,9.612966,0,17.303133,7.690477,17.303133,17.303133,0,5.767822-2.880931,10.571241-7.690477,14.416552,26.910925,56.707811,52.862501,69.201565,119.182825,70.165634l.002289.00062ZM158.60166,19.632483v-6.726074c144.176579-11.535645,175.890636,20.184374,0,6.726074ZM120.156354,12.906408v6.726074C-24.020201,31.168127-55.734271-.551891,120.156354,12.906408ZM519.046968,102.298594c22.106266,22.106266,19.226551,15.380955,19.226551,46.13595,87.468767-20.184374,97.076559-36.523438,112.4578-114.379692,7.69043-.958252,14.416599-7.690477,14.416599-16.339064,0-9.612989-7.69043-17.303133-17.303085-17.303133-9.612942,0-17.303085,7.690477-17.303085,17.303133,0,5.767822,2.880955,10.571241,7.69043,14.416552-27.875042,59.595299-55.749989,69.201565-119.182825,70.165634l-.002384.00062ZM628.623528,19.639206v-6.726074c-144.176579-11.535645-175.890636,20.184374,0,6.726074ZM667.06881,12.913132v6.726074c144.176579,11.535645,175.890636-20.184374,0-6.726074Z"/>
  </g>
</svg>