<svg class="toggle" width="165" height="165" viewBox="0 0 165 165" fill="none" xmlns="http://www.w3.org/2000/svg">
<path class="toggle__backdrop" d="M82.501 159.437C125.016 159.437 159.48 124.981 159.48 82.478C159.48 39.9747 125.016 5.51904 82.501 5.51904C39.9864 5.51904 5.52148 39.9747 5.52148 82.478C5.52148 124.981 39.9864 159.437 82.501 159.437Z" fill="#000126"/>
<path class="toggle__border" d="M82.5 164.978C36.9942 164.978 0 127.972 0 82.478C0 36.9843 36.9942 0 82.5 0C128.006 0 165 37.0063 165 82.5C165 127.994 127.984 165 82.5 165V164.978ZM82.5 11.0601C43.1085 11.0601 11.041 43.097 11.041 82.478C11.041 121.859 43.0865 153.896 82.5 153.896C121.914 153.896 153.959 121.859 153.959 82.478C153.959 43.097 121.914 11.0601 82.5 11.0601Z" fill="#FFCDCC"/>
<path class="toggle__icon" d="M97.6966 138.108C99.6321 137.339 101.502 136.283 103.085 135.052L104.999 133.183C106.89 131.314 107.924 128.851 107.946 126.191C107.946 123.552 106.934 121.046 105.065 119.177L95.937 110.051C94.0675 108.182 91.6042 107.171 88.9649 107.171C86.3256 107.171 83.8622 108.204 81.9927 110.051L81.5529 110.491L78.0338 114.229L76.6702 113.46C72.4033 111.085 67.8065 108.204 62.9678 103.367C57.9092 98.3097 55.0499 93.5163 52.7625 89.4265L52.0367 88.1072L56.0616 84.0833C59.9106 80.2354 59.9106 73.9907 56.0616 70.1427L47.198 61.2815C45.3285 59.4125 42.8652 58.401 40.2259 58.401C37.5866 58.401 35.0573 59.4564 33.1877 61.3474L31.3842 63.1725C30.0426 64.8656 28.9869 66.7126 28.2391 68.6475C27.5573 70.4506 27.0954 72.2316 26.8754 74.1006C26.8095 74.6283 26.3696 79.6637 28.8769 87.5355C32.154 97.804 38.7963 107.985 48.6057 117.791C65.7611 134.942 78.3417 141.165 92.308 139.472C94.0895 139.274 95.8711 138.834 97.7406 138.108H97.6966Z" fill="white"/>
<path class="toggle__icon" d="M101.327 95.1433C94.6407 95.1433 88.1304 92.9665 82.8078 88.9646L73.7462 90.8116C72.5365 91.0535 71.2609 90.6357 70.4251 89.7122C69.5893 88.7887 69.3254 87.4694 69.6993 86.2821L73.0424 75.9036C71.8107 72.2975 70.5131 67.724 70.5131 64.3598C70.5131 47.3848 84.3254 33.5762 101.305 33.5762C118.284 33.5762 132.097 47.3848 132.097 64.3598C132.097 81.3347 118.284 95.1433 101.305 95.1433H101.327ZM83.7316 81.6645C84.5454 81.6645 85.3591 81.9504 85.997 82.5001C90.2858 86.1281 95.7184 88.1071 101.327 88.1071C114.435 88.1071 125.103 77.4428 125.103 64.3378C125.103 51.2328 114.435 40.5684 101.327 40.5684C88.2184 40.5684 77.5512 51.2328 77.5512 64.3378C77.5512 66.4047 78.4969 70.2746 80.0585 74.6503C80.3224 75.3759 80.3225 76.1675 80.1025 76.9151L78.233 82.698L83.0057 81.7305C83.2477 81.6865 83.4676 81.6645 83.7096 81.6645H83.7316Z" fill="white"/>
<path class="toggle__icon" d="M99.1723 76.5851H104.737C105.793 76.5851 106.628 75.7276 106.628 74.6941V69.0431H112.281C113.337 69.0431 114.172 68.1856 114.172 67.1521V61.5891C114.172 60.5337 113.315 59.6981 112.281 59.6981H106.628V54.0471C106.628 52.9917 105.771 52.1561 104.737 52.1561H99.1723C98.1166 52.1561 97.2808 53.0137 97.2808 54.0471V59.6981H91.6283C90.5726 59.6981 89.7148 60.5557 89.7148 61.5891V67.1521C89.7148 68.2076 90.5726 69.0431 91.6283 69.0431H97.2808V74.6941C97.2808 75.7495 98.1386 76.5851 99.1723 76.5851Z" fill="white"/>
</svg>
