<svg class="toggle" width="165" height="165" viewBox="0 0 165 165" fill="none" xmlns="http://www.w3.org/2000/svg">
<path class="toggle__backdrop" d="M82.499 159.437C125.014 159.437 159.479 124.981 159.479 82.478C159.479 39.9747 125.014 5.51904 82.499 5.51904C39.9844 5.51904 5.51953 39.9747 5.51953 82.478C5.51953 124.981 39.9844 159.437 82.499 159.437Z" fill="#000126"/>
<path class="toggle__border" d="M82.5 164.978C36.9941 164.978 0 127.972 0 82.478C0 36.9843 36.9941 0 82.5 0C128.006 0 165 37.0063 165 82.5C165 127.994 127.984 165 82.5 165V164.978ZM82.5 11.0601C43.1085 11.0601 11.041 43.097 11.041 82.478C11.041 121.859 43.0865 153.896 82.5 153.896C121.913 153.896 153.959 121.859 153.959 82.478C153.959 43.097 121.913 11.0601 82.5 11.0601Z" fill="#FFCDCC"/>
<path class="toggle__icon" d="M132.469 83.3137L132.227 83.0938C132.073 82.9619 131.919 82.808 131.787 82.676L108.232 59.1486C108.232 59.1486 108.122 59.0386 108.078 58.9947C106.912 58.0052 105.548 57.3016 104.097 56.9058V51.1448C104.097 49.7596 102.975 48.6162 101.568 48.6162H90.1086C88.723 48.6162 87.5793 49.7376 87.5793 51.1448V56.532H38.8622C34.7493 56.532 31.4062 59.8742 31.4062 63.986V108.688C31.4062 110.073 32.5279 111.217 33.9356 111.217H40.5338C41.6775 116.23 46.1863 119.99 51.5529 119.99C56.9195 119.99 61.4062 116.23 62.5719 111.217H105.878C107.022 116.23 111.531 119.99 116.897 119.99C122.264 119.99 126.773 116.23 127.917 111.195C132.535 111.041 136.252 107.237 136.252 102.575V91.9771C136.252 88.7008 134.889 85.5565 132.491 83.3137H132.469ZM51.5309 114.933C48.0778 114.933 45.2845 112.14 45.2845 108.688C45.2845 105.236 48.0778 102.443 51.5309 102.443C54.984 102.443 57.7772 105.236 57.7772 108.688C57.7772 112.14 54.984 114.933 51.5309 114.933ZM116.853 114.933C113.4 114.933 110.607 112.14 110.607 108.688C110.607 105.236 113.4 102.443 116.853 102.443C120.307 102.443 123.1 105.236 123.1 108.688C123.1 112.14 120.307 114.933 116.853 114.933ZM95.8271 45.8237C94.4415 45.8237 93.2977 44.7023 93.2977 43.295V36.2148C93.2977 34.8295 94.4195 33.6862 95.8271 33.6862C97.2347 33.6862 98.3564 34.8076 98.3564 36.2148V43.295C98.3564 44.6803 97.2347 45.8237 95.8271 45.8237ZM108.078 47.9565C107.44 47.9565 106.78 47.7147 106.296 47.2089C105.307 46.2195 105.307 44.6143 106.296 43.6468L110.761 39.1832C111.751 38.1938 113.356 38.1938 114.324 39.1832C115.314 40.1727 115.314 41.7778 114.324 42.7453L109.859 47.2089C109.375 47.6927 108.716 47.9565 108.078 47.9565ZM84.742 47.9565C84.1042 47.9565 83.4444 47.7147 82.9605 47.2089L78.4957 42.7453C77.506 41.7559 77.506 40.1507 78.4957 39.1832C79.4854 38.1938 81.091 38.1938 82.0587 39.1832L86.5236 43.6468C87.5133 44.6363 87.5133 46.2415 86.5236 47.2089C86.0397 47.6927 85.3799 47.9565 84.742 47.9565Z" fill="white"/>
<path class="toggle__icon" d="M70.8421 84.1052V78.2344C70.8421 77.135 69.9403 76.2334 68.8406 76.2334H62.8802V70.2746C62.8802 69.1752 61.9785 68.2737 60.8788 68.2737H55.0063C53.9066 68.2737 53.0049 69.1752 53.0049 70.2746V76.2334H47.0444C45.9447 76.2334 45.043 77.135 45.043 78.2344V84.1052C45.043 85.2047 45.9447 86.1062 47.0444 86.1062H53.0049V92.065C53.0049 93.1644 53.9066 94.0659 55.0063 94.0659H60.8788C61.9785 94.0659 62.8802 93.1644 62.8802 92.065V86.1062H68.8406C69.9403 86.1062 70.8421 85.2047 70.8421 84.1052Z" fill="#000126"/>
<path class="toggle__icon" d="M90.7686 86.1062C89.339 86.1062 88.1953 84.9408 88.1953 83.5335V69.7029C88.1953 68.9113 88.8331 68.2737 89.6249 68.2737H98.8624C99.7642 68.2737 100.622 68.6255 101.282 69.2632L115.402 83.3796C116.084 84.0613 115.886 84.8309 115.754 85.1387C115.622 85.4465 115.226 86.1282 114.258 86.1282H90.7906L90.7686 86.1062Z" fill="#000126"/>
</svg>
