<?xml version="1.0" encoding="UTF-8"?>
<svg class="toggle" id="Ebene_1" xmlns="http://www.w3.org/2000/svg" version="1.1" viewBox="0 0 165 165">
  <path fill="#000126" class="toggle__backdrop" d="M82.500262,159.45899c42.514999,0,76.978996-34.456001,76.978996-76.959,0-42.5033-34.463997-76.95898-76.978996-76.95898C39.985663,5.54101,5.520742,39.996691,5.520742,82.49999c0,42.502998,34.464921,76.959,76.979519,76.959Z"/>
  <path fill="#FFCDCC" class="toggle__border" d="M82.5,164.977997C36.994099,164.977997,0,127.972,0,82.477997,0,36.984299,37.016102,0,82.5,0s82.5,37.006302,82.5,82.5c0,45.494003-37.015999,82.5-82.5,82.5v-.022003ZM82.5,11.0601C43.108501,11.0601,11.041,43.097,11.041,82.477997s32.045498,71.417999,71.459,71.417999c39.413002,0,71.459-32.036995,71.459-71.417999S121.913002,11.0601,82.5,11.0601Z"/>
  <path fill="#fff" class="toggle__icon" d="M120.15645,54.250937c0-4.116768-3.337285-7.455184-7.453865-7.455184s-7.453675,3.338416-7.453675,7.455184c0,4.116581,3.337285,7.455184,7.453675,7.455184,4.11677,0,7.453865-3.338603,7.453865-7.455184ZM76.914541,114.434627l.064687.108632c.883592,1.58556,2.867292,2.182862,4.480577,1.347738l11.508773-6.283602c1.344716-.734032,2.577784-1.661949,3.656958-2.746965l7.747327-7.808809,16.539876-.522801-1.065971,11.621744c-.164456,1.805851,1.104067,3.422342,2.896715,3.690911l.135039.020559c1.810191.271401,3.511741-.930927,3.861217-2.727914l3.149062-16.219633c.299497-1.548787-.107127-3.149249-1.114252-4.366098-1.005807-1.212699-2.501784-1.914483-4.081502-1.908635l-11.885784.045642,2.815802-11.361662,8.463632,3.200549c1.361131.513937,2.883514.378709,4.129973-.367016l10.030147-5.986931c.638601-.378709,1.095204-.998262,1.275694-1.714754.177662-.720829.060164-1.479947-.324393-2.11553l-.104295-.174643c-.777977-1.280218-2.429738-1.714754-3.734852-.98355l-8.416859,4.711237-13.364223-8.070212c-.98808-.772319-2.177394-1.321334-3.501556-1.548974-.234996-.036776-.471311-.067519-.7048-.086568,0,0-.521293-.042436-1.082-.010185l-18.172402,1.011465c-1.05107.041302-2.055369.443399-2.840701,1.140843l-7.283372,6.474274c-1.078984.958654-1.178752,2.605892-.227451,3.6894l.04677.055827c.857381.979213,2.302055,1.177431,3.395751.472632l8.137915-5.264591,9.456046.877747-2.906897,16.401821-8.829137,13.873823-10.959571,7.005939c-1.547279.939606-2.07309,2.933113-1.191944,4.518288ZM55.955097,60.569288l-12.411974-8.476492h34.455148c.353935,0,.640857-.286921.640857-.640857v-4.075716c0-.353935-.286921-.640857-.640857-.640857h-39.496447c-1.03856,0-1.880479.841919-1.880479,1.880479v65.886639c0,1.03856.841919,1.880479,1.880479,1.880479h5.041299l11.520918,7.867965c.936956.639874,2.207706-.031105,2.207706-1.165708v-6.702257h11.163849c.353935,0,.640857-.286921.640857-.640857v-4.075717c0-.353935-.286921-.640857-.640857-.640857h-11.163849v-47.962674c0-.997661-.492782-1.930928-1.31665-2.493571Z"/>
</svg>