<svg class="toggle" width="165" height="165" viewBox="0 0 165 165" fill="none" xmlns="http://www.w3.org/2000/svg">
<path class="toggle__backdrop" d="M82.499 159.459C125.014 159.459 159.479 125.003 159.479 82.5C159.479 39.9967 125.014 5.54102 82.499 5.54102C39.9844 5.54102 5.51953 39.9967 5.51953 82.5C5.51953 125.003 39.9844 159.459 82.499 159.459Z" fill="#000126"/>
<path class="toggle__border" d="M82.4999 165C36.994 165 0 127.994 0 82.5C0 37.0063 37.016 0 82.4999 0C127.984 0 165 37.0063 165 82.5C165 127.994 127.984 165 82.4999 165ZM82.4999 11.0821C43.1084 11.0821 11.041 43.119 11.041 82.5C11.041 121.881 43.0864 153.918 82.4999 153.918C121.913 153.918 153.959 121.881 153.959 82.5C153.959 43.119 121.913 11.0821 82.4999 11.0821Z" fill="#FFCDCC"/>
<path class="toggle__icon" d="M98.1598 106.335C99.0616 105.631 100.359 105.631 101.261 106.335C105.748 109.765 111.246 111.634 116.921 111.634H123.079C124.421 111.634 125.521 112.733 125.521 114.075V117.791C125.521 119.132 124.421 120.231 123.079 120.231H116.921C111.356 120.231 105.88 118.89 100.953 116.318C100.161 115.9 99.2374 115.9 98.4456 116.318C93.5189 118.89 88.0425 120.231 82.478 120.231C76.9134 120.231 71.4369 118.89 66.5102 116.318C65.7184 115.9 64.7946 115.9 64.0028 116.318C59.0761 118.89 53.5996 120.231 48.035 120.231H41.8767C40.5351 120.231 39.4354 119.132 39.4354 117.791V114.075C39.4354 112.733 40.5351 111.634 41.8767 111.634H48.035C53.9295 111.634 59.362 109.655 63.6949 106.357C64.5966 105.653 65.8944 105.653 66.7961 106.357C71.2829 109.787 76.7815 111.656 82.4559 111.656C88.3504 111.656 93.7829 109.677 98.1158 106.379L98.1598 106.335ZM84.9633 36.4781L85.4031 36.83L127.126 74.7597C128.072 75.6173 127.456 77.2224 126.18 77.2224H119.032C117.867 77.2224 116.921 78.1679 116.921 79.3333V103.037C111.136 103.037 105.638 100.728 101.635 96.6601C100.557 95.5826 98.8635 95.5826 97.7858 96.6601C93.7829 100.706 88.2843 103.037 82.4998 103.037C76.7154 103.037 71.217 100.728 67.214 96.6601C66.1363 95.5826 64.4428 95.5826 63.365 96.6601C59.3621 100.706 53.8635 103.037 48.0791 103.037V79.3333C48.0791 78.1679 47.1333 77.2224 45.9676 77.2224H38.8195C37.5218 77.2224 36.906 75.6393 37.8738 74.7597L79.5967 36.83C80.9384 35.6206 82.8958 35.3567 84.5014 36.2143L84.9633 36.5001V36.4781Z" fill="white"/>
</svg>
