<?xml version="1.0" encoding="UTF-8"?>
<svg id="Ebene_1" xmlns="http://www.w3.org/2000/svg" version="1.1" viewBox="0 0 41.00375 38.43837">
  <!-- Generator: Adobe Illustrator 30.2.1, SVG Export Plug-In . SVG Version: 2.1.1 Build 1)  -->
  <defs>
    <style>
      .st0 {
        fill: #fff;
      }
    </style>
  </defs>
  <path class="st0" d="M27.62522,32.11837c.41-.32,1-.32,1.41,0,2.04,1.56,4.54,2.41,7.12,2.41h2.8c.61,0,1.11.5,1.11,1.11v1.69c0,.61-.5,1.11-1.11,1.11h-2.8c-2.53001,0-5.02-.61-7.26-1.78-.36-.19-.78-.19-1.14,0-2.24,1.17-4.73,1.78-7.26,1.78s-5.02-.61-7.26-1.78c-.36-.19-.78-.19-1.14,0-2.24,1.17-4.73,1.78-7.26,1.78h-2.8c-.61,0-1.11-.5-1.11-1.11v-1.69c0-.61.5-1.11,1.11-1.11h2.8c2.68,0,5.15-.9,7.12-2.4.41-.32,1-.32,1.41,0,2.04,1.56001,4.54,2.41,7.12,2.41,2.68,0,5.15-.9,7.12-2.4l.02-.02ZM21.62522.34836l.2.16,18.97,17.25c.43.39.15,1.12-.43,1.12h-3.25c-.53,0-.96.43-.96.96v10.78c-2.63,0-5.13-1.05-6.95-2.9-.49-.49-1.25999-.49-1.75,0-1.82,1.84-4.32,2.9-6.95,2.9s-5.13-1.05-6.95-2.9c-.49-.49-1.26-.49-1.75,0-1.82,1.84-4.32,2.9-6.95,2.9v-10.78c0-.53-.43-.96-.96-.96H.64522c-.59,0-.87-.72-.43-1.12L19.18523.50836c.61-.55,1.5-.67,2.23-.28l.21.13v-.01Z"/>
</svg>