<svg width="143" height="144" viewBox="0 0 143 144" fill="none" xmlns="http://www.w3.org/2000/svg">
<path d="M71.96 2.50195C108.392 2.75535 140.96 34.2764 140.42 72.8076C139.88 110.938 107.618 141.082 69.5107 141.082H4.09961C3.99857 141.082 3.91191 141.038 3.84863 140.947C3.81739 140.902 3.8019 140.858 3.79688 140.821C3.79266 140.79 3.79273 140.749 3.81543 140.69L3.82031 140.679L3.82422 140.668C5.41024 136.438 7.91348 129.248 9.5293 122.088C10.3366 118.51 10.9388 114.868 11.0771 111.566C11.2043 108.53 10.9535 105.514 9.88867 103.073L9.66504 102.593C4.58113 92.3037 1.94799 80.5659 2.59766 68.1299V68.1279C4.47304 31.5368 35.5137 2.2486 71.96 2.50195Z" fill="white" stroke="#0004A0" stroke-width="5"/>
<path d="M42.2583 85.8711L43.3796 79.6758C43.5665 78.662 44.4261 77.9486 45.4353 77.9486H92.9421C94.2503 77.9486 95.2595 79.1501 94.9978 80.4268L93.8765 86.622C93.6897 87.6358 92.83 88.3492 91.8208 88.3492H44.314C43.0058 88.3492 41.9967 87.1477 42.2583 85.8711ZM46.4446 62.742L47.5659 56.5468C47.7527 55.533 48.6124 54.8196 49.6216 54.8196H97.1284C98.4366 54.8196 99.4457 56.0211 99.1841 57.2977L98.0628 63.493C97.8759 64.5067 97.0163 65.2201 96.0071 65.2201H48.5003C47.1921 65.2201 46.1829 64.0186 46.4446 62.742ZM48.3135 102.392L59.6015 40.026C59.7884 39.0122 60.648 38.2988 61.6572 38.2988H67.7498C69.058 38.2988 70.0671 39.5003 69.8055 40.7769L58.5174 103.143C58.3305 104.157 57.4709 104.87 56.4617 104.87H50.3692C49.061 104.87 48.0518 103.668 48.3135 102.392ZM71.6369 102.392L82.925 40.026C83.1119 39.0122 83.9715 38.2988 84.9807 38.2988H91.0732C92.3814 38.2988 93.3906 39.5003 93.129 40.7769L81.8409 103.143C81.654 104.157 80.7944 104.87 79.7852 104.87H73.6926C72.3844 104.87 71.3753 103.668 71.6369 102.392Z" fill="#0004A0"/>
</svg>
