<svg width="142" height="231" viewBox="0 0 142 231" fill="none" xmlns="http://www.w3.org/2000/svg">
<path d="M71.0098 2.5C108.789 2.5 139.5 33.3594 139.5 71.2939V77.3428L139.234 77.0762C138.59 84.7299 136.688 92.026 133.747 98.7676H133.894L132.085 102.386L73.2256 220.118L70.9902 224.591L68.7539 220.118L9.89551 102.386L8.08691 98.7676H8.23242C4.55656 90.341 2.50005 81.0483 2.5 71.2734C2.5 33.3579 33.2323 2.50022 71.0098 2.5Z" fill="white" stroke="#0004A0" stroke-width="5"/>
<path d="M85.0563 122.873C86.8439 122.159 88.5706 121.18 90.0332 120.037L91.8005 118.303C93.5475 116.569 94.5023 114.284 94.5226 111.816C94.5226 109.368 93.5882 107.042 91.8615 105.308L83.4312 96.8419C81.7045 95.1078 79.4294 94.1694 76.9917 94.1694C74.554 94.1694 72.2789 95.1282 70.5522 96.8419L70.1459 97.2499L66.8957 100.718L65.6361 100.004C61.6952 97.8007 57.4496 95.1282 52.9806 90.6402C48.3084 85.9481 45.6675 81.5008 43.5549 77.7063L42.8846 76.4823L46.602 72.749C50.1569 69.179 50.1569 63.3853 46.602 59.8152L38.4155 51.5938C36.6888 49.8598 34.4137 48.9214 31.976 48.9214C29.5383 48.9214 27.2022 49.9006 25.4755 51.655L23.8098 53.3483C22.5706 54.9191 21.5956 56.6327 20.9049 58.428C20.2752 60.1008 19.8486 61.7532 19.6454 63.4873C19.5845 63.9769 19.1782 68.6486 21.494 75.9519C24.5207 85.4789 30.6556 94.9242 39.7156 104.023C55.5605 119.935 67.1801 125.708 80.0794 124.138C81.7249 123.954 83.3702 123.546 85.0969 122.873H85.0563Z" fill="#0004A0"/>
<path d="M88.4078 83.0117C82.2324 83.0117 76.2195 80.9921 71.3035 77.2792L62.9342 78.9928C61.8169 79.2172 60.6387 78.8296 59.8668 77.9728C59.0948 77.116 58.851 75.892 59.1964 74.7903L62.2841 65.1614C61.1465 61.8157 59.948 57.5724 59.948 54.4512C59.948 38.7021 72.7051 25.8906 88.3875 25.8906C104.07 25.8906 116.827 38.7021 116.827 54.4512C116.827 70.2003 104.07 83.0117 88.3875 83.0117H88.4078ZM72.1567 70.5063C72.9083 70.5063 73.66 70.7715 74.2491 71.2815C78.2103 74.6475 83.2278 76.4836 88.4078 76.4836C100.515 76.4836 110.367 66.5894 110.367 54.4308C110.367 42.2721 100.515 32.3779 88.4078 32.3779C76.3007 32.3779 66.4485 42.2721 66.4485 54.4308C66.4485 56.3484 67.322 59.9389 68.7643 63.9985C69.008 64.6718 69.008 65.4062 68.8048 66.0998L67.0782 71.4651L71.4863 70.5675C71.7097 70.5267 71.9129 70.5063 72.1363 70.5063H72.1567Z" fill="#0004A0"/>
<path d="M86.4166 65.7932H91.556C92.531 65.7932 93.3031 64.9976 93.3031 64.0388V58.7959H98.5236C99.4987 58.7959 100.271 58.0003 100.271 57.0415V51.8802C100.271 50.901 99.4784 50.1257 98.5236 50.1257H93.3031V44.8828C93.3031 43.9036 92.5107 43.1284 91.556 43.1284H86.4166C85.4415 43.1284 84.6696 43.924 84.6696 44.8828V50.1257H79.4489C78.4739 50.1257 77.6816 50.9214 77.6816 51.8802V57.0415C77.6816 58.0207 78.4739 58.7959 79.4489 58.7959H84.6696V64.0388C84.6696 65.018 85.4619 65.7932 86.4166 65.7932Z" fill="#0004A0"/>
</svg>
