<svg class="toggle" width="165" height="165" viewBox="0 0 165 165" fill="none" xmlns="http://www.w3.org/2000/svg">
<path class="toggle__backdrop" d="M82.501 159.437C125.016 159.437 159.48 124.981 159.48 82.478C159.48 39.9747 125.016 5.51904 82.501 5.51904C39.9864 5.51904 5.52148 39.9747 5.52148 82.478C5.52148 124.981 39.9864 159.437 82.501 159.437Z" fill="#000126"/>
<path class="toggle__border" d="M82.5 164.978C37.0161 164.978 0 127.972 0 82.478C0 36.9843 37.0161 0 82.5 0C127.984 0 165 37.0063 165 82.5C165 127.994 127.984 165 82.5 165V164.978ZM82.5 11.0601C43.1085 11.0601 11.0631 43.097 11.0631 82.478C11.0631 121.859 43.1085 153.896 82.522 153.896C121.935 153.896 153.981 121.859 153.981 82.478C153.981 43.097 121.913 11.0601 82.5 11.0601Z" fill="#FFCDCC"/>
<path class="toggle__icon" d="M61.2305 88.1729C61.2305 99.9147 70.7539 109.458 82.5208 109.458C94.2877 109.458 103.811 99.9367 103.811 88.1729V81.1587C103.811 69.4169 94.2877 59.874 82.5208 59.874C70.7539 59.874 61.2305 69.3949 61.2305 81.1587V88.1729Z" fill="white"/>
<path class="toggle__icon" d="M123.08 134.348C111.555 143.385 97.2146 148.333 82.5005 148.333C69.2601 148.333 56.4815 144.419 45.5504 137.009C44.3187 136.173 43.109 135.294 41.9434 134.37C45.2645 121.881 53.7982 111.634 64.9712 106.313C69.524 110.711 75.7044 113.415 82.5005 113.415C89.2967 113.415 95.4991 110.711 100.052 106.313C111.225 111.634 119.759 121.859 123.08 134.348Z" fill="white"/>
<path class="toggle__icon" d="M111.531 83.1817C111.531 92.1309 118.789 99.387 127.741 99.387C136.693 99.387 143.951 92.1309 143.951 83.1817V77.8385C143.951 68.8893 136.693 61.6332 127.741 61.6332C118.789 61.6332 111.531 68.8893 111.531 77.8385V83.1817Z" fill="white"/>
<path class="toggle__icon" d="M145.842 100.574C142.477 112.426 135.791 123.178 126.421 131.556C122.924 120.1 115.314 110.425 105.131 104.488C107.792 101.718 110.937 99.453 114.412 97.8038C117.865 101.146 122.572 103.213 127.763 103.213C132.953 103.213 137.66 101.146 141.135 97.8038C142.785 98.5954 144.368 99.5189 145.864 100.596L145.842 100.574Z" fill="white"/>
<path class="toggle__icon" d="M53.4897 83.1817C53.4897 92.1309 46.2316 99.387 37.28 99.387C28.3284 99.387 21.0703 92.1309 21.0703 83.1817V77.8385C21.0703 68.8893 28.3284 61.6332 37.28 61.6332C46.2316 61.6332 53.4897 68.8893 53.4897 77.8385V83.1817Z" fill="white"/>
<path class="toggle__icon" d="M19.1782 100.574C22.5433 112.426 29.2296 123.178 38.5991 131.556C42.0961 120.1 49.7061 110.425 59.8894 104.488C57.2281 101.718 54.0829 99.453 50.6079 97.8038C47.1548 101.146 42.448 103.213 37.2574 103.213C32.0668 103.213 27.3601 101.146 23.885 97.8038C22.2354 98.5954 20.6519 99.5189 19.1562 100.596L19.1782 100.574Z" fill="white"/>
</svg>
