<svg class="toggle" width="165" height="165" viewBox="0 0 165 165" fill="none" xmlns="http://www.w3.org/2000/svg">
<path class="toggle__backdrop" d="M82.499 159.459C125.014 159.459 159.479 125.003 159.479 82.5C159.479 39.9967 125.014 5.54102 82.499 5.54102C39.9844 5.54102 5.51953 39.9967 5.51953 82.5C5.51953 125.003 39.9844 159.459 82.499 159.459Z" fill="#000126"/>
<path class="toggle__border" d="M82.5 165C36.9941 165 0 127.994 0 82.5C0 37.0063 36.9941 0 82.5 0C128.006 0 165 37.0063 165 82.5C165 127.994 127.984 165 82.5 165ZM82.5 11.0821C43.1085 11.0821 11.041 43.119 11.041 82.5C11.041 121.881 43.0865 153.918 82.5 153.918C121.913 153.918 153.959 121.881 153.959 82.5C153.959 43.119 121.913 11.0821 82.5 11.0821Z" fill="#FFCDCC"/>
<path class="toggle__icon" d="M124.552 83.1154C124.222 106.291 104.537 124.541 81.3554 124.541H42.8656C41.7219 124.541 40.9082 123.398 41.3261 122.32C43.1736 117.417 47.1105 105.763 44.8231 101.19C41.7219 94.9451 40.1165 87.8209 40.5124 80.2789C41.6561 58.0708 60.571 40.3042 82.807 40.4581C105.043 40.6121 124.882 59.7199 124.552 83.1154Z" fill="white"/>
<path class="toggle__backdrop" d="M65.3213 90.7452L65.9811 87.1172C66.0911 86.5235 66.5971 86.1057 67.1909 86.1057H95.1454C95.9152 86.1057 96.509 86.8093 96.355 87.5569L95.6952 91.185C95.5852 91.7787 95.0794 92.1965 94.4856 92.1965H66.531C65.7612 92.1965 65.1674 91.4928 65.3213 90.7452ZM67.7846 77.1785L68.4444 73.5504C68.5544 72.9567 69.0604 72.539 69.6542 72.539H97.6087C98.3785 72.539 98.9723 73.2426 98.8183 73.9902L98.1585 77.6183C98.0486 78.2119 97.5427 78.6297 96.9489 78.6297H68.9943C68.2245 78.6297 67.6307 77.9261 67.7846 77.1785ZM68.8844 100.42L75.5266 63.8976C75.6366 63.3039 76.1424 62.8861 76.7363 62.8861H80.3213C81.0911 62.8861 81.6849 63.5897 81.531 64.3373L74.8888 100.86C74.7789 101.454 74.2729 101.871 73.6791 101.871H70.094C69.3242 101.871 68.7304 101.168 68.8844 100.42ZM82.6087 100.42L89.2509 63.8976C89.3609 63.3039 89.8668 62.8861 90.4606 62.8861H94.0457C94.8154 62.8861 95.4093 63.5897 95.2553 64.3373L88.6132 100.86C88.5032 101.454 87.9972 101.871 87.4034 101.871H83.8185C83.0487 101.871 82.4547 101.168 82.6087 100.42Z" fill="#000126"/>
</svg>
