<?xml version="1.0" encoding="UTF-8"?>
<svg id="Ebene_1" xmlns="http://www.w3.org/2000/svg" version="1.1" viewBox="0 0 106.100201 106.092999">
 <defs>
    <style>
      .st0 {
        fill: #fff;
      }
    </style>
  </defs>
  <path class="st0" d="M59.670002,0c-13.4384.021999-25.579205,8.179699-30.615803,20.646999-1.913502-.4837-3.892899-.747601-5.850399-.747601C10.381199,19.899399,0,30.277901,0,43.097004c0,12.819199,10.381199,23.197693,23.2038,23.197693h7.016098l6.422302-27.991096c.681801-3.012398,3.365097-5.145302,6.444298-5.145302h24.875298c2.067505,0,4.047401.989502,5.278404,2.6166,1.276001,1.6492,1.650002,3.804001,1.122002,5.804901l-5.102699,18.096397h10.315697c3.651001.022003,6.598,2.968407,6.598,6.640503h3.343002c9.149002,0,16.584-7.432098,16.584-16.579201,0-7.871796-5.565002-14.688202-13.285004-16.249298,0-.110001.022003-.241898.022003-.329903C92.8372,14.842102,77.991199,0,59.670002,0ZM43.086498,39.798801l-9.127701,39.777199h19.069099l-6.642296,26.516998,33.167595-39.776299h-19.069298l7.455902-26.517899h-24.875404.022102Z"/>
</svg>