<svg width="3860" height="2172" viewBox="0 0 3860 2172" fill="none" xmlns="http://www.w3.org/2000/svg">
<path fill-rule="evenodd" clip-rule="evenodd" d="M2526.61 137.428L2527.38 136.413C2527.6 136.124 2527.85 135.853 2528.12 135.605L2530.97 132.96C2531.69 132.291 2532.48 131.7 2533.33 131.197C2534.17 130.695 2535.06 130.285 2536 129.971C2542.44 127.803 2548.22 124.039 2552.81 119.029L2661.93 0H2143.39L2097.31 58.1666L2072.08 93.0142L2050.17 120.358L2039.24 133.732C2024.97 151.197 2013.34 170.663 2004.72 191.506L1997.22 209.634L1996.76 210.556L1988.78 223.878C1986.23 228.137 1983.55 232.313 1980.73 236.399L1899.1 354.674L1884.95 374.439C1880.59 380.521 1875.91 386.365 1870.93 391.949C1865.11 398.479 1859.7 405.365 1854.74 412.568L1807.78 480.681L1784.76 512.911L1757.41 550.039C1755.6 552.488 1753.72 554.876 1751.75 557.197L1722.07 592.265L1705.4 610.524C1703.29 612.844 1701.09 615.09 1698.82 617.258L1633.24 679.767L1559.12 747.267L1532.56 773.459L1461.61 837.36L1415.84 879.18C1415.62 879.378 1415.4 879.569 1415.17 879.753L1373.41 913.262C1372.98 913.607 1372.53 913.925 1372.06 914.216L1327.83 941.692C1327.42 941.95 1326.99 942.185 1326.55 942.397L1295.86 957.202L1272.34 968.133L1249.67 977.481L1195.17 1000.44C1194.73 1000.62 1194.29 1000.78 1193.84 1000.92L1154.59 1012.87C1154.22 1012.98 1153.85 1013.08 1153.47 1013.16L1121.03 1020.12C1120.36 1020.26 1119.69 1020.35 1119 1020.4L1064.09 1023.8C1054.75 1024.38 1045.38 1024.57 1036.01 1024.36L1030.8 1024.24C1026.72 1024.15 1022.64 1023.85 1018.58 1023.36L1013.5 1022.73C1005.62 1021.77 997.666 1021.57 989.749 1022.13C984.374 1022.51 979.029 1023.25 973.749 1024.33L941.333 1030.96C940.445 1031.14 939.577 1031.41 938.742 1031.77L924.98 1037.58L923.254 1038.06L903.443 1040.93C901.04 1041.28 898.627 1041.55 896.208 1041.74L876.524 1043.3L834.098 1044.65L708.874 1048.96L557.838 1052.2L436.952 1055.82L333.151 1059.64L221.281 1064.34L152.617 1066.49L151.789 1066.47L142.898 1065.7C137.275 1065.22 131.621 1065.19 125.993 1065.63L103.208 1067.4L76.2957 1068.7L57.0093 1068.67L39.4871 1069.18C39.1888 1069.19 38.8916 1069.22 38.5974 1069.27L22.7572 1071.96C22.624 1071.98 22.4915 1072.01 22.36 1072.04L0 1077.29V1326.21L44.2881 1338.31L104.191 1353.14L141.957 1361.42L184.429 1370.49L252.672 1381.65L316.483 1389.08L380.484 1395.4L406.928 1397.81C415.034 1398.54 423.158 1399.07 431.292 1399.37L509.691 1402.33L581.35 1401.73C590.096 1401.65 598.838 1401.33 607.566 1400.76L634.365 1399L651.221 1398.42C660.357 1398.11 669.481 1397.53 678.582 1396.67L717.057 1393.05L751.949 1389.53L774.971 1386.39L823.046 1379.59L841.559 1376.72C857.261 1374.29 872.827 1371.05 888.194 1367.01L946.886 1354.74L985.033 1346.43L1011.75 1339.52L1085.61 1317.49L1096.94 1313.66C1107.41 1310.13 1117.75 1306.22 1127.93 1301.94L1205.86 1269.23L1241.9 1253.85L1253.61 1248.36C1253.83 1248.25 1254.05 1248.14 1254.27 1248.02L1263.73 1242.94L1273.38 1238.02C1273.61 1237.9 1273.85 1237.79 1274.09 1237.68L1287.6 1231.73C1288.88 1231.16 1290.07 1230.41 1291.12 1229.49L1293.09 1227.76C1293.72 1227.21 1294.29 1226.6 1294.81 1225.95L1296.64 1223.64C1297.17 1222.96 1297.77 1222.33 1298.43 1221.77L1298.46 1221.74C1299.11 1221.18 1299.81 1220.67 1300.56 1220.24L1396.86 1164.49L1447.22 1133.53C1447.82 1133.16 1448.4 1132.74 1448.94 1132.28L1468.59 1115.53C1468.94 1115.22 1469.31 1114.94 1469.7 1114.67L1537.55 1067.85C1537.76 1067.7 1537.98 1067.55 1538.19 1067.38L1545.72 1061.51C1547.8 1059.89 1549.37 1057.7 1550.24 1055.21L1550.3 1055.05C1550.76 1053.73 1551.42 1052.49 1552.26 1051.37C1553.09 1050.24 1554.1 1049.25 1555.23 1048.43L1575.61 1033.73L1585.88 1027.07C1586.12 1026.92 1586.35 1026.76 1586.57 1026.59L1642.29 985.407L1665.57 969.27C1665.67 969.205 1665.76 969.142 1665.86 969.082L1689.74 954.345L1744.01 919.455L1787.49 890.988L1809.06 876.455L1847.52 851.997C1847.64 851.919 1847.76 851.846 1847.89 851.777L1886.87 830.499C1887 830.428 1887.13 830.361 1887.27 830.299L1908.61 820.493L1908.92 818.81C1908.99 818.459 1909.08 818.114 1909.2 817.779L1909.63 816.607C1909.75 816.272 1909.9 815.948 1910.07 815.637L1915.23 806.475C1915.49 806.01 1915.81 805.579 1916.18 805.192L1917.45 803.857C1917.82 803.471 1918.23 803.132 1918.69 802.847L1923 800.126L1923.36 798.777L1924.28 796.899L1924.99 795.854L1926.72 794.248C1927.06 793.924 1927.45 793.64 1927.86 793.401L1928.75 792.876C1930.25 791.998 1932.04 791.763 1933.72 792.224L1938.43 793.519C1939.26 793.746 1940.12 793.807 1940.97 793.697L1955.18 791.862C1956.02 791.754 1956.87 791.811 1957.69 792.031L1960.7 792.844C1961.59 793.082 1962.41 793.506 1963.12 794.086L1963.14 794.106C1964.22 794.992 1965.56 795.504 1966.95 795.565L1967.44 795.586C1967.85 795.604 1968.27 795.582 1968.68 795.52L1989.68 792.371C1990.44 792.257 1991.17 792.008 1991.84 791.637L2014.33 779.215C2015.81 778.399 2016.91 777.034 2017.39 775.416C2017.58 774.797 2017.85 774.209 2018.21 773.672L2019.44 771.847C2019.8 771.304 2020.24 770.82 2020.75 770.411L2030.29 762.746C2030.46 762.603 2030.65 762.469 2030.84 762.346L2109.67 711.678L2134.83 693.985L2202.66 643.613C2202.78 643.521 2202.9 643.424 2203.02 643.324L2215.84 632.293L2230.83 618.095L2302.33 544.715C2304.21 542.794 2305.96 540.764 2307.59 538.635L2333.51 504.819L2351.47 482.951C2351.61 482.777 2351.74 482.595 2351.87 482.407L2399.41 410.268C2399.54 410.078 2399.65 409.882 2399.76 409.68L2410.64 388.625C2411.94 386.122 2411.46 383.068 2409.46 381.082L2405.26 376.914C2402.68 374.353 2398.49 374.427 2396.01 377.078L2380 394.135L2355.37 419.554L2225.81 550.233L2207.92 567.16L2109.48 662.324L2091.5 678.636L2022.8 742.688C2022.57 742.899 2022.33 743.094 2022.08 743.27L2021.18 743.89C2020.93 744.066 2020.66 744.224 2020.39 744.362L1984.59 762.221L1981.72 763.526C1979.29 764.63 1977 766.02 1974.9 767.664L1974.1 768.284C1973.85 768.484 1973.58 768.664 1973.3 768.823L1972.31 769.381C1972.02 769.54 1971.73 769.678 1971.42 769.794L1944.03 780.168C1943.92 780.209 1943.81 780.248 1943.7 780.284L1931.94 784.017L1918.42 787.965C1918.28 788.003 1918.15 788.046 1918.02 788.093L1907.01 792.089L1905.53 792.487L1903.28 792.803L1901.76 792.89L1899.16 792.39C1898.64 792.289 1898.13 792.124 1897.65 791.898L1896.89 791.541C1896.49 791.354 1896.11 791.127 1895.76 790.863L1894.53 789.941C1894.17 789.676 1893.85 789.375 1893.55 789.043L1892.94 788.349C1892.73 788.112 1892.54 787.86 1892.37 787.595L1891.77 786.669C1891.6 786.405 1891.44 786.13 1891.31 785.845L1890.26 783.539C1890.07 783.133 1889.92 782.708 1889.83 782.271L1889.48 780.748C1889.38 780.31 1889.33 779.862 1889.32 779.413L1889.31 778.22C1889.3 777.562 1889.39 776.905 1889.58 776.274L1890.23 774.124C1890.42 773.492 1890.7 772.893 1891.07 772.347L1892.83 769.762L1894.09 768.363L1902.4 761.295L1910.32 753.827L2008.97 667.069L2137.92 541.363L2161.98 517.27L2309.69 374.017L2456.76 222.24C2457.48 221.5 2458.16 220.732 2458.82 219.939L2524.68 140.591C2524.97 140.244 2525.22 139.868 2525.43 139.47L2526.02 138.349C2526.19 138.026 2526.38 137.718 2526.61 137.428Z" fill="#0004A0"/>
</svg>
